{"glyphs":{"0":{"ha":788,"x_min":110,"x_max":678,"o":"m 394 -13 q 182 97 255 -13 q 110 415 110 206 l 110 590 q 182 912 110 802 q 395 1023 255 1023 q 606 912 534 1023 q 678 590 678 802 l 678 415 q 605 97 678 206 q 394 -13 533 -13 m 394 83 q 534 158 492 83 q 576 409 576 234 l 576 596 q 534 850 576 774 q 394 927 492 927 q 254 850 295 927 q 212 596 212 774 l 212 409 q 254 158 212 234 q 394 83 295 83 m 394 410 q 339 424 360 410 q 318 477 318 438 l 318 532 q 339 584 318 569 q 394 598 360 598 q 449 584 428 598 q 470 532 470 569 l 470 477 q 448 424 470 438 q 394 410 427 410 z "},"1":{"ha":788,"x_min":133,"x_max":711,"o":"m 164 0 l 164 91 l 396 91 l 396 881 l 367 881 q 276 791 336 819 q 143 775 216 763 l 133 881 q 283 907 212 872 q 400 1010 354 942 l 497 1010 l 497 91 l 711 91 l 711 0 l 164 0 z "},"2":{"ha":788,"x_min":110,"x_max":678,"o":"m 110 0 l 110 217 q 155 396 110 335 q 309 494 199 458 l 456 544 q 540 594 514 559 q 566 693 566 629 l 566 754 q 528 887 566 847 q 394 927 490 927 q 266 881 301 927 q 222 693 232 836 l 121 706 q 191 952 130 881 q 393 1023 253 1023 q 598 960 530 1023 q 667 770 667 898 l 667 678 q 623 532 667 585 q 471 443 580 479 l 326 393 q 241 338 270 378 q 212 220 212 298 l 212 91 l 678 91 l 678 0 l 110 0 z "},"3":{"ha":788,"x_min":100,"x_max":678,"o":"m 383 -13 q 164 58 220 -13 q 100 269 109 129 l 202 282 q 247 116 211 157 q 383 76 283 76 q 533 121 490 76 q 576 275 576 165 l 576 302 q 537 452 576 410 q 395 494 497 494 l 289 494 l 289 586 l 395 586 q 520 619 485 586 q 556 736 556 653 l 556 771 q 518 898 556 861 q 385 934 480 934 q 266 895 302 934 q 222 746 231 855 l 121 759 q 193 962 129 902 q 384 1023 258 1023 q 581 961 505 1023 q 657 764 657 900 l 657 722 q 612 606 657 648 q 491 559 568 564 l 491 523 q 631 452 583 514 q 678 311 678 390 l 678 277 q 611 66 678 145 q 383 -13 544 -13 z "},"4":{"ha":788,"x_min":100,"x_max":730,"o":"m 213 366 l 503 366 l 503 881 l 213 366 m 730 270 l 604 270 l 604 0 l 503 0 l 503 270 l 100 270 l 100 366 l 456 1010 l 604 1010 l 604 366 l 730 366 l 730 270 z "},"5":{"ha":788,"x_min":100,"x_max":678,"o":"m 386 -13 q 167 46 226 -13 q 100 268 109 105 l 202 280 q 244 120 208 157 q 386 83 279 83 q 533 130 490 83 q 576 265 576 177 l 576 326 q 542 465 576 417 q 433 513 509 513 l 131 513 l 131 1010 l 634 1010 l 634 914 l 232 914 l 232 614 l 431 614 q 614 545 551 614 q 678 328 678 476 l 678 256 q 604 60 678 133 q 386 -13 529 -13 z "},"6":{"ha":788,"x_min":110,"x_max":678,"o":"m 394 -13 q 181 82 251 -13 q 110 352 110 177 l 110 672 q 183 934 110 845 q 396 1023 256 1023 q 585 972 524 1023 q 668 802 646 920 l 557 773 q 509 893 540 860 q 394 927 477 927 q 254 867 295 927 q 212 669 212 808 l 212 530 l 232 530 q 302 605 260 581 q 413 630 345 630 q 613 544 548 630 q 678 327 678 458 l 678 307 q 605 69 678 150 q 394 -13 533 -13 m 393 83 q 530 136 486 83 q 573 302 573 188 l 573 312 q 530 476 573 424 q 393 528 486 528 q 256 476 299 528 q 212 312 212 424 l 212 302 q 256 136 212 188 q 393 83 299 83 z "},"7":{"ha":788,"x_min":110,"x_max":678,"o":"m 292 0 q 407 521 352 343 q 576 902 461 699 l 110 902 l 110 1010 l 678 1010 l 678 902 q 500 475 558 665 q 402 0 442 284 l 292 0 z "},"8":{"ha":788,"x_min":110,"x_max":678,"o":"m 394 -13 q 177 52 244 -13 q 110 260 110 116 l 110 284 q 154 444 110 383 q 277 514 198 505 l 277 551 q 173 609 215 557 q 131 745 131 662 l 131 782 q 193 966 131 909 q 394 1023 255 1023 q 595 966 533 1023 q 657 782 657 909 l 657 745 q 615 609 657 662 q 511 551 573 557 l 511 514 q 634 443 590 505 q 678 284 678 380 l 678 260 q 611 52 678 116 q 394 -13 544 -13 m 394 578 q 520 614 485 578 q 556 742 556 650 l 556 771 q 520 898 556 862 q 394 934 485 934 q 268 898 303 934 q 232 771 232 862 l 232 742 q 268 614 232 650 q 394 578 303 578 m 394 76 q 536 118 496 76 q 576 270 576 160 l 576 287 q 536 439 576 396 q 394 482 496 482 q 252 439 292 482 q 212 287 212 396 l 212 270 q 252 118 212 160 q 394 76 292 76 z "},"9":{"ha":788,"x_min":110,"x_max":678,"o":"m 395 482 q 532 534 489 482 q 576 698 576 586 l 576 708 q 532 874 576 822 q 395 927 489 927 q 258 874 302 927 q 215 708 215 822 l 215 698 q 258 534 215 586 q 395 482 302 482 m 391 -13 q 203 39 264 -13 q 120 208 141 91 l 231 237 q 281 115 247 146 q 394 83 314 83 q 534 143 492 83 q 576 340 576 202 l 576 480 l 557 480 q 486 406 533 432 q 372 380 439 380 q 176 460 242 380 q 110 683 110 540 l 110 703 q 182 941 110 860 q 394 1023 255 1023 q 607 927 537 1023 q 678 658 678 832 l 678 338 q 607 79 678 170 q 391 -13 535 -13 z "},"\u0000":{"ha":0,"x_min":0,"x_max":0,"o":""},"\r":{"ha":0,"x_min":0,"x_max":0,"o":""}," ":{"ha":788,"x_min":0,"x_max":0,"o":""}," ":{"ha":788,"x_min":0,"x_max":0,"o":""},"A":{"ha":788,"x_min":68,"x_max":720,"o":"m 513 400 l 393 879 l 273 400 l 513 400 m 612 0 l 535 308 l 250 308 l 173 0 l 68 0 l 342 1010 l 447 1010 l 720 0 l 612 0 z "},"À":{"ha":788,"x_min":68,"x_max":720,"o":"m 513 400 l 393 879 l 273 400 l 513 400 m 612 0 l 535 308 l 250 308 l 173 0 l 68 0 l 342 1010 l 447 1010 l 720 0 l 612 0 m 398 1136 l 193 1389 l 346 1389 l 491 1136 l 398 1136 z "},"Á":{"ha":788,"x_min":68,"x_max":720,"o":"m 513 400 l 393 879 l 273 400 l 513 400 m 612 0 l 535 308 l 250 308 l 173 0 l 68 0 l 342 1010 l 447 1010 l 720 0 l 612 0 m 277 1136 l 420 1389 l 574 1389 l 370 1136 l 277 1136 z "},"Â":{"ha":788,"x_min":68,"x_max":720,"o":"m 513 400 l 393 879 l 273 400 l 513 400 m 612 0 l 535 308 l 250 308 l 173 0 l 68 0 l 342 1010 l 447 1010 l 720 0 l 612 0 m 213 1159 l 165 1222 l 359 1407 l 431 1407 l 625 1222 l 576 1158 l 394 1299 l 213 1159 z "},"Ã":{"ha":788,"x_min":68,"x_max":720,"o":"m 513 400 l 393 879 l 273 400 l 513 400 m 612 0 l 535 308 l 250 308 l 173 0 l 68 0 l 342 1010 l 447 1010 l 720 0 l 612 0 m 477 1149 q 412 1174 437 1149 q 370 1226 388 1198 q 338 1278 354 1254 q 303 1302 323 1302 q 266 1271 279 1302 q 255 1173 254 1241 l 255 1162 l 176 1162 l 176 1181 q 211 1333 176 1271 q 313 1394 246 1394 q 383 1369 357 1394 q 426 1318 409 1345 q 455 1266 442 1290 q 487 1242 468 1242 q 523 1272 510 1242 q 537 1370 537 1302 l 537 1383 l 615 1383 l 615 1364 q 580 1210 615 1270 q 477 1149 544 1149 z "},"Ä":{"ha":788,"x_min":68,"x_max":720,"o":"m 513 400 l 393 879 l 273 400 l 513 400 m 612 0 l 535 308 l 250 308 l 173 0 l 68 0 l 342 1010 l 447 1010 l 720 0 l 612 0 m 274 1157 q 225 1170 244 1157 q 207 1221 207 1183 l 207 1227 q 225 1280 207 1266 q 274 1294 244 1294 q 323 1280 306 1294 q 341 1227 341 1266 l 341 1221 q 323 1170 341 1183 q 274 1157 304 1157 m 516 1157 q 467 1170 485 1157 q 449 1221 449 1183 l 449 1227 q 467 1280 449 1266 q 516 1294 485 1294 q 564 1280 545 1294 q 583 1227 583 1266 l 583 1221 q 564 1170 583 1183 q 516 1157 545 1157 z "},"Å":{"ha":788,"x_min":68,"x_max":720,"o":"m 513 400 l 393 879 l 273 400 l 513 400 m 612 0 l 535 308 l 250 308 l 173 0 l 68 0 l 342 1010 l 447 1010 l 720 0 l 612 0 m 395 1121 q 275 1165 321 1121 q 229 1301 229 1210 l 229 1341 q 275 1479 229 1433 q 395 1524 321 1524 q 516 1479 471 1524 q 562 1341 562 1433 l 562 1301 q 516 1165 562 1210 q 395 1121 470 1121 m 395 1203 q 460 1225 438 1203 q 482 1301 482 1247 l 482 1341 q 460 1417 482 1393 q 395 1442 438 1442 q 330 1417 352 1442 q 308 1341 308 1393 l 308 1301 q 330 1225 308 1247 q 395 1203 352 1203 z "},"Ā":{"ha":788,"x_min":68,"x_max":720,"o":"m 513 400 l 393 879 l 273 400 l 513 400 m 612 0 l 535 308 l 250 308 l 173 0 l 68 0 l 342 1010 l 447 1010 l 720 0 l 612 0 m 186 1217 l 186 1308 l 605 1308 l 605 1217 l 186 1217 z "},"Ă":{"ha":788,"x_min":68,"x_max":720,"o":"m 513 400 l 393 879 l 273 400 l 513 400 m 612 0 l 535 308 l 250 308 l 173 0 l 68 0 l 342 1010 l 447 1010 l 720 0 l 612 0 m 395 1128 q 219 1189 285 1128 q 152 1381 153 1250 l 255 1381 q 291 1252 256 1290 q 395 1213 326 1213 q 499 1252 465 1213 q 535 1381 534 1290 l 639 1381 q 571 1189 638 1250 q 395 1128 505 1128 z "},"Ą":{"ha":788,"x_min":68,"x_max":770,"o":"m 513 400 l 393 879 l 273 400 l 513 400 m 612 0 l 535 308 l 250 308 l 173 0 l 68 0 l 342 1010 l 447 1010 l 720 0 l 612 0 m 665 -269 q 554 -229 600 -269 q 509 -121 509 -189 q 549 -20 509 -66 q 636 48 590 25 l 664 29 q 614 -33 626 1 q 601 -91 601 -67 q 621 -146 601 -126 q 677 -165 641 -165 q 725 -161 696 -165 q 770 -153 754 -157 l 770 -256 q 720 -265 750 -261 q 665 -269 689 -269 z "},"Ǻ":{"ha":788,"x_min":68,"x_max":720,"o":"m 513 400 l 393 879 l 273 400 l 513 400 m 612 0 l 535 308 l 250 308 l 173 0 l 68 0 l 342 1010 l 447 1010 l 720 0 l 612 0 m 395 1121 q 275 1165 321 1121 q 229 1301 229 1210 l 229 1341 q 275 1479 229 1433 q 395 1524 321 1524 q 516 1479 471 1524 q 562 1341 562 1433 l 562 1301 q 516 1165 562 1210 q 395 1121 470 1121 m 395 1203 q 460 1225 438 1203 q 482 1301 482 1247 l 482 1341 q 460 1417 482 1393 q 395 1442 438 1442 q 330 1417 352 1442 q 308 1341 308 1393 l 308 1301 q 330 1225 308 1247 q 395 1203 352 1203 m 338 1515 l 482 1768 l 636 1768 l 432 1515 l 338 1515 z "},"B":{"ha":788,"x_min":133,"x_max":682,"o":"m 133 0 l 133 1010 l 391 1010 q 585 951 521 1010 q 648 773 648 893 l 648 712 q 614 609 648 653 q 524 553 581 564 l 524 516 q 639 453 596 509 q 682 309 682 396 l 682 255 q 612 63 682 126 q 399 0 542 0 l 133 0 m 234 573 l 403 573 q 514 610 480 573 q 548 730 548 646 l 548 758 q 514 878 548 841 q 403 914 480 914 l 234 914 l 234 573 m 234 96 l 424 96 q 544 137 506 96 q 581 269 581 178 l 581 303 q 544 436 581 395 q 424 477 506 477 l 234 477 l 234 96 z "},"":{"ha":788,"x_min":133,"x_max":682,"o":"m 133 0 l 133 1010 l 391 1010 q 585 951 521 1010 q 648 773 648 893 l 648 712 q 614 609 648 653 q 524 553 581 564 l 524 516 q 639 453 596 509 q 682 309 682 396 l 682 255 q 612 63 682 126 q 399 0 542 0 l 133 0 m 234 573 l 403 573 q 514 610 480 573 q 548 730 548 646 l 548 758 q 514 878 548 841 q 403 914 480 914 l 234 914 l 234 573 m 234 96 l 424 96 q 544 137 506 96 q 581 269 581 178 l 581 303 q 544 436 581 395 q 424 477 506 477 l 234 477 l 234 96 z "},"C":{"ha":788,"x_min":110,"x_max":698,"o":"m 405 -13 q 184 75 259 -13 q 110 336 110 163 l 110 669 q 184 934 110 845 q 405 1023 259 1023 q 619 941 548 1023 q 698 688 689 860 l 598 676 q 546 875 588 818 q 405 932 504 932 q 256 874 299 932 q 212 678 212 816 l 212 327 q 258 139 212 199 q 405 78 304 78 q 545 133 504 78 q 598 330 587 188 l 698 317 q 619 68 689 148 q 405 -13 548 -13 z "},"Ç":{"ha":788,"x_min":110,"x_max":698,"o":"m 405 -13 q 184 75 259 -13 q 110 336 110 163 l 110 669 q 184 934 110 845 q 405 1023 259 1023 q 619 941 548 1023 q 698 688 689 860 l 598 676 q 546 875 588 818 q 405 932 504 932 q 256 874 299 932 q 212 678 212 816 l 212 327 q 258 139 212 199 q 405 78 304 78 q 545 133 504 78 q 598 330 587 188 l 698 317 q 619 68 689 148 q 405 -13 548 -13 m 372 0 l 393 53 q 485 -1 448 40 q 521 -115 521 -43 q 473 -232 521 -194 q 370 -269 426 -269 q 260 -242 303 -269 q 212 -146 217 -215 l 302 -134 q 318 -167 303 -158 q 365 -177 332 -177 q 413 -160 396 -177 q 429 -101 429 -144 q 417 -32 429 -54 q 372 0 404 -10 z "},"Ć":{"ha":788,"x_min":110,"x_max":698,"o":"m 405 -13 q 184 75 259 -13 q 110 336 110 163 l 110 669 q 184 934 110 845 q 405 1023 259 1023 q 619 941 548 1023 q 698 688 689 860 l 598 676 q 546 875 588 818 q 405 932 504 932 q 256 874 299 932 q 212 678 212 816 l 212 327 q 258 139 212 199 q 405 78 304 78 q 545 133 504 78 q 598 330 587 188 l 698 317 q 619 68 689 148 q 405 -13 548 -13 m 330 1136 l 473 1389 l 628 1389 l 423 1136 l 330 1136 z "},"Ĉ":{"ha":788,"x_min":110,"x_max":698,"o":"m 405 -13 q 184 75 259 -13 q 110 336 110 163 l 110 669 q 184 934 110 845 q 405 1023 259 1023 q 619 941 548 1023 q 698 688 689 860 l 598 676 q 546 875 588 818 q 405 932 504 932 q 256 874 299 932 q 212 678 212 816 l 212 327 q 258 139 212 199 q 405 78 304 78 q 545 133 504 78 q 598 330 587 188 l 698 317 q 619 68 689 148 q 405 -13 548 -13 m 222 1159 l 174 1222 l 367 1407 l 439 1407 l 634 1222 l 585 1158 l 403 1299 l 222 1159 z "},"Ċ":{"ha":788,"x_min":110,"x_max":698,"o":"m 405 -13 q 184 75 259 -13 q 110 336 110 163 l 110 669 q 184 934 110 845 q 405 1023 259 1023 q 619 941 548 1023 q 698 688 689 860 l 598 676 q 546 875 588 818 q 405 932 504 932 q 256 874 299 932 q 212 678 212 816 l 212 327 q 258 139 212 199 q 405 78 304 78 q 545 133 504 78 q 598 330 587 188 l 698 317 q 619 68 689 148 q 405 -13 548 -13 m 404 1157 q 340 1170 365 1157 q 316 1221 316 1183 l 316 1227 q 340 1280 316 1266 q 404 1294 365 1294 q 468 1280 443 1294 q 492 1227 492 1266 l 492 1221 q 468 1170 492 1183 q 404 1157 443 1157 z "},"Č":{"ha":788,"x_min":110,"x_max":698,"o":"m 405 -13 q 184 75 259 -13 q 110 336 110 163 l 110 669 q 184 934 110 845 q 405 1023 259 1023 q 619 941 548 1023 q 698 688 689 860 l 598 676 q 546 875 588 818 q 405 932 504 932 q 256 874 299 932 q 212 678 212 816 l 212 327 q 258 139 212 199 q 405 78 304 78 q 545 133 504 78 q 598 330 587 188 l 698 317 q 619 68 689 148 q 405 -13 548 -13 m 369 1141 l 174 1326 l 223 1389 l 405 1250 l 586 1389 l 634 1326 l 441 1141 l 369 1141 z "},"D":{"ha":788,"x_min":133,"x_max":678,"o":"m 133 0 l 133 1010 l 361 1010 q 593 915 508 1010 q 678 663 678 821 l 678 342 q 593 93 678 187 q 361 0 508 0 l 133 0 m 234 91 l 362 91 q 521 158 467 91 q 576 336 576 225 l 576 669 q 521 850 576 782 q 362 919 467 919 l 234 919 l 234 91 z "},"Ď":{"ha":788,"x_min":133,"x_max":678,"o":"m 133 0 l 133 1010 l 361 1010 q 593 915 508 1010 q 678 663 678 821 l 678 342 q 593 93 678 187 q 361 0 508 0 l 133 0 m 234 91 l 362 91 q 521 158 467 91 q 576 336 576 225 l 576 669 q 521 850 576 782 q 362 919 467 919 l 234 919 l 234 91 m 359 1141 l 164 1326 l 213 1389 l 395 1250 l 576 1389 l 624 1326 l 431 1141 l 359 1141 z "},"E":{"ha":788,"x_min":133,"x_max":678,"o":"m 133 0 l 133 1010 l 678 1010 l 678 919 l 234 919 l 234 598 l 625 598 l 625 506 l 234 506 l 234 91 l 678 91 l 678 0 l 133 0 z "},"":{"ha":788,"x_min":133,"x_max":678,"o":"m 133 0 l 133 1010 l 678 1010 l 678 919 l 234 919 l 234 598 l 625 598 l 625 506 l 234 506 l 234 91 l 678 91 l 678 0 l 133 0 z "},"È":{"ha":788,"x_min":133,"x_max":678,"o":"m 133 0 l 133 1010 l 678 1010 l 678 919 l 234 919 l 234 598 l 625 598 l 625 506 l 234 506 l 234 91 l 678 91 l 678 0 l 133 0 m 407 1136 l 202 1389 l 355 1389 l 500 1136 l 407 1136 z "},"É":{"ha":788,"x_min":133,"x_max":678,"o":"m 133 0 l 133 1010 l 678 1010 l 678 919 l 234 919 l 234 598 l 625 598 l 625 506 l 234 506 l 234 91 l 678 91 l 678 0 l 133 0 m 307 1136 l 451 1389 l 605 1389 l 400 1136 l 307 1136 z "},"Ê":{"ha":788,"x_min":133,"x_max":678,"o":"m 133 0 l 133 1010 l 678 1010 l 678 919 l 234 919 l 234 598 l 625 598 l 625 506 l 234 506 l 234 91 l 678 91 l 678 0 l 133 0 m 234 1159 l 186 1222 l 379 1407 l 451 1407 l 645 1222 l 596 1158 l 414 1299 l 234 1159 z "},"Ë":{"ha":788,"x_min":133,"x_max":678,"o":"m 133 0 l 133 1010 l 678 1010 l 678 919 l 234 919 l 234 598 l 625 598 l 625 506 l 234 506 l 234 91 l 678 91 l 678 0 l 133 0 m 294 1157 q 246 1170 264 1157 q 227 1221 227 1183 l 227 1227 q 246 1280 227 1266 q 294 1294 264 1294 q 343 1280 326 1294 q 361 1227 361 1266 l 361 1221 q 343 1170 361 1183 q 294 1157 324 1157 m 537 1157 q 487 1170 505 1157 q 470 1221 470 1183 l 470 1227 q 487 1280 470 1266 q 537 1294 505 1294 q 585 1280 566 1294 q 604 1227 604 1266 l 604 1221 q 585 1170 604 1183 q 537 1157 566 1157 z "},"Ē":{"ha":788,"x_min":133,"x_max":678,"o":"m 133 0 l 133 1010 l 678 1010 l 678 919 l 234 919 l 234 598 l 625 598 l 625 506 l 234 506 l 234 91 l 678 91 l 678 0 l 133 0 m 206 1217 l 206 1308 l 625 1308 l 625 1217 l 206 1217 z "},"Ĕ":{"ha":788,"x_min":133,"x_max":678,"o":"m 133 0 l 133 1010 l 678 1010 l 678 919 l 234 919 l 234 598 l 625 598 l 625 506 l 234 506 l 234 91 l 678 91 l 678 0 l 133 0 m 415 1128 q 239 1189 306 1128 q 172 1381 173 1250 l 275 1381 q 311 1252 277 1290 q 415 1213 346 1213 q 520 1252 485 1213 q 556 1381 554 1290 l 659 1381 q 592 1189 658 1250 q 415 1128 525 1128 z "},"Ė":{"ha":788,"x_min":133,"x_max":678,"o":"m 133 0 l 133 1010 l 678 1010 l 678 919 l 234 919 l 234 598 l 625 598 l 625 506 l 234 506 l 234 91 l 678 91 l 678 0 l 133 0 m 415 1157 q 352 1170 376 1157 q 327 1221 327 1183 l 327 1227 q 352 1280 327 1266 q 415 1294 376 1294 q 479 1280 455 1294 q 504 1227 504 1266 l 504 1221 q 479 1170 504 1183 q 415 1157 455 1157 z "},"Ę":{"ha":788,"x_min":133,"x_max":678,"o":"m 573 -269 q 462 -229 508 -269 q 417 -121 417 -189 q 457 -20 417 -66 q 544 48 497 25 l 572 29 q 521 -33 534 1 q 509 -91 509 -67 q 529 -146 509 -126 q 585 -165 549 -165 q 633 -161 604 -165 q 678 -153 662 -157 l 678 -256 q 628 -265 658 -261 q 573 -269 597 -269 m 133 0 l 133 1010 l 678 1010 l 678 919 l 234 919 l 234 598 l 625 598 l 625 506 l 234 506 l 234 91 l 678 91 l 678 0 l 133 0 z "},"Ě":{"ha":788,"x_min":133,"x_max":678,"o":"m 133 0 l 133 1010 l 678 1010 l 678 919 l 234 919 l 234 598 l 625 598 l 625 506 l 234 506 l 234 91 l 678 91 l 678 0 l 133 0 m 391 1141 l 197 1326 l 246 1389 l 428 1250 l 609 1389 l 657 1326 l 463 1141 l 391 1141 z "},"F":{"ha":788,"x_min":130,"x_max":677,"o":"m 130 0 l 130 1010 l 677 1010 l 677 919 l 231 919 l 231 487 l 602 487 l 602 395 l 231 395 l 231 0 l 130 0 z "},"G":{"ha":788,"x_min":110,"x_max":699,"o":"m 412 -13 q 186 81 261 -13 q 110 336 110 176 l 110 669 q 186 932 110 842 q 405 1023 261 1023 q 603 947 537 1023 q 678 706 669 871 l 576 693 q 528 876 568 821 q 403 932 489 932 q 256 874 301 932 q 212 677 212 817 l 212 327 q 259 135 212 192 q 415 78 307 78 q 555 146 513 78 q 597 376 597 215 l 394 376 l 394 467 l 699 467 l 699 351 q 626 81 699 174 q 412 -13 552 -13 z "},"Ĝ":{"ha":788,"x_min":110,"x_max":699,"o":"m 412 -13 q 186 81 261 -13 q 110 336 110 176 l 110 669 q 186 932 110 842 q 405 1023 261 1023 q 603 947 537 1023 q 678 706 669 871 l 576 693 q 528 876 568 821 q 403 932 489 932 q 256 874 301 932 q 212 677 212 817 l 212 327 q 259 135 212 192 q 415 78 307 78 q 555 146 513 78 q 597 376 597 215 l 394 376 l 394 467 l 699 467 l 699 351 q 626 81 699 174 q 412 -13 552 -13 m 234 1159 l 186 1222 l 379 1407 l 451 1407 l 645 1222 l 596 1158 l 414 1299 l 234 1159 z "},"Ğ":{"ha":788,"x_min":110,"x_max":699,"o":"m 412 -13 q 186 81 261 -13 q 110 336 110 176 l 110 669 q 186 932 110 842 q 405 1023 261 1023 q 603 947 537 1023 q 678 706 669 871 l 576 693 q 528 876 568 821 q 403 932 489 932 q 256 874 301 932 q 212 677 212 817 l 212 327 q 259 135 212 192 q 415 78 307 78 q 555 146 513 78 q 597 376 597 215 l 394 376 l 394 467 l 699 467 l 699 351 q 626 81 699 174 q 412 -13 552 -13 m 415 1128 q 239 1189 306 1128 q 172 1381 173 1250 l 275 1381 q 311 1252 277 1290 q 415 1213 346 1213 q 520 1252 485 1213 q 556 1381 554 1290 l 659 1381 q 592 1189 658 1250 q 415 1128 525 1128 z "},"Ġ":{"ha":788,"x_min":110,"x_max":699,"o":"m 412 -13 q 186 81 261 -13 q 110 336 110 176 l 110 669 q 186 932 110 842 q 405 1023 261 1023 q 603 947 537 1023 q 678 706 669 871 l 576 693 q 528 876 568 821 q 403 932 489 932 q 256 874 301 932 q 212 677 212 817 l 212 327 q 259 135 212 192 q 415 78 307 78 q 555 146 513 78 q 597 376 597 215 l 394 376 l 394 467 l 699 467 l 699 351 q 626 81 699 174 q 412 -13 552 -13 m 404 1157 q 340 1170 365 1157 q 316 1221 316 1183 l 316 1227 q 340 1280 316 1266 q 404 1294 365 1294 q 468 1280 443 1294 q 492 1227 492 1266 l 492 1221 q 468 1170 492 1183 q 404 1157 443 1157 z "},"Ģ":{"ha":788,"x_min":110,"x_max":699,"o":"m 264 -379 l 366 -126 l 520 -126 l 359 -379 l 264 -379 m 412 -13 q 186 81 261 -13 q 110 336 110 176 l 110 669 q 186 932 110 842 q 405 1023 261 1023 q 603 947 537 1023 q 678 706 669 871 l 576 693 q 528 876 568 821 q 403 932 489 932 q 256 874 301 932 q 212 677 212 817 l 212 327 q 259 135 212 192 q 415 78 307 78 q 555 146 513 78 q 597 376 597 215 l 394 376 l 394 467 l 699 467 l 699 351 q 626 81 699 174 q 412 -13 552 -13 z "},"H":{"ha":788,"x_min":133,"x_max":655,"o":"m 133 0 l 133 1010 l 234 1010 l 234 592 l 554 592 l 554 1010 l 655 1010 l 655 0 l 554 0 l 554 500 l 234 500 l 234 0 l 133 0 z "},"Ĥ":{"ha":788,"x_min":133,"x_max":655,"o":"m 133 0 l 133 1010 l 234 1010 l 234 592 l 554 592 l 554 1010 l 655 1010 l 655 0 l 554 0 l 554 500 l 234 500 l 234 0 l 133 0 m 212 1159 l 164 1222 l 357 1407 l 429 1407 l 624 1222 l 574 1158 l 393 1299 l 212 1159 z "},"I":{"ha":788,"x_min":133,"x_max":655,"o":"m 133 0 l 133 91 l 343 91 l 343 919 l 133 919 l 133 1010 l 655 1010 l 655 919 l 444 919 l 444 91 l 655 91 l 655 0 l 133 0 z "},"Ì":{"ha":788,"x_min":133,"x_max":655,"o":"m 133 0 l 133 91 l 343 91 l 343 919 l 133 919 l 133 1010 l 655 1010 l 655 919 l 444 919 l 444 91 l 655 91 l 655 0 l 133 0 m 396 1136 l 192 1389 l 345 1389 l 490 1136 l 396 1136 z "},"Í":{"ha":788,"x_min":133,"x_max":655,"o":"m 133 0 l 133 91 l 343 91 l 343 919 l 133 919 l 133 1010 l 655 1010 l 655 919 l 444 919 l 444 91 l 655 91 l 655 0 l 133 0 m 275 1136 l 419 1389 l 573 1389 l 369 1136 l 275 1136 z "},"Î":{"ha":788,"x_min":133,"x_max":655,"o":"m 133 0 l 133 91 l 343 91 l 343 919 l 133 919 l 133 1010 l 655 1010 l 655 919 l 444 919 l 444 91 l 655 91 l 655 0 l 133 0 m 212 1159 l 164 1222 l 357 1407 l 429 1407 l 624 1222 l 574 1158 l 393 1299 l 212 1159 z "},"Ï":{"ha":788,"x_min":133,"x_max":655,"o":"m 133 0 l 133 91 l 343 91 l 343 919 l 133 919 l 133 1010 l 655 1010 l 655 919 l 444 919 l 444 91 l 655 91 l 655 0 l 133 0 m 273 1157 q 224 1170 242 1157 q 206 1221 206 1183 l 206 1227 q 224 1280 206 1266 q 273 1294 242 1294 q 322 1280 304 1294 q 340 1227 340 1266 l 340 1221 q 321 1170 340 1183 q 273 1157 303 1157 m 515 1157 q 466 1170 484 1157 q 448 1221 448 1183 l 448 1227 q 466 1280 448 1266 q 515 1294 484 1294 q 563 1280 544 1294 q 582 1227 582 1266 l 582 1221 q 563 1170 582 1183 q 515 1157 544 1157 z "},"Ĩ":{"ha":788,"x_min":133,"x_max":655,"o":"m 133 0 l 133 91 l 343 91 l 343 919 l 133 919 l 133 1010 l 655 1010 l 655 919 l 444 919 l 444 91 l 655 91 l 655 0 l 133 0 m 476 1149 q 411 1174 436 1149 q 369 1226 386 1198 q 337 1278 352 1254 q 302 1302 322 1302 q 265 1271 278 1302 q 254 1173 253 1241 l 254 1162 l 174 1162 l 174 1181 q 210 1333 174 1271 q 312 1394 245 1394 q 382 1369 356 1394 q 424 1318 408 1345 q 454 1266 441 1290 q 486 1242 467 1242 q 522 1272 509 1242 q 535 1370 535 1302 l 535 1383 l 614 1383 l 614 1364 q 578 1210 614 1270 q 476 1149 543 1149 z "},"Ī":{"ha":788,"x_min":133,"x_max":655,"o":"m 133 0 l 133 91 l 343 91 l 343 919 l 133 919 l 133 1010 l 655 1010 l 655 919 l 444 919 l 444 91 l 655 91 l 655 0 l 133 0 m 184 1217 l 184 1308 l 604 1308 l 604 1217 l 184 1217 z "},"Ĭ":{"ha":788,"x_min":133,"x_max":655,"o":"m 133 0 l 133 91 l 343 91 l 343 919 l 133 919 l 133 1010 l 655 1010 l 655 919 l 444 919 l 444 91 l 655 91 l 655 0 l 133 0 m 394 1128 q 218 1189 284 1128 q 150 1381 152 1250 l 254 1381 q 290 1252 255 1290 q 394 1213 324 1213 q 498 1252 463 1213 q 534 1381 533 1290 l 638 1381 q 570 1189 636 1250 q 394 1128 504 1128 z "},"Į":{"ha":788,"x_min":133,"x_max":655,"o":"m 133 0 l 133 91 l 343 91 l 343 919 l 133 919 l 133 1010 l 655 1010 l 655 919 l 444 919 l 444 91 l 655 91 l 655 0 l 133 0 m 467 -269 q 356 -229 402 -269 q 311 -121 311 -189 q 351 -20 311 -66 q 438 48 391 25 l 466 29 q 415 -33 428 1 q 403 -91 403 -67 q 423 -146 403 -126 q 479 -165 443 -165 q 527 -161 497 -165 q 572 -153 556 -157 l 572 -256 q 521 -265 552 -261 q 467 -269 491 -269 z "},"İ":{"ha":788,"x_min":133,"x_max":655,"o":"m 133 0 l 133 91 l 343 91 l 343 919 l 133 919 l 133 1010 l 655 1010 l 655 919 l 444 919 l 444 91 l 655 91 l 655 0 l 133 0 m 394 1157 q 330 1170 355 1157 q 306 1221 306 1183 l 306 1227 q 330 1280 306 1266 q 394 1294 355 1294 q 458 1280 433 1294 q 482 1227 482 1266 l 482 1221 q 458 1170 482 1183 q 394 1157 433 1157 z "},"J":{"ha":788,"x_min":90,"x_max":657,"o":"m 374 -13 q 164 64 232 -13 q 90 313 96 141 l 191 327 q 236 129 199 181 q 375 78 273 78 q 511 136 466 78 q 556 307 556 193 l 556 919 l 346 919 l 346 1010 l 657 1010 l 657 309 q 583 69 657 152 q 374 -13 509 -13 z "},"Ĵ":{"ha":788,"x_min":90,"x_max":720,"o":"m 374 -13 q 164 64 232 -13 q 90 313 96 141 l 191 327 q 236 129 199 181 q 375 78 273 78 q 511 136 466 78 q 556 307 556 193 l 556 919 l 346 919 l 346 1010 l 657 1010 l 657 309 q 583 69 657 152 q 374 -13 509 -13 m 308 1159 l 260 1222 l 453 1407 l 525 1407 l 720 1222 l 670 1158 l 489 1299 l 308 1159 z "},"K":{"ha":788,"x_min":133,"x_max":718,"o":"m 234 496 l 234 0 l 133 0 l 133 1010 l 234 1010 l 234 588 l 269 588 l 600 1010 l 718 1010 l 345 547 l 716 0 l 592 0 l 273 496 l 234 496 z "},"Ķ":{"ha":788,"x_min":133,"x_max":718,"o":"m 234 496 l 234 0 l 133 0 l 133 1010 l 234 1010 l 234 588 l 269 588 l 600 1010 l 718 1010 l 345 547 l 716 0 l 592 0 l 273 496 l 234 496 m 253 -379 l 355 -126 l 509 -126 l 347 -379 l 253 -379 z "},"L":{"ha":788,"x_min":186,"x_max":655,"o":"m 186 0 l 186 1010 l 285 1010 l 285 91 l 655 91 l 655 0 l 186 0 z "},"Ĺ":{"ha":788,"x_min":186,"x_max":655,"o":"m 186 0 l 186 1010 l 285 1010 l 285 91 l 655 91 l 655 0 l 186 0 m 226 1136 l 370 1389 l 524 1389 l 319 1136 l 226 1136 z "},"Ļ":{"ha":788,"x_min":186,"x_max":655,"o":"m 186 0 l 186 1010 l 285 1010 l 285 91 l 655 91 l 655 0 l 186 0 m 268 -379 l 370 -126 l 524 -126 l 362 -379 l 268 -379 z "},"Ľ":{"ha":788,"x_min":186,"x_max":668,"o":"m 186 0 l 186 1010 l 285 1010 l 285 91 l 655 91 l 655 0 l 186 0 m 432 638 l 518 1010 l 668 1010 l 505 638 l 432 638 z "},"M":{"ha":788,"x_min":95,"x_max":693,"o":"m 343 235 l 187 856 l 186 0 l 95 0 l 95 1010 l 234 1010 l 398 374 l 559 1010 l 693 1010 l 693 0 l 602 0 l 601 848 l 444 235 l 343 235 z "},"N":{"ha":788,"x_min":133,"x_max":655,"o":"m 508 0 l 223 900 l 223 0 l 133 0 l 133 1010 l 273 1010 l 564 111 l 564 1010 l 655 1010 l 655 0 l 508 0 z "},"Ñ":{"ha":788,"x_min":133,"x_max":655,"o":"m 508 0 l 223 900 l 223 0 l 133 0 l 133 1010 l 273 1010 l 564 111 l 564 1010 l 655 1010 l 655 0 l 508 0 m 497 1149 q 432 1174 457 1149 q 390 1226 408 1198 q 359 1278 374 1254 q 323 1302 343 1302 q 287 1271 299 1302 q 275 1173 274 1241 l 275 1162 l 196 1162 l 196 1181 q 231 1333 196 1271 q 333 1394 266 1394 q 403 1369 378 1394 q 446 1318 429 1345 q 475 1266 462 1290 q 508 1242 489 1242 q 544 1272 530 1242 q 557 1370 557 1302 l 557 1383 l 635 1383 l 635 1364 q 600 1210 635 1270 q 497 1149 564 1149 z "},"Ń":{"ha":788,"x_min":133,"x_max":655,"o":"m 508 0 l 223 900 l 223 0 l 133 0 l 133 1010 l 273 1010 l 564 111 l 564 1010 l 655 1010 l 655 0 l 508 0 m 295 1136 l 439 1389 l 593 1389 l 389 1136 l 295 1136 z "},"Ņ":{"ha":788,"x_min":133,"x_max":655,"o":"m 232 -379 l 335 -126 l 489 -126 l 327 -379 l 232 -379 m 508 0 l 223 900 l 223 0 l 133 0 l 133 1010 l 273 1010 l 564 111 l 564 1010 l 655 1010 l 655 0 l 508 0 z "},"Ň":{"ha":788,"x_min":133,"x_max":655,"o":"m 508 0 l 223 900 l 223 0 l 133 0 l 133 1010 l 273 1010 l 564 111 l 564 1010 l 655 1010 l 655 0 l 508 0 m 380 1141 l 186 1326 l 235 1389 l 417 1250 l 597 1389 l 645 1326 l 452 1141 l 380 1141 z "},"O":{"ha":788,"x_min":110,"x_max":678,"o":"m 394 -13 q 183 78 256 -13 q 110 341 110 168 l 110 664 q 183 932 110 841 q 395 1023 256 1023 q 605 932 533 1023 q 678 664 678 841 l 678 341 q 605 78 678 168 q 394 -13 533 -13 m 394 78 q 534 137 492 78 q 576 333 576 196 l 576 672 q 534 872 576 812 q 394 932 492 932 q 254 872 295 932 q 212 672 212 812 l 212 333 q 254 137 212 196 q 394 78 295 78 z "},"Ò":{"ha":788,"x_min":110,"x_max":678,"o":"m 394 -13 q 183 78 256 -13 q 110 341 110 168 l 110 664 q 183 932 110 841 q 395 1023 256 1023 q 605 932 533 1023 q 678 664 678 841 l 678 341 q 605 78 678 168 q 394 -13 533 -13 m 394 78 q 534 137 492 78 q 576 333 576 196 l 576 672 q 534 872 576 812 q 394 932 492 932 q 254 872 295 932 q 212 672 212 812 l 212 333 q 254 137 212 196 q 394 78 295 78 m 396 1136 l 192 1389 l 345 1389 l 490 1136 l 396 1136 z "},"Ó":{"ha":788,"x_min":110,"x_max":678,"o":"m 394 -13 q 183 78 256 -13 q 110 341 110 168 l 110 664 q 183 932 110 841 q 395 1023 256 1023 q 605 932 533 1023 q 678 664 678 841 l 678 341 q 605 78 678 168 q 394 -13 533 -13 m 394 78 q 534 137 492 78 q 576 333 576 196 l 576 672 q 534 872 576 812 q 394 932 492 932 q 254 872 295 932 q 212 672 212 812 l 212 333 q 254 137 212 196 q 394 78 295 78 m 318 1136 l 462 1389 l 616 1389 l 412 1136 l 318 1136 z "},"Ô":{"ha":788,"x_min":110,"x_max":678,"o":"m 394 -13 q 183 78 256 -13 q 110 341 110 168 l 110 664 q 183 932 110 841 q 395 1023 256 1023 q 605 932 533 1023 q 678 664 678 841 l 678 341 q 605 78 678 168 q 394 -13 533 -13 m 394 78 q 534 137 492 78 q 576 333 576 196 l 576 672 q 534 872 576 812 q 394 932 492 932 q 254 872 295 932 q 212 672 212 812 l 212 333 q 254 137 212 196 q 394 78 295 78 m 212 1159 l 164 1222 l 357 1407 l 429 1407 l 624 1222 l 574 1158 l 393 1299 l 212 1159 z "},"Õ":{"ha":788,"x_min":110,"x_max":678,"o":"m 394 -13 q 183 78 256 -13 q 110 341 110 168 l 110 664 q 183 932 110 841 q 395 1023 256 1023 q 605 932 533 1023 q 678 664 678 841 l 678 341 q 605 78 678 168 q 394 -13 533 -13 m 394 78 q 534 137 492 78 q 576 333 576 196 l 576 672 q 534 872 576 812 q 394 932 492 932 q 254 872 295 932 q 212 672 212 812 l 212 333 q 254 137 212 196 q 394 78 295 78 m 476 1149 q 411 1174 436 1149 q 369 1226 386 1198 q 337 1278 352 1254 q 302 1302 322 1302 q 265 1271 278 1302 q 254 1173 253 1241 l 254 1162 l 174 1162 l 174 1181 q 210 1333 174 1271 q 312 1394 245 1394 q 382 1369 356 1394 q 424 1318 408 1345 q 454 1266 441 1290 q 486 1242 467 1242 q 522 1272 509 1242 q 535 1370 535 1302 l 535 1383 l 614 1383 l 614 1364 q 578 1210 614 1270 q 476 1149 543 1149 z "},"Ö":{"ha":788,"x_min":110,"x_max":678,"o":"m 394 -13 q 183 78 256 -13 q 110 341 110 168 l 110 664 q 183 932 110 841 q 395 1023 256 1023 q 605 932 533 1023 q 678 664 678 841 l 678 341 q 605 78 678 168 q 394 -13 533 -13 m 394 78 q 534 137 492 78 q 576 333 576 196 l 576 672 q 534 872 576 812 q 394 932 492 932 q 254 872 295 932 q 212 672 212 812 l 212 333 q 254 137 212 196 q 394 78 295 78 m 273 1157 q 224 1170 242 1157 q 206 1221 206 1183 l 206 1227 q 224 1280 206 1266 q 273 1294 242 1294 q 322 1280 304 1294 q 340 1227 340 1266 l 340 1221 q 321 1170 340 1183 q 273 1157 303 1157 m 515 1157 q 466 1170 484 1157 q 448 1221 448 1183 l 448 1227 q 466 1280 448 1266 q 515 1294 484 1294 q 563 1280 544 1294 q 582 1227 582 1266 l 582 1221 q 563 1170 582 1183 q 515 1157 544 1157 z "},"Ō":{"ha":788,"x_min":110,"x_max":678,"o":"m 394 -13 q 183 78 256 -13 q 110 341 110 168 l 110 664 q 183 932 110 841 q 395 1023 256 1023 q 605 932 533 1023 q 678 664 678 841 l 678 341 q 605 78 678 168 q 394 -13 533 -13 m 394 78 q 534 137 492 78 q 576 333 576 196 l 576 672 q 534 872 576 812 q 394 932 492 932 q 254 872 295 932 q 212 672 212 812 l 212 333 q 254 137 212 196 q 394 78 295 78 m 184 1217 l 184 1308 l 604 1308 l 604 1217 l 184 1217 z "},"Ŏ":{"ha":788,"x_min":110,"x_max":678,"o":"m 394 -13 q 183 78 256 -13 q 110 341 110 168 l 110 664 q 183 932 110 841 q 395 1023 256 1023 q 605 932 533 1023 q 678 664 678 841 l 678 341 q 605 78 678 168 q 394 -13 533 -13 m 394 78 q 534 137 492 78 q 576 333 576 196 l 576 672 q 534 872 576 812 q 394 932 492 932 q 254 872 295 932 q 212 672 212 812 l 212 333 q 254 137 212 196 q 394 78 295 78 m 394 1128 q 218 1189 284 1128 q 150 1381 152 1250 l 254 1381 q 290 1252 255 1290 q 394 1213 324 1213 q 498 1252 463 1213 q 534 1381 533 1290 l 638 1381 q 570 1189 636 1250 q 394 1128 504 1128 z "},"Ő":{"ha":788,"x_min":110,"x_max":678,"o":"m 394 -13 q 183 78 256 -13 q 110 341 110 168 l 110 664 q 183 932 110 841 q 395 1023 256 1023 q 605 932 533 1023 q 678 664 678 841 l 678 341 q 605 78 678 168 q 394 -13 533 -13 m 394 78 q 534 137 492 78 q 576 333 576 196 l 576 672 q 534 872 576 812 q 394 932 492 932 q 254 872 295 932 q 212 672 212 812 l 212 333 q 254 137 212 196 q 394 78 295 78 m 453 1136 l 513 1389 l 658 1389 l 527 1136 l 453 1136 m 211 1136 l 270 1389 l 415 1389 l 284 1136 l 211 1136 z "},"P":{"ha":788,"x_min":133,"x_max":688,"o":"m 133 0 l 133 1010 l 428 1010 q 626 946 564 1010 q 688 745 688 883 l 688 636 q 625 432 688 497 q 426 367 562 367 l 234 367 l 234 0 l 133 0 m 234 456 l 424 456 q 549 497 511 456 q 587 631 587 538 l 587 746 q 549 878 587 837 q 424 919 511 919 l 234 919 l 234 456 z "},"Q":{"ha":788,"x_min":110,"x_max":712,"o":"m 712 -234 q 486 -229 581 -269 q 388 -27 391 -188 q 181 68 253 -24 q 110 330 110 159 l 110 664 q 184 931 110 838 q 395 1023 258 1023 q 605 931 532 1023 q 678 664 678 838 l 678 330 q 629 104 678 191 q 490 -11 581 16 q 556 -141 494 -121 q 696 -145 617 -162 l 712 -234 m 394 77 q 534 133 492 77 q 576 316 576 188 l 576 677 q 534 869 576 811 q 394 927 492 927 q 254 869 295 927 q 212 677 212 811 l 212 316 q 254 133 212 188 q 394 77 295 77 z "},"R":{"ha":788,"x_min":133,"x_max":720,"o":"m 234 491 l 448 491 q 572 535 534 491 q 610 672 610 578 l 610 751 q 572 879 610 838 q 448 919 534 919 l 234 919 l 234 491 m 234 0 l 133 0 l 133 1010 l 449 1010 q 646 945 581 1010 q 711 747 711 880 l 711 673 q 658 482 711 549 q 500 403 606 415 l 720 0 l 604 0 l 385 403 l 234 403 l 234 0 z "},"Ŕ":{"ha":788,"x_min":133,"x_max":720,"o":"m 234 491 l 448 491 q 572 535 534 491 q 610 672 610 578 l 610 751 q 572 879 610 838 q 448 919 534 919 l 234 919 l 234 491 m 234 0 l 133 0 l 133 1010 l 449 1010 q 646 945 581 1010 q 711 747 711 880 l 711 673 q 658 482 711 549 q 500 403 606 415 l 720 0 l 604 0 l 385 403 l 234 403 l 234 0 m 357 1136 l 501 1389 l 655 1389 l 451 1136 l 357 1136 z "},"Ŗ":{"ha":788,"x_min":133,"x_max":720,"o":"m 234 491 l 448 491 q 572 535 534 491 q 610 672 610 578 l 610 751 q 572 879 610 838 q 448 919 534 919 l 234 919 l 234 491 m 234 0 l 133 0 l 133 1010 l 449 1010 q 646 945 581 1010 q 711 747 711 880 l 711 673 q 658 482 711 549 q 500 403 606 415 l 720 0 l 604 0 l 385 403 l 234 403 l 234 0 m 239 -379 l 341 -126 l 495 -126 l 333 -379 l 239 -379 z "},"Ř":{"ha":788,"x_min":133,"x_max":720,"o":"m 234 491 l 448 491 q 572 535 534 491 q 610 672 610 578 l 610 751 q 572 879 610 838 q 448 919 534 919 l 234 919 l 234 491 m 234 0 l 133 0 l 133 1010 l 449 1010 q 646 945 581 1010 q 711 747 711 880 l 711 673 q 658 482 711 549 q 500 403 606 415 l 720 0 l 604 0 l 385 403 l 234 403 l 234 0 m 365 1141 l 170 1326 l 220 1389 l 402 1250 l 582 1389 l 630 1326 l 437 1141 l 365 1141 z "},"S":{"ha":788,"x_min":88,"x_max":705,"o":"m 408 -10 q 233 24 317 -10 q 88 126 149 58 l 144 203 q 268 112 198 141 q 418 82 338 82 q 554 130 503 82 q 605 263 605 178 q 561 376 605 335 q 381 472 518 418 q 167 594 226 532 q 107 761 107 657 q 182 948 107 884 q 376 1013 258 1013 q 540 978 460 1013 q 676 875 621 943 l 624 794 q 504 889 571 856 q 370 922 437 922 q 253 883 297 922 q 208 768 208 843 q 254 658 208 699 q 444 562 301 617 q 648 448 592 508 q 705 284 705 388 q 619 68 705 145 q 408 -10 534 -10 z "},"":{"ha":788,"x_min":88,"x_max":705,"o":"m 408 -10 q 233 24 317 -10 q 88 126 149 58 l 144 203 q 268 112 198 141 q 418 82 338 82 q 554 130 503 82 q 605 263 605 178 q 561 376 605 335 q 381 472 518 418 q 167 594 226 532 q 107 761 107 657 q 182 948 107 884 q 376 1013 258 1013 q 540 978 460 1013 q 676 875 621 943 l 624 794 q 504 889 571 856 q 370 922 437 922 q 253 883 297 922 q 208 768 208 843 q 254 658 208 699 q 444 562 301 617 q 648 448 592 508 q 705 284 705 388 q 619 68 705 145 q 408 -10 534 -10 z "},"Ś":{"ha":788,"x_min":88,"x_max":705,"o":"m 408 -10 q 233 24 317 -10 q 88 126 149 58 l 144 203 q 268 112 198 141 q 418 82 338 82 q 554 130 503 82 q 605 263 605 178 q 561 376 605 335 q 381 472 518 418 q 167 594 226 532 q 107 761 107 657 q 182 948 107 884 q 376 1013 258 1013 q 540 978 460 1013 q 676 875 621 943 l 624 794 q 504 889 571 856 q 370 922 437 922 q 253 883 297 922 q 208 768 208 843 q 254 658 208 699 q 444 562 301 617 q 648 448 592 508 q 705 284 705 388 q 619 68 705 145 q 408 -10 534 -10 m 277 1136 l 420 1389 l 574 1389 l 370 1136 l 277 1136 z "},"Ŝ":{"ha":788,"x_min":88,"x_max":705,"o":"m 408 -10 q 233 24 317 -10 q 88 126 149 58 l 144 203 q 268 112 198 141 q 418 82 338 82 q 554 130 503 82 q 605 263 605 178 q 561 376 605 335 q 381 472 518 418 q 167 594 226 532 q 107 761 107 657 q 182 948 107 884 q 376 1013 258 1013 q 540 978 460 1013 q 676 875 621 943 l 624 794 q 504 889 571 856 q 370 922 437 922 q 253 883 297 922 q 208 768 208 843 q 254 658 208 699 q 444 562 301 617 q 648 448 592 508 q 705 284 705 388 q 619 68 705 145 q 408 -10 534 -10 m 213 1159 l 165 1222 l 359 1407 l 431 1407 l 625 1222 l 576 1158 l 394 1299 l 213 1159 z "},"Ş":{"ha":788,"x_min":88,"x_max":705,"o":"m 408 -10 q 233 24 317 -10 q 88 126 149 58 l 144 203 q 268 112 198 141 q 418 82 338 82 q 554 130 503 82 q 605 263 605 178 q 561 376 605 335 q 381 472 518 418 q 167 594 226 532 q 107 761 107 657 q 182 948 107 884 q 376 1013 258 1013 q 540 978 460 1013 q 676 875 621 943 l 624 794 q 504 889 571 856 q 370 922 437 922 q 253 883 297 922 q 208 768 208 843 q 254 658 208 699 q 444 562 301 617 q 648 448 592 508 q 705 284 705 388 q 619 68 705 145 q 408 -10 534 -10 m 364 0 l 384 53 q 476 -1 439 40 q 513 -115 513 -43 q 465 -232 513 -194 q 361 -269 417 -269 q 251 -242 294 -269 q 203 -146 208 -215 l 293 -134 q 309 -167 294 -158 q 356 -177 323 -177 q 404 -160 388 -177 q 420 -101 420 -144 q 408 -32 420 -54 q 364 0 395 -10 z "},"Š":{"ha":788,"x_min":88,"x_max":705,"o":"m 408 -10 q 233 24 317 -10 q 88 126 149 58 l 144 203 q 268 112 198 141 q 418 82 338 82 q 554 130 503 82 q 605 263 605 178 q 561 376 605 335 q 381 472 518 418 q 167 594 226 532 q 107 761 107 657 q 182 948 107 884 q 376 1013 258 1013 q 540 978 460 1013 q 676 875 621 943 l 624 794 q 504 889 571 856 q 370 922 437 922 q 253 883 297 922 q 208 768 208 843 q 254 658 208 699 q 444 562 301 617 q 648 448 592 508 q 705 284 705 388 q 619 68 705 145 q 408 -10 534 -10 m 360 1141 l 165 1326 l 215 1389 l 396 1250 l 577 1389 l 625 1326 l 432 1141 l 360 1141 z "},"Ș":{"ha":788,"x_min":88,"x_max":705,"o":"m 408 -10 q 233 24 317 -10 q 88 126 149 58 l 144 203 q 268 112 198 141 q 418 82 338 82 q 554 130 503 82 q 605 263 605 178 q 561 376 605 335 q 381 472 518 418 q 167 594 226 532 q 107 761 107 657 q 182 948 107 884 q 376 1013 258 1013 q 540 978 460 1013 q 676 875 621 943 l 624 794 q 504 889 571 856 q 370 922 437 922 q 253 883 297 922 q 208 768 208 843 q 254 658 208 699 q 444 562 301 617 q 648 448 592 508 q 705 284 705 388 q 619 68 705 145 q 408 -10 534 -10 m 234 -379 l 336 -126 l 490 -126 l 328 -379 l 234 -379 z "},"T":{"ha":788,"x_min":83,"x_max":706,"o":"m 343 0 l 343 919 l 83 919 l 83 1010 l 706 1010 l 706 919 l 444 919 l 444 0 l 343 0 z "},"Ţ":{"ha":788,"x_min":83,"x_max":706,"o":"m 343 0 l 343 919 l 83 919 l 83 1010 l 706 1010 l 706 919 l 444 919 l 444 0 l 343 0 m 348 0 l 369 53 q 461 -1 424 40 q 497 -115 497 -43 q 449 -232 497 -194 q 346 -269 402 -269 q 236 -242 279 -269 q 188 -146 193 -215 l 278 -134 q 294 -167 279 -158 q 341 -177 308 -177 q 389 -160 372 -177 q 405 -101 405 -144 q 393 -32 405 -54 q 348 0 380 -10 z "},"Ť":{"ha":788,"x_min":83,"x_max":706,"o":"m 343 0 l 343 919 l 83 919 l 83 1010 l 706 1010 l 706 919 l 444 919 l 444 0 l 343 0 m 359 1141 l 164 1326 l 213 1389 l 395 1250 l 576 1389 l 624 1326 l 431 1141 l 359 1141 z "},"Ț":{"ha":788,"x_min":83,"x_max":706,"o":"m 343 0 l 343 919 l 83 919 l 83 1010 l 706 1010 l 706 919 l 444 919 l 444 0 l 343 0 m 231 -379 l 333 -126 l 487 -126 l 326 -379 l 231 -379 z "},"U":{"ha":788,"x_min":133,"x_max":655,"o":"m 394 -13 q 198 72 263 -13 q 133 330 133 157 l 133 1010 l 234 1010 l 234 323 q 270 132 234 188 q 394 76 307 76 q 518 132 482 76 q 554 323 554 188 l 554 1010 l 655 1010 l 655 330 q 590 72 655 157 q 394 -13 525 -13 z "},"Ù":{"ha":788,"x_min":133,"x_max":655,"o":"m 394 -13 q 198 72 263 -13 q 133 330 133 157 l 133 1010 l 234 1010 l 234 323 q 270 132 234 188 q 394 76 307 76 q 518 132 482 76 q 554 323 554 188 l 554 1010 l 655 1010 l 655 330 q 590 72 655 157 q 394 -13 525 -13 m 396 1136 l 192 1389 l 345 1389 l 490 1136 l 396 1136 z "},"Ú":{"ha":788,"x_min":133,"x_max":655,"o":"m 394 -13 q 198 72 263 -13 q 133 330 133 157 l 133 1010 l 234 1010 l 234 323 q 270 132 234 188 q 394 76 307 76 q 518 132 482 76 q 554 323 554 188 l 554 1010 l 655 1010 l 655 330 q 590 72 655 157 q 394 -13 525 -13 m 275 1136 l 419 1389 l 573 1389 l 369 1136 l 275 1136 z "},"Û":{"ha":788,"x_min":133,"x_max":655,"o":"m 394 -13 q 198 72 263 -13 q 133 330 133 157 l 133 1010 l 234 1010 l 234 323 q 270 132 234 188 q 394 76 307 76 q 518 132 482 76 q 554 323 554 188 l 554 1010 l 655 1010 l 655 330 q 590 72 655 157 q 394 -13 525 -13 m 212 1159 l 164 1222 l 357 1407 l 429 1407 l 624 1222 l 574 1158 l 393 1299 l 212 1159 z "},"Ü":{"ha":788,"x_min":133,"x_max":655,"o":"m 394 -13 q 198 72 263 -13 q 133 330 133 157 l 133 1010 l 234 1010 l 234 323 q 270 132 234 188 q 394 76 307 76 q 518 132 482 76 q 554 323 554 188 l 554 1010 l 655 1010 l 655 330 q 590 72 655 157 q 394 -13 525 -13 m 273 1157 q 224 1170 242 1157 q 206 1221 206 1183 l 206 1227 q 224 1280 206 1266 q 273 1294 242 1294 q 322 1280 304 1294 q 340 1227 340 1266 l 340 1221 q 321 1170 340 1183 q 273 1157 303 1157 m 515 1157 q 466 1170 484 1157 q 448 1221 448 1183 l 448 1227 q 466 1280 448 1266 q 515 1294 484 1294 q 563 1280 544 1294 q 582 1227 582 1266 l 582 1221 q 563 1170 582 1183 q 515 1157 544 1157 z "},"Ũ":{"ha":788,"x_min":133,"x_max":655,"o":"m 394 -13 q 198 72 263 -13 q 133 330 133 157 l 133 1010 l 234 1010 l 234 323 q 270 132 234 188 q 394 76 307 76 q 518 132 482 76 q 554 323 554 188 l 554 1010 l 655 1010 l 655 330 q 590 72 655 157 q 394 -13 525 -13 m 476 1149 q 411 1174 436 1149 q 369 1226 386 1198 q 337 1278 352 1254 q 302 1302 322 1302 q 265 1271 278 1302 q 254 1173 253 1241 l 254 1162 l 174 1162 l 174 1181 q 210 1333 174 1271 q 312 1394 245 1394 q 382 1369 356 1394 q 424 1318 408 1345 q 454 1266 441 1290 q 486 1242 467 1242 q 522 1272 509 1242 q 535 1370 535 1302 l 535 1383 l 614 1383 l 614 1364 q 578 1210 614 1270 q 476 1149 543 1149 z "},"Ū":{"ha":788,"x_min":133,"x_max":655,"o":"m 394 -13 q 198 72 263 -13 q 133 330 133 157 l 133 1010 l 234 1010 l 234 323 q 270 132 234 188 q 394 76 307 76 q 518 132 482 76 q 554 323 554 188 l 554 1010 l 655 1010 l 655 330 q 590 72 655 157 q 394 -13 525 -13 m 184 1217 l 184 1308 l 604 1308 l 604 1217 l 184 1217 z "},"Ŭ":{"ha":788,"x_min":133,"x_max":655,"o":"m 394 -13 q 198 72 263 -13 q 133 330 133 157 l 133 1010 l 234 1010 l 234 323 q 270 132 234 188 q 394 76 307 76 q 518 132 482 76 q 554 323 554 188 l 554 1010 l 655 1010 l 655 330 q 590 72 655 157 q 394 -13 525 -13 m 394 1128 q 218 1189 284 1128 q 150 1381 152 1250 l 254 1381 q 290 1252 255 1290 q 394 1213 324 1213 q 498 1252 463 1213 q 534 1381 533 1290 l 638 1381 q 570 1189 636 1250 q 394 1128 504 1128 z "},"Ů":{"ha":788,"x_min":133,"x_max":655,"o":"m 394 -13 q 198 72 263 -13 q 133 330 133 157 l 133 1010 l 234 1010 l 234 323 q 270 132 234 188 q 394 76 307 76 q 518 132 482 76 q 554 323 554 188 l 554 1010 l 655 1010 l 655 330 q 590 72 655 157 q 394 -13 525 -13 m 394 1121 q 273 1165 319 1121 q 227 1301 227 1210 l 227 1341 q 273 1479 227 1433 q 394 1524 319 1524 q 515 1479 470 1524 q 561 1341 561 1433 l 561 1301 q 515 1165 561 1210 q 394 1121 468 1121 m 394 1203 q 459 1225 437 1203 q 481 1301 481 1247 l 481 1341 q 459 1417 481 1393 q 394 1442 437 1442 q 329 1417 351 1442 q 307 1341 307 1393 l 307 1301 q 329 1225 307 1247 q 394 1203 351 1203 z "},"Ű":{"ha":788,"x_min":133,"x_max":668,"o":"m 394 -13 q 198 72 263 -13 q 133 330 133 157 l 133 1010 l 234 1010 l 234 323 q 270 132 234 188 q 394 76 307 76 q 518 132 482 76 q 554 323 554 188 l 554 1010 l 655 1010 l 655 330 q 590 72 655 157 q 394 -13 525 -13 m 463 1136 l 523 1389 l 668 1389 l 537 1136 l 463 1136 m 221 1136 l 280 1389 l 426 1389 l 294 1136 l 221 1136 z "},"Ų":{"ha":788,"x_min":133,"x_max":655,"o":"m 466 -269 q 355 -229 400 -269 q 309 -121 309 -189 q 350 -20 309 -66 q 437 48 390 25 l 465 29 q 414 -33 427 1 q 402 -91 402 -67 q 422 -146 402 -126 q 477 -165 442 -165 q 525 -161 496 -165 q 571 -153 554 -157 l 571 -256 q 520 -265 551 -261 q 466 -269 490 -269 m 394 -13 q 198 72 263 -13 q 133 330 133 157 l 133 1010 l 234 1010 l 234 323 q 270 132 234 188 q 394 76 307 76 q 518 132 482 76 q 554 323 554 188 l 554 1010 l 655 1010 l 655 330 q 590 72 655 157 q 394 -13 525 -13 z "},"V":{"ha":788,"x_min":68,"x_max":720,"o":"m 447 0 l 342 0 l 68 1010 l 178 1010 l 396 164 l 614 1010 l 720 1010 l 447 0 z "},"W":{"ha":788,"x_min":52,"x_max":736,"o":"m 520 0 l 393 630 l 268 0 l 165 0 l 52 1010 l 153 1010 l 230 173 l 342 758 l 451 758 l 563 170 l 641 1010 l 736 1010 l 622 0 l 520 0 z "},"Ŵ":{"ha":788,"x_min":52,"x_max":736,"o":"m 520 0 l 393 630 l 268 0 l 165 0 l 52 1010 l 153 1010 l 230 173 l 342 758 l 451 758 l 563 170 l 641 1010 l 736 1010 l 622 0 l 520 0 m 212 1159 l 164 1222 l 357 1407 l 429 1407 l 624 1222 l 574 1158 l 393 1299 l 212 1159 z "},"Ẁ":{"ha":788,"x_min":52,"x_max":736,"o":"m 520 0 l 393 630 l 268 0 l 165 0 l 52 1010 l 153 1010 l 230 173 l 342 758 l 451 758 l 563 170 l 641 1010 l 736 1010 l 622 0 l 520 0 m 407 1136 l 202 1389 l 355 1389 l 500 1136 l 407 1136 z "},"Ẃ":{"ha":788,"x_min":52,"x_max":736,"o":"m 520 0 l 393 630 l 268 0 l 165 0 l 52 1010 l 153 1010 l 230 173 l 342 758 l 451 758 l 563 170 l 641 1010 l 736 1010 l 622 0 l 520 0 m 285 1136 l 429 1389 l 583 1389 l 379 1136 l 285 1136 z "},"Ẅ":{"ha":788,"x_min":52,"x_max":736,"o":"m 520 0 l 393 630 l 268 0 l 165 0 l 52 1010 l 153 1010 l 230 173 l 342 758 l 451 758 l 563 170 l 641 1010 l 736 1010 l 622 0 l 520 0 m 273 1157 q 224 1170 242 1157 q 206 1221 206 1183 l 206 1227 q 224 1280 206 1266 q 273 1294 242 1294 q 322 1280 304 1294 q 340 1227 340 1266 l 340 1221 q 321 1170 340 1183 q 273 1157 303 1157 m 515 1157 q 466 1170 484 1157 q 448 1221 448 1183 l 448 1227 q 466 1280 448 1266 q 515 1294 484 1294 q 563 1280 544 1294 q 582 1227 582 1266 l 582 1221 q 563 1170 582 1183 q 515 1157 544 1157 z "},"X":{"ha":788,"x_min":47,"x_max":745,"o":"m 624 0 l 395 427 l 165 0 l 47 0 l 342 515 l 72 1010 l 189 1010 l 407 602 l 626 1010 l 745 1010 l 460 515 l 741 0 l 624 0 z "},"Y":{"ha":788,"x_min":40,"x_max":747,"o":"m 444 0 l 343 0 l 343 379 l 40 1010 l 154 1010 l 402 482 l 635 1010 l 747 1010 l 444 379 l 444 0 z "},"Ý":{"ha":788,"x_min":40,"x_max":747,"o":"m 444 0 l 343 0 l 343 379 l 40 1010 l 154 1010 l 402 482 l 635 1010 l 747 1010 l 444 379 l 444 0 m 275 1136 l 419 1389 l 573 1389 l 369 1136 l 275 1136 z "},"Ŷ":{"ha":788,"x_min":40,"x_max":747,"o":"m 444 0 l 343 0 l 343 379 l 40 1010 l 154 1010 l 402 482 l 635 1010 l 747 1010 l 444 379 l 444 0 m 212 1159 l 164 1222 l 357 1407 l 429 1407 l 624 1222 l 574 1158 l 393 1299 l 212 1159 z "},"Ÿ":{"ha":788,"x_min":40,"x_max":747,"o":"m 444 0 l 343 0 l 343 379 l 40 1010 l 154 1010 l 402 482 l 635 1010 l 747 1010 l 444 379 l 444 0 m 273 1157 q 224 1170 242 1157 q 206 1221 206 1183 l 206 1227 q 224 1280 206 1266 q 273 1294 242 1294 q 322 1280 304 1294 q 340 1227 340 1266 l 340 1221 q 321 1170 340 1183 q 273 1157 303 1157 m 515 1157 q 466 1170 484 1157 q 448 1221 448 1183 l 448 1227 q 466 1280 448 1266 q 515 1294 484 1294 q 563 1280 544 1294 q 582 1227 582 1266 l 582 1221 q 563 1170 582 1183 q 515 1157 544 1157 z "},"Ỳ":{"ha":788,"x_min":40,"x_max":747,"o":"m 444 0 l 343 0 l 343 379 l 40 1010 l 154 1010 l 402 482 l 635 1010 l 747 1010 l 444 379 l 444 0 m 396 1136 l 192 1389 l 345 1389 l 490 1136 l 396 1136 z "},"Z":{"ha":788,"x_min":110,"x_max":678,"o":"m 678 0 l 110 0 l 110 91 l 561 919 l 110 919 l 110 1010 l 678 1010 l 678 919 l 229 91 l 678 91 l 678 0 z "},"Ź":{"ha":788,"x_min":110,"x_max":678,"o":"m 678 0 l 110 0 l 110 91 l 561 919 l 110 919 l 110 1010 l 678 1010 l 678 919 l 229 91 l 678 91 l 678 0 m 307 1136 l 451 1389 l 605 1389 l 400 1136 l 307 1136 z "},"Ż":{"ha":788,"x_min":110,"x_max":678,"o":"m 678 0 l 110 0 l 110 91 l 561 919 l 110 919 l 110 1010 l 678 1010 l 678 919 l 229 91 l 678 91 l 678 0 m 394 1157 q 330 1170 355 1157 q 306 1221 306 1183 l 306 1227 q 330 1280 306 1266 q 394 1294 355 1294 q 458 1280 433 1294 q 482 1227 482 1266 l 482 1221 q 458 1170 482 1183 q 394 1157 433 1157 z "},"Ž":{"ha":788,"x_min":110,"x_max":678,"o":"m 678 0 l 110 0 l 110 91 l 561 919 l 110 919 l 110 1010 l 678 1010 l 678 919 l 229 91 l 678 91 l 678 0 m 359 1141 l 164 1326 l 213 1389 l 395 1250 l 576 1389 l 624 1326 l 431 1141 l 359 1141 z "},"Æ":{"ha":788,"x_min":25,"x_max":753,"o":"m 336 932 l 207 388 l 405 388 l 405 932 l 336 932 m 405 308 l 187 308 l 114 0 l 25 0 l 283 1010 l 753 1010 l 753 932 l 496 932 l 496 582 l 742 582 l 742 504 l 496 504 l 496 78 l 753 78 l 753 0 l 405 0 l 405 308 z "},"Ǽ":{"ha":788,"x_min":25,"x_max":753,"o":"m 336 932 l 207 388 l 405 388 l 405 932 l 336 932 m 405 308 l 187 308 l 114 0 l 25 0 l 283 1010 l 753 1010 l 753 932 l 496 932 l 496 582 l 742 582 l 742 504 l 496 504 l 496 78 l 753 78 l 753 0 l 405 0 l 405 308 m 413 1136 l 557 1389 l 711 1389 l 506 1136 l 413 1136 z "},"Ð":{"ha":788,"x_min":28,"x_max":678,"o":"m 133 0 l 133 504 l 28 504 l 28 607 l 133 607 l 133 1010 l 361 1010 q 593 915 508 1010 q 678 663 678 821 l 678 342 q 593 93 678 187 q 361 0 508 0 l 133 0 m 234 91 l 362 91 q 521 158 467 91 q 576 336 576 225 l 576 669 q 521 850 576 782 q 362 919 467 919 l 234 919 l 234 607 l 394 607 l 394 504 l 234 504 l 234 91 z "},"Ø":{"ha":788,"x_min":110,"x_max":678,"o":"m 234 159 l 477 918 q 439 928 461 924 q 394 932 418 932 q 254 874 295 932 q 212 679 212 816 l 212 326 q 218 232 212 273 q 234 159 223 191 m 394 78 q 534 135 492 78 q 576 326 576 192 l 576 687 q 568 801 576 753 q 544 883 561 850 l 293 101 q 338 84 313 90 q 394 78 364 78 m 394 -13 q 328 -7 359 -13 q 271 10 298 -1 l 223 -126 l 120 -126 l 188 71 q 130 180 150 114 q 110 333 110 246 l 110 672 q 184 932 110 842 q 395 1023 258 1023 q 448 1019 423 1023 q 497 1006 473 1015 l 542 1136 l 645 1136 l 583 956 q 654 841 630 913 q 678 672 678 769 l 678 333 q 604 76 678 165 q 394 -13 530 -13 z "},"Ǿ":{"ha":788,"x_min":110,"x_max":678,"o":"m 234 159 l 477 918 q 439 928 461 924 q 394 932 418 932 q 254 874 295 932 q 212 679 212 816 l 212 326 q 218 232 212 273 q 234 159 223 191 m 394 78 q 534 135 492 78 q 576 326 576 192 l 576 687 q 568 801 576 753 q 544 883 561 850 l 293 101 q 338 84 313 90 q 394 78 364 78 m 394 -13 q 328 -7 359 -13 q 271 10 298 -1 l 223 -126 l 120 -126 l 188 71 q 130 180 150 114 q 110 333 110 246 l 110 672 q 184 932 110 842 q 395 1023 258 1023 q 448 1019 423 1023 q 497 1006 473 1015 l 542 1136 l 645 1136 l 583 956 q 654 841 630 913 q 678 672 678 769 l 678 333 q 604 76 678 165 q 394 -13 530 -13 m 318 1136 l 462 1389 l 616 1389 l 412 1136 l 318 1136 z "},"Þ":{"ha":788,"x_min":133,"x_max":688,"o":"m 133 0 l 133 1010 l 234 1010 l 234 842 l 428 842 q 622 774 556 842 q 688 577 688 706 l 688 480 q 621 271 688 342 q 426 199 554 199 l 234 199 l 234 0 l 133 0 m 234 289 l 427 289 q 551 331 514 289 q 587 471 587 372 l 587 583 q 551 712 587 674 q 427 750 514 750 l 234 750 l 234 289 z "},"Đ":{"ha":788,"x_min":28,"x_max":678,"o":"m 133 0 l 133 504 l 28 504 l 28 607 l 133 607 l 133 1010 l 361 1010 q 593 915 508 1010 q 678 663 678 821 l 678 342 q 593 93 678 187 q 361 0 508 0 l 133 0 m 234 91 l 362 91 q 521 158 467 91 q 576 336 576 225 l 576 669 q 521 850 576 782 q 362 919 467 919 l 234 919 l 234 607 l 394 607 l 394 504 l 234 504 l 234 91 z "},"Ħ":{"ha":788,"x_min":24,"x_max":764,"o":"m 234 547 l 554 547 l 554 711 l 234 711 l 234 547 m 234 455 l 234 0 l 131 0 l 131 711 l 24 711 l 24 813 l 131 813 l 131 1010 l 234 1010 l 234 813 l 554 813 l 554 1010 l 657 1010 l 657 813 l 764 813 l 764 711 l 657 711 l 657 0 l 554 0 l 554 455 l 234 455 z "},"Ĳ":{"ha":788,"x_min":90,"x_max":701,"o":"m 192 0 l 90 0 l 90 1010 l 192 1010 l 192 0 m 487 -13 q 338 62 389 -13 q 279 321 287 136 l 381 335 q 411 137 390 188 q 489 86 432 86 q 572 146 547 86 q 597 309 597 207 l 597 914 l 394 914 l 394 1010 l 701 1010 l 701 314 q 649 74 701 162 q 487 -13 597 -13 z "},"Ŀ":{"ha":788,"x_min":186,"x_max":736,"o":"m 186 0 l 186 1010 l 285 1010 l 285 91 l 655 91 l 655 0 l 186 0 m 648 529 q 584 542 609 529 q 559 593 559 556 l 559 600 q 584 653 559 639 q 648 667 609 667 q 711 653 687 667 q 736 600 736 639 l 736 593 q 711 542 736 556 q 648 529 687 529 z "},"Ł":{"ha":788,"x_min":78,"x_max":655,"o":"m 186 0 l 186 466 l 78 428 l 78 514 l 186 552 l 186 1010 l 285 1010 l 285 588 l 551 683 l 551 597 l 285 503 l 285 91 l 655 91 l 655 0 l 186 0 z "},"Ŋ":{"ha":788,"x_min":133,"x_max":655,"o":"m 412 -263 q 333 -251 374 -263 q 245 -218 292 -239 l 266 -107 q 343 -141 309 -130 q 409 -153 378 -153 q 514 -104 473 -153 q 554 61 554 -54 l 554 759 q 520 883 554 842 q 428 923 486 923 q 325 886 370 923 q 234 785 280 850 l 234 0 l 133 0 l 133 1010 l 234 1010 l 234 889 l 265 889 q 341 986 288 949 q 460 1023 394 1023 q 603 955 551 1023 q 655 778 655 888 l 655 45 q 589 -183 655 -104 q 412 -263 523 -263 z "},"Œ":{"ha":788,"x_min":35,"x_max":766,"o":"m 309 0 q 108 91 181 0 q 35 333 35 182 l 35 668 q 108 917 35 823 q 308 1010 181 1010 l 764 1010 l 764 932 l 496 932 l 496 598 l 766 598 l 766 519 l 496 519 l 496 78 l 764 78 l 764 0 l 309 0 m 309 76 l 405 76 l 405 934 l 309 934 q 172 863 218 934 q 126 673 126 792 l 126 330 q 172 144 126 212 q 309 76 218 76 z "},"Ŧ":{"ha":788,"x_min":83,"x_max":706,"o":"m 343 0 l 343 399 l 130 399 l 130 501 l 343 501 l 343 919 l 83 919 l 83 1010 l 706 1010 l 706 919 l 444 919 l 444 501 l 658 501 l 658 399 l 444 399 l 444 0 l 343 0 z "},"Α":{"ha":788,"x_min":68,"x_max":720,"o":"m 513 400 l 393 879 l 273 400 l 513 400 m 612 0 l 535 308 l 250 308 l 173 0 l 68 0 l 342 1010 l 447 1010 l 720 0 l 612 0 z "},"Ά":{"ha":788,"x_min":56,"x_max":720,"o":"m 513 400 l 393 879 l 273 400 l 513 400 m 612 0 l 535 308 l 250 308 l 173 0 l 68 0 l 342 1010 l 447 1010 l 720 0 l 612 0 m 56 884 l 136 1136 l 280 1136 l 139 884 l 56 884 z "},"Β":{"ha":788,"x_min":133,"x_max":682,"o":"m 133 0 l 133 1010 l 391 1010 q 585 951 521 1010 q 648 773 648 893 l 648 712 q 614 609 648 653 q 524 553 581 564 l 524 516 q 639 453 596 509 q 682 309 682 396 l 682 255 q 612 63 682 126 q 399 0 542 0 l 133 0 m 234 573 l 403 573 q 514 610 480 573 q 548 730 548 646 l 548 758 q 514 878 548 841 q 403 914 480 914 l 234 914 l 234 573 m 234 96 l 424 96 q 544 137 506 96 q 581 269 581 178 l 581 303 q 544 436 581 395 q 424 477 506 477 l 234 477 l 234 96 z "},"Γ":{"ha":788,"x_min":130,"x_max":677,"o":"m 130 0 l 130 1010 l 677 1010 l 677 919 l 231 919 l 231 0 l 130 0 z "},"Δ":{"ha":788,"x_min":67,"x_max":721,"o":"m 67 0 l 67 91 l 337 1010 l 439 1010 l 721 91 l 721 0 l 67 0 m 622 91 l 393 881 l 162 91 l 622 91 z "},"Ε":{"ha":788,"x_min":133,"x_max":678,"o":"m 133 0 l 133 1010 l 678 1010 l 678 919 l 234 919 l 234 598 l 625 598 l 625 506 l 234 506 l 234 91 l 678 91 l 678 0 l 133 0 z "},"Έ":{"ha":788,"x_min":-91,"x_max":678,"o":"m 133 0 l 133 1010 l 678 1010 l 678 919 l 234 919 l 234 598 l 625 598 l 625 506 l 234 506 l 234 91 l 678 91 l 678 0 l 133 0 m -91 884 l -10 1136 l 134 1136 l -8 884 l -91 884 z "},"Ζ":{"ha":788,"x_min":110,"x_max":678,"o":"m 678 0 l 110 0 l 110 91 l 561 919 l 110 919 l 110 1010 l 678 1010 l 678 919 l 229 91 l 678 91 l 678 0 z "},"Η":{"ha":788,"x_min":133,"x_max":655,"o":"m 133 0 l 133 1010 l 234 1010 l 234 592 l 554 592 l 554 1010 l 655 1010 l 655 0 l 554 0 l 554 500 l 234 500 l 234 0 l 133 0 z "},"Ή":{"ha":788,"x_min":-101,"x_max":655,"o":"m 133 0 l 133 1010 l 234 1010 l 234 592 l 554 592 l 554 1010 l 655 1010 l 655 0 l 554 0 l 554 500 l 234 500 l 234 0 l 133 0 m -101 884 l -20 1136 l 124 1136 l -18 884 l -101 884 z "},"Θ":{"ha":788,"x_min":96,"x_max":692,"o":"m 394 -13 q 172 76 247 -13 q 96 333 96 164 l 96 672 q 172 934 96 845 q 395 1023 249 1023 q 616 934 540 1023 q 692 672 692 845 l 692 333 q 616 76 692 164 q 394 -13 540 -13 m 394 78 q 545 136 500 78 q 591 326 591 193 l 591 679 q 545 874 591 816 q 394 932 500 932 q 242 874 287 932 q 197 679 197 816 l 197 326 q 242 136 197 193 q 394 78 287 78 m 294 462 l 294 561 l 500 561 l 500 462 l 294 462 z "},"Ι":{"ha":788,"x_min":133,"x_max":655,"o":"m 133 0 l 133 91 l 343 91 l 343 919 l 133 919 l 133 1010 l 655 1010 l 655 919 l 444 919 l 444 91 l 655 91 l 655 0 l 133 0 z "},"Ί":{"ha":788,"x_min":-101,"x_max":655,"o":"m 133 0 l 133 91 l 343 91 l 343 919 l 133 919 l 133 1010 l 655 1010 l 655 919 l 444 919 l 444 91 l 655 91 l 655 0 l 133 0 m -101 884 l -20 1136 l 124 1136 l -18 884 l -101 884 z "},"Ϊ":{"ha":788,"x_min":133,"x_max":655,"o":"m 133 0 l 133 91 l 343 91 l 343 919 l 133 919 l 133 1010 l 655 1010 l 655 919 l 444 919 l 444 91 l 655 91 l 655 0 l 133 0 m 273 1157 q 224 1170 242 1157 q 206 1221 206 1183 l 206 1227 q 224 1280 206 1266 q 273 1294 242 1294 q 322 1280 304 1294 q 340 1227 340 1266 l 340 1221 q 321 1170 340 1183 q 273 1157 303 1157 m 515 1157 q 466 1170 484 1157 q 448 1221 448 1183 l 448 1227 q 466 1280 448 1266 q 515 1294 484 1294 q 563 1280 544 1294 q 582 1227 582 1266 l 582 1221 q 563 1170 582 1183 q 515 1157 544 1157 z "},"Κ":{"ha":788,"x_min":133,"x_max":718,"o":"m 234 496 l 234 0 l 133 0 l 133 1010 l 234 1010 l 234 588 l 269 588 l 600 1010 l 718 1010 l 345 547 l 716 0 l 592 0 l 273 496 l 234 496 z "},"Λ":{"ha":788,"x_min":68,"x_max":720,"o":"m 612 0 l 393 879 l 173 0 l 68 0 l 342 1010 l 447 1010 l 720 0 l 612 0 z "},"Μ":{"ha":788,"x_min":95,"x_max":693,"o":"m 343 235 l 187 856 l 186 0 l 95 0 l 95 1010 l 234 1010 l 398 374 l 559 1010 l 693 1010 l 693 0 l 602 0 l 601 848 l 444 235 l 343 235 z "},"Ν":{"ha":788,"x_min":133,"x_max":655,"o":"m 508 0 l 223 900 l 223 0 l 133 0 l 133 1010 l 273 1010 l 564 111 l 564 1010 l 655 1010 l 655 0 l 508 0 z "},"Ξ":{"ha":788,"x_min":110,"x_max":678,"o":"m 110 919 l 110 1010 l 678 1010 l 678 919 l 110 919 m 138 506 l 138 598 l 652 598 l 652 506 l 138 506 m 110 0 l 110 91 l 678 91 l 678 0 l 110 0 z "},"Ο":{"ha":788,"x_min":110,"x_max":678,"o":"m 394 -13 q 183 78 256 -13 q 110 341 110 168 l 110 664 q 183 932 110 841 q 395 1023 256 1023 q 605 932 533 1023 q 678 664 678 841 l 678 341 q 605 78 678 168 q 394 -13 533 -13 m 394 78 q 534 137 492 78 q 576 333 576 196 l 576 672 q 534 872 576 812 q 394 932 492 932 q 254 872 295 932 q 212 672 212 812 l 212 333 q 254 137 212 196 q 394 78 295 78 z "},"Ό":{"ha":788,"x_min":-13,"x_max":683,"o":"m 399 -13 q 188 78 261 -13 q 115 341 115 168 l 115 664 q 188 932 115 841 q 400 1023 261 1023 q 610 932 538 1023 q 683 664 683 841 l 683 341 q 610 78 683 168 q 399 -13 538 -13 m 399 78 q 539 137 497 78 q 581 333 581 196 l 581 672 q 539 872 581 812 q 399 932 497 932 q 259 872 301 932 q 217 672 217 812 l 217 333 q 259 137 217 196 q 399 78 301 78 m -13 884 l 68 1136 l 212 1136 l 71 884 l -13 884 z "},"Π":{"ha":788,"x_min":133,"x_max":655,"o":"m 133 0 l 133 1010 l 655 1010 l 655 0 l 554 0 l 554 919 l 234 919 l 234 0 l 133 0 z "},"Ρ":{"ha":788,"x_min":133,"x_max":688,"o":"m 133 0 l 133 1010 l 428 1010 q 626 946 564 1010 q 688 745 688 883 l 688 636 q 625 432 688 497 q 426 367 562 367 l 234 367 l 234 0 l 133 0 m 234 456 l 424 456 q 549 497 511 456 q 587 631 587 538 l 587 746 q 549 878 587 837 q 424 919 511 919 l 234 919 l 234 456 z "},"Σ":{"ha":788,"x_min":100,"x_max":679,"o":"m 679 0 l 100 0 l 100 91 l 475 520 l 100 919 l 100 1010 l 679 1010 l 679 919 l 235 919 l 552 567 l 552 484 l 222 91 l 679 91 l 679 0 z "},"Τ":{"ha":788,"x_min":83,"x_max":706,"o":"m 343 0 l 343 919 l 83 919 l 83 1010 l 706 1010 l 706 919 l 444 919 l 444 0 l 343 0 z "},"Υ":{"ha":788,"x_min":40,"x_max":747,"o":"m 444 0 l 343 0 l 343 379 l 40 1010 l 154 1010 l 402 482 l 635 1010 l 747 1010 l 444 379 l 444 0 z "},"Ύ":{"ha":788,"x_min":-134,"x_max":747,"o":"m 444 0 l 343 0 l 343 379 l 40 1010 l 154 1010 l 402 482 l 635 1010 l 747 1010 l 444 379 l 444 0 m -134 884 l -53 1136 l 91 1136 l -51 884 l -134 884 z "},"Ϋ":{"ha":788,"x_min":40,"x_max":747,"o":"m 444 0 l 343 0 l 343 379 l 40 1010 l 154 1010 l 402 482 l 635 1010 l 747 1010 l 444 379 l 444 0 m 273 1157 q 224 1170 242 1157 q 206 1221 206 1183 l 206 1227 q 224 1280 206 1266 q 273 1294 242 1294 q 322 1280 304 1294 q 340 1227 340 1266 l 340 1221 q 321 1170 340 1183 q 273 1157 303 1157 m 515 1157 q 466 1170 484 1157 q 448 1221 448 1183 l 448 1227 q 466 1280 448 1266 q 515 1294 484 1294 q 563 1280 544 1294 q 582 1227 582 1266 l 582 1221 q 563 1170 582 1183 q 515 1157 544 1157 z "},"Φ":{"ha":788,"x_min":80,"x_max":708,"o":"m 479 114 l 446 114 l 446 -13 l 342 -13 l 342 114 l 312 114 q 137 198 194 114 q 80 437 80 283 l 80 568 q 137 811 80 726 q 312 896 194 896 l 342 896 l 342 1023 l 446 1023 l 446 896 l 479 896 q 652 811 596 896 q 708 568 708 726 l 708 437 q 652 198 708 283 q 479 114 596 114 m 477 801 l 441 801 l 441 210 l 477 210 q 576 263 545 210 q 606 437 606 316 l 606 568 q 576 747 606 693 q 477 801 545 801 m 312 210 l 348 210 l 348 801 l 312 801 q 213 747 244 801 q 182 568 182 693 l 182 437 q 213 263 182 316 q 312 210 244 210 z "},"Χ":{"ha":788,"x_min":47,"x_max":745,"o":"m 624 0 l 395 427 l 165 0 l 47 0 l 342 515 l 72 1010 l 189 1010 l 407 602 l 626 1010 l 745 1010 l 460 515 l 741 0 l 624 0 z "},"Ψ":{"ha":788,"x_min":111,"x_max":677,"o":"m 446 0 l 342 0 l 342 246 q 169 341 227 260 q 111 557 111 422 l 111 1010 l 208 1010 l 208 549 q 239 398 208 448 q 342 338 270 348 l 342 1010 l 446 1010 l 446 338 q 549 398 518 347 q 580 549 580 448 l 580 1010 l 677 1010 l 677 557 q 619 341 677 422 q 446 246 562 260 l 446 0 z "},"Ω":{"ha":788,"x_min":100,"x_max":688,"o":"m 340 0 l 100 0 l 100 102 l 237 102 l 237 226 q 133 323 167 254 q 100 499 100 393 l 100 672 q 175 934 100 845 q 394 1023 250 1023 q 614 934 539 1023 q 688 672 688 845 l 688 499 q 655 323 688 393 q 551 226 621 254 l 551 102 l 688 102 l 688 0 l 448 0 l 448 290 q 556 354 527 306 q 586 499 586 403 l 586 670 q 543 873 586 813 q 394 933 500 933 q 245 873 288 933 q 202 670 202 813 l 202 499 q 232 354 202 403 q 340 290 261 306 l 340 0 z "},"Ώ":{"ha":788,"x_min":-39,"x_max":688,"o":"m 340 0 l 100 0 l 100 102 l 237 102 l 237 226 q 133 323 167 254 q 100 499 100 393 l 100 672 q 175 934 100 845 q 394 1023 250 1023 q 614 934 539 1023 q 688 672 688 845 l 688 499 q 655 323 688 393 q 551 226 621 254 l 551 102 l 688 102 l 688 0 l 448 0 l 448 290 q 556 354 527 306 q 586 499 586 403 l 586 670 q 543 873 586 813 q 394 933 500 933 q 245 873 288 933 q 202 670 202 813 l 202 499 q 232 354 202 403 q 340 290 261 306 l 340 0 m -39 884 l 42 1136 l 186 1136 l 44 884 l -39 884 z "},"Ω":{"ha":788,"x_min":100,"x_max":688,"o":"m 340 0 l 100 0 l 100 102 l 237 102 l 237 226 q 133 323 167 254 q 100 499 100 393 l 100 672 q 175 934 100 845 q 394 1023 250 1023 q 614 934 539 1023 q 688 672 688 845 l 688 499 q 655 323 688 393 q 551 226 621 254 l 551 102 l 688 102 l 688 0 l 448 0 l 448 290 q 556 354 527 306 q 586 499 586 403 l 586 670 q 543 873 586 813 q 394 933 500 933 q 245 873 288 933 q 202 670 202 813 l 202 499 q 232 354 202 403 q 340 290 261 306 l 340 0 z "},"Ђ":{"ha":788,"x_min":57,"x_max":698,"o":"m 218 0 l 218 919 l 57 919 l 57 1010 l 586 1010 l 586 919 l 318 919 l 318 657 l 458 657 q 638 592 578 657 q 698 402 698 528 l 698 256 q 638 64 698 129 q 458 0 578 0 l 458 88 q 563 128 528 88 q 597 259 597 167 l 597 399 q 563 529 597 490 q 458 568 528 568 l 318 568 l 318 0 l 218 0 z "},"Є":{"ha":788,"x_min":110,"x_max":698,"o":"m 698 317 q 617 71 691 154 q 405 -13 543 -13 q 184 75 259 -13 q 110 336 110 163 l 110 669 q 184 933 110 843 q 405 1023 259 1023 q 617 938 543 1023 q 698 688 691 854 l 598 676 q 545 872 588 813 q 407 932 501 932 q 256 873 301 932 q 212 678 212 814 l 212 598 l 455 598 l 455 506 l 212 506 l 212 327 q 256 136 212 193 q 407 78 301 78 q 545 136 501 78 q 598 330 590 194 l 698 317 z "},"Ѕ":{"ha":788,"x_min":88,"x_max":705,"o":"m 408 -10 q 233 24 317 -10 q 88 126 149 58 l 144 203 q 268 112 198 141 q 418 82 338 82 q 554 130 503 82 q 605 263 605 178 q 561 376 605 335 q 381 472 518 418 q 167 594 226 532 q 107 761 107 657 q 182 948 107 884 q 376 1013 258 1013 q 540 978 460 1013 q 676 875 621 943 l 624 794 q 504 889 571 856 q 370 922 437 922 q 253 883 297 922 q 208 768 208 843 q 254 658 208 699 q 444 562 301 617 q 648 448 592 508 q 705 284 705 388 q 619 68 705 145 q 408 -10 534 -10 z "},"І":{"ha":788,"x_min":133,"x_max":655,"o":"m 133 0 l 133 91 l 343 91 l 343 919 l 133 919 l 133 1010 l 655 1010 l 655 919 l 444 919 l 444 91 l 655 91 l 655 0 l 133 0 z "},"Ї":{"ha":788,"x_min":133,"x_max":655,"o":"m 133 0 l 133 91 l 343 91 l 343 919 l 133 919 l 133 1010 l 655 1010 l 655 919 l 444 919 l 444 91 l 655 91 l 655 0 l 133 0 m 273 1157 q 224 1170 242 1157 q 206 1221 206 1183 l 206 1227 q 224 1280 206 1266 q 273 1294 242 1294 q 322 1280 304 1294 q 340 1227 340 1266 l 340 1221 q 321 1170 340 1183 q 273 1157 303 1157 m 515 1157 q 466 1170 484 1157 q 448 1221 448 1183 l 448 1227 q 466 1280 448 1266 q 515 1294 484 1294 q 563 1280 544 1294 q 582 1227 582 1266 l 582 1221 q 563 1170 582 1183 q 515 1157 544 1157 z "},"Ј":{"ha":788,"x_min":90,"x_max":657,"o":"m 374 -13 q 164 64 232 -13 q 90 313 96 141 l 191 327 q 236 129 199 181 q 375 78 273 78 q 511 136 466 78 q 556 307 556 193 l 556 919 l 346 919 l 346 1010 l 657 1010 l 657 309 q 583 69 657 152 q 374 -13 509 -13 z "},"Љ":{"ha":788,"x_min":5,"x_max":699,"o":"m 208 218 q 169 47 206 102 q 71 -9 133 -9 q 38 -5 54 -9 q 5 5 21 -1 l 25 102 q 45 94 35 97 q 63 90 54 91 q 100 114 87 87 q 115 210 114 141 l 128 1010 l 441 1010 l 441 643 l 497 643 q 649 573 598 643 q 699 364 699 504 l 699 274 q 649 68 699 136 q 499 0 598 0 l 346 0 l 346 910 l 218 910 l 208 218 m 441 100 l 497 100 q 576 140 549 100 q 604 273 604 179 l 604 370 q 576 505 604 465 q 497 545 549 545 l 441 545 l 441 100 z "},"Њ":{"ha":788,"x_min":90,"x_max":699,"o":"m 441 100 l 499 100 q 577 140 551 100 q 604 273 604 179 l 604 370 q 577 505 604 465 q 499 545 551 545 l 441 545 l 441 100 m 184 500 l 184 0 l 90 0 l 90 1010 l 184 1010 l 184 592 l 346 592 l 346 1010 l 441 1010 l 441 643 l 499 643 q 649 573 598 643 q 699 364 699 504 l 699 274 q 650 68 699 136 q 500 0 600 0 l 346 0 l 346 500 l 184 500 z "},"Ћ":{"ha":788,"x_min":45,"x_max":698,"o":"m 307 0 l 207 0 l 207 919 l 45 919 l 45 1010 l 576 1010 l 576 919 l 307 919 l 307 615 l 456 615 q 638 549 577 615 q 698 350 698 482 l 698 0 l 597 0 l 597 351 q 564 484 597 442 q 458 525 532 525 l 307 525 l 307 0 z "},"Џ":{"ha":788,"x_min":133,"x_max":655,"o":"m 343 -189 l 343 0 l 133 0 l 133 1010 l 234 1010 l 234 91 l 554 91 l 554 1010 l 655 1010 l 655 0 l 444 0 l 444 -189 l 343 -189 z "},"А":{"ha":788,"x_min":68,"x_max":720,"o":"m 513 400 l 393 879 l 273 400 l 513 400 m 612 0 l 535 308 l 250 308 l 173 0 l 68 0 l 342 1010 l 447 1010 l 720 0 l 612 0 z "},"Б":{"ha":788,"x_min":133,"x_max":669,"o":"m 133 0 l 133 1010 l 630 1010 l 630 919 l 234 919 l 234 582 l 429 582 q 607 520 545 582 q 669 343 669 458 l 669 258 q 607 67 669 134 q 431 0 545 0 l 133 0 m 234 91 l 409 91 q 533 131 496 91 q 569 264 569 172 l 569 324 q 533 455 569 415 q 409 494 496 494 l 234 494 l 234 91 z "},"В":{"ha":788,"x_min":133,"x_max":682,"o":"m 133 0 l 133 1010 l 391 1010 q 585 951 521 1010 q 648 773 648 893 l 648 712 q 614 609 648 653 q 524 553 581 564 l 524 516 q 639 453 596 509 q 682 309 682 396 l 682 255 q 612 63 682 126 q 399 0 542 0 l 133 0 m 234 573 l 403 573 q 514 610 480 573 q 548 730 548 646 l 548 758 q 514 878 548 841 q 403 914 480 914 l 234 914 l 234 573 m 234 96 l 424 96 q 544 137 506 96 q 581 269 581 178 l 581 303 q 544 436 581 395 q 424 477 506 477 l 234 477 l 234 96 z "},"Г":{"ha":788,"x_min":130,"x_max":677,"o":"m 130 0 l 130 1010 l 677 1010 l 677 919 l 231 919 l 231 0 l 130 0 z "},"Ѓ":{"ha":788,"x_min":130,"x_max":677,"o":"m 130 0 l 130 1010 l 677 1010 l 677 919 l 231 919 l 231 0 l 130 0 m 323 1136 l 467 1389 l 621 1389 l 417 1136 l 323 1136 z "},"Д":{"ha":788,"x_min":37,"x_max":742,"o":"m 215 125 l 215 91 l 534 91 l 534 919 l 275 919 l 271 383 q 261 229 270 288 q 215 125 251 169 m 139 0 l 139 -189 l 37 -189 l 37 91 l 98 91 q 155 201 136 128 q 174 390 173 274 l 177 1010 l 635 1010 l 635 91 l 742 91 l 742 -189 l 640 -189 l 640 0 l 139 0 z "},"Е":{"ha":788,"x_min":133,"x_max":678,"o":"m 133 0 l 133 1010 l 678 1010 l 678 919 l 234 919 l 234 598 l 625 598 l 625 506 l 234 506 l 234 91 l 678 91 l 678 0 l 133 0 z "},"Ѐ":{"ha":788,"x_min":133,"x_max":678,"o":"m 133 0 l 133 1010 l 678 1010 l 678 919 l 234 919 l 234 598 l 625 598 l 625 506 l 234 506 l 234 91 l 678 91 l 678 0 l 133 0 m 431 1136 l 226 1389 l 379 1389 l 524 1136 l 431 1136 z "},"Ё":{"ha":788,"x_min":133,"x_max":678,"o":"m 133 0 l 133 1010 l 678 1010 l 678 919 l 234 919 l 234 598 l 625 598 l 625 506 l 234 506 l 234 91 l 678 91 l 678 0 l 133 0 m 306 1157 q 257 1170 275 1157 q 239 1221 239 1183 l 239 1227 q 257 1280 239 1266 q 306 1294 275 1294 q 355 1280 337 1294 q 372 1227 372 1266 l 372 1221 q 354 1170 372 1183 q 306 1157 336 1157 m 548 1157 q 499 1170 516 1157 q 481 1221 481 1183 l 481 1227 q 499 1280 481 1266 q 548 1294 516 1294 q 596 1280 577 1294 q 615 1227 615 1266 l 615 1221 q 596 1170 615 1183 q 548 1157 577 1157 z "},"Ж":{"ha":788,"x_min":28,"x_max":760,"o":"m 304 500 l 131 0 l 28 0 l 232 540 l 32 1010 l 129 1010 l 304 583 l 348 583 l 348 1010 l 442 1010 l 442 583 l 486 583 l 660 1010 l 759 1010 l 558 544 l 760 0 l 658 0 l 485 500 l 442 500 l 442 0 l 348 0 l 348 500 l 304 500 z "},"З":{"ha":788,"x_min":100,"x_max":678,"o":"m 383 -13 q 176 55 244 -13 q 100 269 109 122 l 202 282 q 251 122 211 168 q 383 76 290 76 q 532 122 487 76 q 576 275 576 168 l 576 302 q 539 453 576 413 q 396 494 501 494 l 289 494 l 289 586 l 396 586 q 521 618 487 586 q 556 736 556 650 l 556 771 q 515 896 556 859 q 383 934 475 934 q 266 893 302 934 q 222 746 231 852 l 121 759 q 193 960 129 898 q 391 1023 258 1023 q 586 957 515 1023 q 657 764 657 891 l 657 722 q 612 607 657 649 q 491 559 568 564 l 491 523 q 631 455 585 514 q 678 311 678 396 l 678 277 q 607 62 678 136 q 383 -13 537 -13 z "},"И":{"ha":788,"x_min":133,"x_max":655,"o":"m 564 0 l 564 900 l 280 0 l 133 0 l 133 1010 l 223 1010 l 223 111 l 515 1010 l 655 1010 l 655 0 l 564 0 z "},"Ѝ":{"ha":788,"x_min":133,"x_max":655,"o":"m 564 0 l 564 900 l 280 0 l 133 0 l 133 1010 l 223 1010 l 223 111 l 515 1010 l 655 1010 l 655 0 l 564 0 m 386 1136 l 182 1389 l 335 1389 l 480 1136 l 386 1136 z "},"Й":{"ha":788,"x_min":133,"x_max":655,"o":"m 564 0 l 564 900 l 280 0 l 133 0 l 133 1010 l 223 1010 l 223 111 l 515 1010 l 655 1010 l 655 0 l 564 0 m 404 1128 q 249 1181 314 1128 q 183 1369 184 1234 l 285 1381 q 312 1252 287 1290 q 404 1213 337 1213 q 496 1252 471 1213 q 523 1381 521 1290 l 625 1369 q 559 1181 624 1234 q 404 1128 494 1128 z "},"К":{"ha":788,"x_min":133,"x_max":718,"o":"m 234 496 l 234 0 l 133 0 l 133 1010 l 234 1010 l 234 588 l 269 588 l 600 1010 l 718 1010 l 345 547 l 716 0 l 592 0 l 273 496 l 234 496 z "},"Ќ":{"ha":788,"x_min":133,"x_max":718,"o":"m 234 496 l 234 0 l 133 0 l 133 1010 l 234 1010 l 234 588 l 269 588 l 600 1010 l 718 1010 l 345 547 l 716 0 l 592 0 l 273 496 l 234 496 m 347 1136 l 491 1389 l 645 1389 l 441 1136 l 347 1136 z "},"Л":{"ha":788,"x_min":21,"x_max":655,"o":"m 554 0 l 554 919 l 295 919 l 293 297 q 243 65 292 141 q 107 -11 194 -11 q 61 -8 83 -11 q 21 3 39 -4 l 40 91 q 71 80 57 83 q 100 77 85 77 q 172 134 150 77 q 194 313 194 192 l 198 1010 l 655 1010 l 655 0 l 554 0 z "},"М":{"ha":788,"x_min":95,"x_max":693,"o":"m 343 235 l 187 856 l 186 0 l 95 0 l 95 1010 l 234 1010 l 398 374 l 559 1010 l 693 1010 l 693 0 l 602 0 l 601 848 l 444 235 l 343 235 z "},"Н":{"ha":788,"x_min":133,"x_max":655,"o":"m 133 0 l 133 1010 l 234 1010 l 234 592 l 554 592 l 554 1010 l 655 1010 l 655 0 l 554 0 l 554 500 l 234 500 l 234 0 l 133 0 z "},"О":{"ha":788,"x_min":110,"x_max":678,"o":"m 394 -13 q 183 78 256 -13 q 110 341 110 168 l 110 664 q 183 932 110 841 q 395 1023 256 1023 q 605 932 533 1023 q 678 664 678 841 l 678 341 q 605 78 678 168 q 394 -13 533 -13 m 394 78 q 534 137 492 78 q 576 333 576 196 l 576 672 q 534 872 576 812 q 394 932 492 932 q 254 872 295 932 q 212 672 212 812 l 212 333 q 254 137 212 196 q 394 78 295 78 z "},"П":{"ha":788,"x_min":133,"x_max":655,"o":"m 133 0 l 133 1010 l 655 1010 l 655 0 l 554 0 l 554 919 l 234 919 l 234 0 l 133 0 z "},"Р":{"ha":788,"x_min":133,"x_max":688,"o":"m 133 0 l 133 1010 l 428 1010 q 626 946 564 1010 q 688 745 688 883 l 688 636 q 625 432 688 497 q 426 367 562 367 l 234 367 l 234 0 l 133 0 m 234 456 l 424 456 q 549 497 511 456 q 587 631 587 538 l 587 746 q 549 878 587 837 q 424 919 511 919 l 234 919 l 234 456 z "},"С":{"ha":788,"x_min":110,"x_max":698,"o":"m 405 -13 q 184 75 259 -13 q 110 336 110 163 l 110 669 q 184 934 110 845 q 405 1023 259 1023 q 619 941 548 1023 q 698 688 689 860 l 598 676 q 546 875 588 818 q 405 932 504 932 q 256 874 299 932 q 212 678 212 816 l 212 327 q 258 139 212 199 q 405 78 304 78 q 545 133 504 78 q 598 330 587 188 l 698 317 q 619 68 689 148 q 405 -13 548 -13 z "},"Т":{"ha":788,"x_min":83,"x_max":706,"o":"m 343 0 l 343 919 l 83 919 l 83 1010 l 706 1010 l 706 919 l 444 919 l 444 0 l 343 0 z "},"У":{"ha":788,"x_min":72,"x_max":715,"o":"m 226 1 q 185 4 206 1 q 143 11 164 6 l 160 102 q 201 94 183 97 q 235 91 220 91 q 314 126 288 91 q 364 231 341 162 l 366 235 l 331 235 l 72 1010 l 174 1010 l 394 311 l 619 1010 l 715 1010 l 439 192 q 345 40 400 80 q 226 1 290 1 z "},"Ў":{"ha":788,"x_min":72,"x_max":715,"o":"m 226 1 q 185 4 206 1 q 143 11 164 6 l 160 102 q 201 94 183 97 q 235 91 220 91 q 314 126 288 91 q 364 231 341 162 l 366 235 l 331 235 l 72 1010 l 174 1010 l 394 311 l 619 1010 l 715 1010 l 439 192 q 345 40 400 80 q 226 1 290 1 m 394 1128 q 239 1181 304 1128 q 173 1369 174 1234 l 275 1381 q 302 1252 277 1290 q 394 1213 327 1213 q 486 1252 461 1213 q 513 1381 511 1290 l 615 1369 q 549 1181 614 1234 q 394 1128 484 1128 z "},"Ф":{"ha":788,"x_min":80,"x_max":708,"o":"m 479 114 l 446 114 l 446 -13 l 342 -13 l 342 114 l 312 114 q 137 198 194 114 q 80 437 80 283 l 80 568 q 137 811 80 726 q 312 896 194 896 l 342 896 l 342 1023 l 446 1023 l 446 896 l 479 896 q 652 811 596 896 q 708 568 708 726 l 708 437 q 652 198 708 283 q 479 114 596 114 m 477 801 l 441 801 l 441 210 l 477 210 q 576 263 545 210 q 606 437 606 316 l 606 568 q 576 747 606 693 q 477 801 545 801 m 312 210 l 348 210 l 348 801 l 312 801 q 213 747 244 801 q 182 568 182 693 l 182 437 q 213 263 182 316 q 312 210 244 210 z "},"Х":{"ha":788,"x_min":47,"x_max":745,"o":"m 624 0 l 395 427 l 165 0 l 47 0 l 342 515 l 72 1010 l 189 1010 l 407 602 l 626 1010 l 745 1010 l 460 515 l 741 0 l 624 0 z "},"Ц":{"ha":788,"x_min":133,"x_max":707,"o":"m 607 -189 l 607 0 l 133 0 l 133 1010 l 234 1010 l 234 91 l 501 91 l 501 1010 l 602 1010 l 602 91 l 707 91 l 707 -189 l 607 -189 z "},"Ч":{"ha":788,"x_min":133,"x_max":655,"o":"m 655 1010 l 655 0 l 554 0 l 554 365 l 394 365 q 194 425 256 365 q 133 616 133 485 l 133 1010 l 234 1010 l 234 619 q 271 493 234 533 q 394 453 309 453 l 554 453 l 554 1010 l 655 1010 z "},"Ш":{"ha":788,"x_min":90,"x_max":698,"o":"m 90 0 l 90 1010 l 184 1010 l 184 88 l 347 88 l 347 1010 l 441 1010 l 441 88 l 604 88 l 604 1010 l 698 1010 l 698 0 l 90 0 z "},"Щ":{"ha":788,"x_min":90,"x_max":745,"o":"m 745 -172 l 646 -172 l 646 0 l 90 0 l 90 1010 l 184 1010 l 184 88 l 347 88 l 347 1010 l 441 1010 l 441 88 l 604 88 l 604 1010 l 698 1010 l 698 88 l 745 88 l 745 -172 z "},"Ъ":{"ha":788,"x_min":37,"x_max":710,"o":"m 470 0 l 239 0 l 239 919 l 37 919 l 37 1010 l 340 1010 l 340 643 l 468 643 q 652 578 593 643 q 710 375 710 513 l 710 263 q 652 64 710 128 q 470 0 593 0 m 340 91 l 470 91 q 575 133 542 91 q 609 263 609 174 l 609 381 q 575 512 609 470 q 470 554 542 554 l 340 554 l 340 91 z "},"Ы":{"ha":788,"x_min":111,"x_max":677,"o":"m 111 0 l 111 1010 l 205 1010 l 205 643 l 268 643 q 427 577 376 643 q 479 371 479 511 l 479 266 q 427 65 479 130 q 269 0 376 0 l 111 0 m 583 0 l 583 1010 l 677 1010 l 677 0 l 583 0 m 205 88 l 266 88 q 354 129 324 88 q 384 265 384 170 l 384 378 q 354 515 384 472 q 266 557 324 557 l 205 557 l 205 88 z "},"Ь":{"ha":788,"x_min":133,"x_max":687,"o":"m 133 0 l 133 1010 l 234 1010 l 234 643 l 426 643 q 624 577 561 643 q 687 372 687 511 l 687 265 q 624 64 687 129 q 426 0 561 0 l 133 0 m 234 91 l 427 91 q 545 132 504 91 q 586 264 586 173 l 586 379 q 545 513 586 471 q 427 554 505 554 l 234 554 l 234 91 z "},"Э":{"ha":788,"x_min":111,"x_max":699,"o":"m 405 -13 q 194 69 268 -13 q 111 317 120 150 l 212 330 q 263 138 221 197 q 404 78 304 78 q 554 144 510 78 q 598 327 598 210 l 598 506 l 312 506 l 312 598 l 598 598 l 598 678 q 554 873 598 814 q 404 932 510 932 q 264 872 307 932 q 212 676 221 813 l 111 688 q 194 940 120 857 q 404 1023 268 1023 q 629 929 559 1023 q 699 669 699 835 l 699 336 q 630 80 699 172 q 405 -13 561 -13 z "},"Ю":{"ha":788,"x_min":90,"x_max":698,"o":"m 494 -13 q 339 67 389 -13 q 289 295 289 146 l 289 514 l 184 514 l 184 0 l 90 0 l 90 1010 l 184 1010 l 184 592 l 289 592 l 289 699 q 340 940 289 857 q 495 1023 390 1023 q 648 940 598 1023 q 698 699 698 857 l 698 295 q 648 67 698 146 q 494 -13 598 -13 m 494 73 q 578 126 552 73 q 604 295 604 178 l 604 699 q 578 879 604 823 q 494 936 552 936 q 409 879 436 936 q 383 699 383 823 l 383 295 q 409 126 383 178 q 494 73 436 73 z "},"Я":{"ha":788,"x_min":68,"x_max":655,"o":"m 340 491 l 554 491 l 554 919 l 340 919 q 217 878 256 919 q 178 751 178 837 l 178 672 q 217 535 178 578 q 340 491 256 491 m 554 403 l 400 403 l 191 0 l 68 0 l 288 402 q 129 481 182 414 q 77 673 77 548 l 77 747 q 141 946 77 881 q 338 1010 206 1010 l 655 1010 l 655 0 l 554 0 l 554 403 z "},"Ґ":{"ha":788,"x_min":130,"x_max":677,"o":"m 130 0 l 130 1010 l 576 1010 l 576 1199 l 677 1199 l 677 919 l 231 919 l 231 0 l 130 0 z "},"a":{"ha":788,"x_min":100,"x_max":731,"o":"m 317 85 q 426 111 380 85 q 503 199 471 138 l 503 328 l 322 328 q 234 302 266 328 q 202 211 202 275 q 229 117 202 150 q 317 85 255 85 m 304 -13 q 157 42 215 -13 q 100 202 100 96 q 156 357 100 301 q 299 414 212 414 l 503 414 l 503 538 q 468 634 503 596 q 364 673 433 673 q 256 644 290 673 q 203 530 222 615 l 114 559 q 196 717 133 663 q 361 770 259 770 q 533 717 463 770 q 604 557 604 663 l 604 181 q 634 98 604 119 q 731 95 665 78 l 731 -6 q 602 10 652 -16 q 547 120 552 37 l 527 120 q 439 25 499 62 q 304 -13 379 -13 z "},"à":{"ha":788,"x_min":100,"x_max":731,"o":"m 317 85 q 426 111 380 85 q 503 199 471 138 l 503 328 l 322 328 q 234 302 266 328 q 202 211 202 275 q 229 117 202 150 q 317 85 255 85 m 304 -13 q 157 42 215 -13 q 100 202 100 96 q 156 357 100 301 q 299 414 212 414 l 503 414 l 503 538 q 468 634 503 596 q 364 673 433 673 q 256 644 290 673 q 203 530 222 615 l 114 559 q 196 717 133 663 q 361 770 259 770 q 533 717 463 770 q 604 557 604 663 l 604 181 q 634 98 604 119 q 731 95 665 78 l 731 -6 q 602 10 652 -16 q 547 120 552 37 l 527 120 q 439 25 499 62 q 304 -13 379 -13 m 375 884 l 170 1136 l 323 1136 l 468 884 l 375 884 z "},"á":{"ha":788,"x_min":100,"x_max":731,"o":"m 317 85 q 426 111 380 85 q 503 199 471 138 l 503 328 l 322 328 q 234 302 266 328 q 202 211 202 275 q 229 117 202 150 q 317 85 255 85 m 304 -13 q 157 42 215 -13 q 100 202 100 96 q 156 357 100 301 q 299 414 212 414 l 503 414 l 503 538 q 468 634 503 596 q 364 673 433 673 q 256 644 290 673 q 203 530 222 615 l 114 559 q 196 717 133 663 q 361 770 259 770 q 533 717 463 770 q 604 557 604 663 l 604 181 q 634 98 604 119 q 731 95 665 78 l 731 -6 q 602 10 652 -16 q 547 120 552 37 l 527 120 q 439 25 499 62 q 304 -13 379 -13 m 254 884 l 398 1136 l 552 1136 l 347 884 l 254 884 z "},"â":{"ha":788,"x_min":100,"x_max":731,"o":"m 317 85 q 426 111 380 85 q 503 199 471 138 l 503 328 l 322 328 q 234 302 266 328 q 202 211 202 275 q 229 117 202 150 q 317 85 255 85 m 304 -13 q 157 42 215 -13 q 100 202 100 96 q 156 357 100 301 q 299 414 212 414 l 503 414 l 503 538 q 468 634 503 596 q 364 673 433 673 q 256 644 290 673 q 203 530 222 615 l 114 559 q 196 717 133 663 q 361 770 259 770 q 533 717 463 770 q 604 557 604 663 l 604 181 q 634 98 604 119 q 731 95 665 78 l 731 -6 q 602 10 652 -16 q 547 120 552 37 l 527 120 q 439 25 499 62 q 304 -13 379 -13 m 202 907 l 154 970 l 347 1154 l 419 1154 l 614 970 l 564 905 l 383 1047 l 202 907 z "},"ã":{"ha":788,"x_min":100,"x_max":731,"o":"m 317 85 q 426 111 380 85 q 503 199 471 138 l 503 328 l 322 328 q 234 302 266 328 q 202 211 202 275 q 229 117 202 150 q 317 85 255 85 m 304 -13 q 157 42 215 -13 q 100 202 100 96 q 156 357 100 301 q 299 414 212 414 l 503 414 l 503 538 q 468 634 503 596 q 364 673 433 673 q 256 644 290 673 q 203 530 222 615 l 114 559 q 196 717 133 663 q 361 770 259 770 q 533 717 463 770 q 604 557 604 663 l 604 181 q 634 98 604 119 q 731 95 665 78 l 731 -6 q 602 10 652 -16 q 547 120 552 37 l 527 120 q 439 25 499 62 q 304 -13 379 -13 m 455 896 q 390 921 414 896 q 347 973 365 946 q 316 1025 331 1001 q 280 1049 301 1049 q 244 1019 256 1049 q 232 920 231 989 l 232 909 l 153 909 l 153 928 q 188 1080 153 1019 q 290 1141 223 1141 q 360 1117 335 1141 q 403 1066 386 1092 q 432 1014 419 1038 q 465 990 446 990 q 501 1020 487 990 q 514 1117 514 1049 l 514 1130 l 592 1130 l 592 1111 q 557 957 592 1018 q 455 896 521 896 z "},"ä":{"ha":788,"x_min":100,"x_max":731,"o":"m 317 85 q 426 111 380 85 q 503 199 471 138 l 503 328 l 322 328 q 234 302 266 328 q 202 211 202 275 q 229 117 202 150 q 317 85 255 85 m 304 -13 q 157 42 215 -13 q 100 202 100 96 q 156 357 100 301 q 299 414 212 414 l 503 414 l 503 538 q 468 634 503 596 q 364 673 433 673 q 256 644 290 673 q 203 530 222 615 l 114 559 q 196 717 133 663 q 361 770 259 770 q 533 717 463 770 q 604 557 604 663 l 604 181 q 634 98 604 119 q 731 95 665 78 l 731 -6 q 602 10 652 -16 q 547 120 552 37 l 527 120 q 439 25 499 62 q 304 -13 379 -13 m 251 904 q 203 917 221 904 q 184 968 184 931 l 184 975 q 203 1028 184 1014 q 251 1042 221 1042 q 301 1028 283 1042 q 318 975 318 1014 l 318 968 q 300 917 318 931 q 251 904 282 904 m 494 904 q 444 917 462 904 q 427 968 427 931 l 427 975 q 444 1028 427 1014 q 494 1042 462 1042 q 542 1028 523 1042 q 561 975 561 1014 l 561 968 q 542 917 561 931 q 494 904 523 904 z "},"å":{"ha":788,"x_min":100,"x_max":731,"o":"m 317 85 q 426 111 380 85 q 503 199 471 138 l 503 328 l 322 328 q 234 302 266 328 q 202 211 202 275 q 229 117 202 150 q 317 85 255 85 m 304 -13 q 157 42 215 -13 q 100 202 100 96 q 156 357 100 301 q 299 414 212 414 l 503 414 l 503 538 q 468 634 503 596 q 364 673 433 673 q 256 644 290 673 q 203 530 222 615 l 114 559 q 196 717 133 663 q 361 770 259 770 q 533 717 463 770 q 604 557 604 663 l 604 181 q 634 98 604 119 q 731 95 665 78 l 731 -6 q 602 10 652 -16 q 547 120 552 37 l 527 120 q 439 25 499 62 q 304 -13 379 -13 m 374 869 q 253 913 299 869 q 207 1048 207 957 l 207 1088 q 253 1226 207 1181 q 374 1271 299 1271 q 495 1226 449 1271 q 540 1088 540 1181 l 540 1048 q 494 913 540 957 q 374 869 448 869 m 374 951 q 439 973 417 951 q 461 1048 461 995 l 461 1088 q 439 1165 461 1140 q 374 1189 417 1189 q 309 1165 331 1189 q 287 1088 287 1140 l 287 1048 q 309 973 287 995 q 374 951 331 951 z "},"ā":{"ha":788,"x_min":100,"x_max":731,"o":"m 317 85 q 426 111 380 85 q 503 199 471 138 l 503 328 l 322 328 q 234 302 266 328 q 202 211 202 275 q 229 117 202 150 q 317 85 255 85 m 304 -13 q 157 42 215 -13 q 100 202 100 96 q 156 357 100 301 q 299 414 212 414 l 503 414 l 503 538 q 468 634 503 596 q 364 673 433 673 q 256 644 290 673 q 203 530 222 615 l 114 559 q 196 717 133 663 q 361 770 259 770 q 533 717 463 770 q 604 557 604 663 l 604 181 q 634 98 604 119 q 731 95 665 78 l 731 -6 q 602 10 652 -16 q 547 120 552 37 l 527 120 q 439 25 499 62 q 304 -13 379 -13 m 164 965 l 164 1056 l 583 1056 l 583 965 l 164 965 z "},"ă":{"ha":788,"x_min":100,"x_max":731,"o":"m 317 85 q 426 111 380 85 q 503 199 471 138 l 503 328 l 322 328 q 234 302 266 328 q 202 211 202 275 q 229 117 202 150 q 317 85 255 85 m 304 -13 q 157 42 215 -13 q 100 202 100 96 q 156 357 100 301 q 299 414 212 414 l 503 414 l 503 538 q 468 634 503 596 q 364 673 433 673 q 256 644 290 673 q 203 530 222 615 l 114 559 q 196 717 133 663 q 361 770 259 770 q 533 717 463 770 q 604 557 604 663 l 604 181 q 634 98 604 119 q 731 95 665 78 l 731 -6 q 602 10 652 -16 q 547 120 552 37 l 527 120 q 439 25 499 62 q 304 -13 379 -13 m 374 875 q 198 936 264 875 q 130 1129 131 997 l 234 1129 q 270 999 235 1038 q 374 961 304 961 q 478 999 443 961 q 514 1129 513 1038 l 617 1129 q 550 936 616 997 q 374 875 484 875 z "},"ą":{"ha":788,"x_min":100,"x_max":759,"o":"m 317 85 q 426 111 380 85 q 503 199 471 138 l 503 328 l 322 328 q 234 302 266 328 q 202 211 202 275 q 229 117 202 150 q 317 85 255 85 m 304 -13 q 157 42 215 -13 q 100 202 100 96 q 156 357 100 301 q 299 414 212 414 l 503 414 l 503 538 q 468 634 503 596 q 364 673 433 673 q 256 644 290 673 q 203 530 222 615 l 114 559 q 196 717 133 663 q 361 770 259 770 q 533 717 463 770 q 604 557 604 663 l 604 181 q 634 98 604 119 q 731 95 665 78 l 731 -6 q 602 10 652 -16 q 547 120 552 37 l 527 120 q 439 25 499 62 q 304 -13 379 -13 m 654 -269 q 543 -229 588 -269 q 497 -121 497 -189 q 538 -20 497 -66 q 625 48 578 25 l 653 29 q 602 -33 615 1 q 590 -91 590 -67 q 610 -146 590 -126 q 665 -165 630 -165 q 713 -161 684 -165 q 759 -153 742 -157 l 759 -256 q 708 -265 739 -261 q 654 -269 678 -269 z "},"ǻ":{"ha":788,"x_min":100,"x_max":731,"o":"m 317 85 q 426 111 380 85 q 503 199 471 138 l 503 328 l 322 328 q 234 302 266 328 q 202 211 202 275 q 229 117 202 150 q 317 85 255 85 m 304 -13 q 157 42 215 -13 q 100 202 100 96 q 156 357 100 301 q 299 414 212 414 l 503 414 l 503 538 q 468 634 503 596 q 364 673 433 673 q 256 644 290 673 q 203 530 222 615 l 114 559 q 196 717 133 663 q 361 770 259 770 q 533 717 463 770 q 604 557 604 663 l 604 181 q 634 98 604 119 q 731 95 665 78 l 731 -6 q 602 10 652 -16 q 547 120 552 37 l 527 120 q 439 25 499 62 q 304 -13 379 -13 m 374 869 q 253 913 299 869 q 207 1048 207 957 l 207 1088 q 253 1226 207 1181 q 374 1271 299 1271 q 495 1226 449 1271 q 540 1088 540 1181 l 540 1048 q 494 913 540 957 q 374 869 448 869 m 374 951 q 439 973 417 951 q 461 1048 461 995 l 461 1088 q 439 1165 461 1140 q 374 1189 417 1189 q 309 1165 331 1189 q 287 1088 287 1140 l 287 1048 q 309 973 287 995 q 374 951 331 951 m 318 1263 l 462 1515 l 616 1515 l 412 1263 l 318 1263 z "},"b":{"ha":788,"x_min":133,"x_max":655,"o":"m 386 -14 q 251 6 316 -14 q 133 68 186 27 l 133 1010 l 232 1010 l 232 652 l 265 652 q 338 739 289 708 q 451 770 386 770 q 602 698 549 770 q 655 489 655 626 l 655 260 q 585 57 655 129 q 386 -14 514 -14 m 384 78 q 515 123 473 78 q 556 263 556 168 l 556 501 q 525 630 556 590 q 426 670 494 670 q 321 638 367 670 q 232 534 275 606 l 232 122 q 304 88 268 98 q 384 78 340 78 z "},"":{"ha":788,"x_min":133,"x_max":655,"o":"m 386 -14 q 251 6 316 -14 q 133 68 186 27 l 133 1010 l 232 1010 l 232 652 l 265 652 q 338 739 289 708 q 451 770 386 770 q 602 698 549 770 q 655 489 655 626 l 655 260 q 585 57 655 129 q 386 -14 514 -14 m 384 78 q 515 123 473 78 q 556 263 556 168 l 556 501 q 525 630 556 590 q 426 670 494 670 q 321 638 367 670 q 232 534 275 606 l 232 122 q 304 88 268 98 q 384 78 340 78 z "},"c":{"ha":788,"x_min":133,"x_max":668,"o":"m 409 -13 q 201 57 269 -13 q 133 254 133 126 l 133 495 q 201 700 133 630 q 408 770 270 770 q 596 708 532 770 q 668 518 660 646 l 569 514 q 525 641 564 606 q 407 676 486 676 q 277 634 321 676 q 232 501 232 592 l 232 250 q 277 124 232 164 q 409 83 322 83 q 527 111 489 83 q 569 218 564 139 l 668 215 q 597 42 660 97 q 409 -13 533 -13 z "},"ç":{"ha":788,"x_min":133,"x_max":668,"o":"m 409 -13 q 201 57 269 -13 q 133 254 133 126 l 133 495 q 201 700 133 630 q 408 770 270 770 q 596 708 532 770 q 668 518 660 646 l 569 514 q 525 641 564 606 q 407 676 486 676 q 277 634 321 676 q 232 501 232 592 l 232 250 q 277 124 232 164 q 409 83 322 83 q 527 111 489 83 q 569 218 564 139 l 668 215 q 597 42 660 97 q 409 -13 533 -13 m 356 0 l 376 53 q 468 -1 432 40 q 505 -115 505 -43 q 457 -232 505 -194 q 354 -269 409 -269 q 244 -242 287 -269 q 196 -146 201 -215 l 285 -134 q 301 -167 287 -158 q 348 -177 316 -177 q 396 -160 380 -177 q 413 -101 413 -144 q 400 -32 413 -54 q 356 0 388 -10 z "},"ć":{"ha":788,"x_min":133,"x_max":668,"o":"m 409 -13 q 201 57 269 -13 q 133 254 133 126 l 133 495 q 201 700 133 630 q 408 770 270 770 q 596 708 532 770 q 668 518 660 646 l 569 514 q 525 641 564 606 q 407 676 486 676 q 277 634 321 676 q 232 501 232 592 l 232 250 q 277 124 232 164 q 409 83 322 83 q 527 111 489 83 q 569 218 564 139 l 668 215 q 597 42 660 97 q 409 -13 533 -13 m 279 884 l 423 1136 l 577 1136 l 372 884 l 279 884 z "},"ĉ":{"ha":788,"x_min":133,"x_max":668,"o":"m 409 -13 q 201 57 269 -13 q 133 254 133 126 l 133 495 q 201 700 133 630 q 408 770 270 770 q 596 708 532 770 q 668 518 660 646 l 569 514 q 525 641 564 606 q 407 676 486 676 q 277 634 321 676 q 232 501 232 592 l 232 250 q 277 124 232 164 q 409 83 322 83 q 527 111 489 83 q 569 218 564 139 l 668 215 q 597 42 660 97 q 409 -13 533 -13 m 230 907 l 182 970 l 375 1154 l 447 1154 l 641 970 l 592 905 l 410 1047 l 230 907 z "},"ċ":{"ha":788,"x_min":133,"x_max":668,"o":"m 409 -13 q 201 57 269 -13 q 133 254 133 126 l 133 495 q 201 700 133 630 q 408 770 270 770 q 596 708 532 770 q 668 518 660 646 l 569 514 q 525 641 564 606 q 407 676 486 676 q 277 634 321 676 q 232 501 232 592 l 232 250 q 277 124 232 164 q 409 83 322 83 q 527 111 489 83 q 569 218 564 139 l 668 215 q 597 42 660 97 q 409 -13 533 -13 m 400 904 q 336 917 361 904 q 312 968 312 931 l 312 975 q 336 1028 312 1014 q 400 1042 361 1042 q 464 1028 439 1042 q 489 975 489 1014 l 489 968 q 464 917 489 931 q 400 904 439 904 z "},"č":{"ha":788,"x_min":133,"x_max":668,"o":"m 409 -13 q 201 57 269 -13 q 133 254 133 126 l 133 495 q 201 700 133 630 q 408 770 270 770 q 596 708 532 770 q 668 518 660 646 l 569 514 q 525 641 564 606 q 407 676 486 676 q 277 634 321 676 q 232 501 232 592 l 232 250 q 277 124 232 164 q 409 83 322 83 q 527 111 489 83 q 569 218 564 139 l 668 215 q 597 42 660 97 q 409 -13 533 -13 m 365 889 l 170 1073 l 220 1136 l 402 997 l 582 1136 l 630 1073 l 437 889 l 365 889 z "},"d":{"ha":788,"x_min":133,"x_max":655,"o":"m 362 87 q 466 121 419 87 q 556 223 513 154 l 556 626 q 486 667 524 654 q 404 679 448 679 q 275 634 317 679 q 232 495 232 588 l 232 254 q 265 128 232 168 q 362 87 297 87 m 523 106 q 449 18 499 49 q 337 -13 399 -13 q 188 61 242 -13 q 133 269 133 134 l 133 497 q 205 699 133 626 q 405 771 278 771 q 480 761 441 771 q 556 734 520 751 l 556 1010 l 655 1010 l 655 0 l 556 0 l 556 106 l 523 106 z "},"ď":{"ha":788,"x_min":133,"x_max":996,"o":"m 362 87 q 466 121 419 87 q 556 223 513 154 l 556 626 q 486 667 524 654 q 404 679 448 679 q 275 634 317 679 q 232 495 232 588 l 232 254 q 265 128 232 168 q 362 87 297 87 m 523 106 q 449 18 499 49 q 337 -13 399 -13 q 188 61 242 -13 q 133 269 133 134 l 133 497 q 205 699 133 626 q 405 771 278 771 q 480 761 441 771 q 556 734 520 751 l 556 1010 l 655 1010 l 655 0 l 556 0 l 556 106 l 523 106 m 760 890 l 846 1263 l 996 1263 l 833 890 l 760 890 z "},"e":{"ha":788,"x_min":133,"x_max":659,"o":"m 659 163 q 571 30 629 72 q 394 -13 513 -13 q 201 56 270 -13 q 133 259 133 124 l 133 494 q 206 702 133 634 q 395 770 280 770 q 583 701 511 770 q 655 485 655 631 l 655 361 l 232 361 l 232 261 q 273 122 232 163 q 393 81 313 81 q 504 108 470 81 q 559 193 539 135 l 659 163 m 232 486 l 232 446 l 556 446 l 556 473 q 515 627 556 578 q 394 676 473 676 q 273 628 314 676 q 232 486 232 581 z "},"è":{"ha":788,"x_min":133,"x_max":659,"o":"m 659 163 q 571 30 629 72 q 394 -13 513 -13 q 201 56 270 -13 q 133 259 133 124 l 133 494 q 206 702 133 634 q 395 770 280 770 q 583 701 511 770 q 655 485 655 631 l 655 361 l 232 361 l 232 261 q 273 122 232 163 q 393 81 313 81 q 504 108 470 81 q 559 193 539 135 l 659 163 m 232 486 l 232 446 l 556 446 l 556 473 q 515 627 556 578 q 394 676 473 676 q 273 628 314 676 q 232 486 232 581 m 398 884 l 193 1136 l 346 1136 l 491 884 l 398 884 z "},"é":{"ha":788,"x_min":133,"x_max":659,"o":"m 659 163 q 571 30 629 72 q 394 -13 513 -13 q 201 56 270 -13 q 133 259 133 124 l 133 494 q 206 702 133 634 q 395 770 280 770 q 583 701 511 770 q 655 485 655 631 l 655 361 l 232 361 l 232 261 q 273 122 232 163 q 393 81 313 81 q 504 108 470 81 q 559 193 539 135 l 659 163 m 232 486 l 232 446 l 556 446 l 556 473 q 515 627 556 578 q 394 676 473 676 q 273 628 314 676 q 232 486 232 581 m 275 884 l 419 1136 l 573 1136 l 369 884 l 275 884 z "},"ê":{"ha":788,"x_min":133,"x_max":659,"o":"m 659 163 q 571 30 629 72 q 394 -13 513 -13 q 201 56 270 -13 q 133 259 133 124 l 133 494 q 206 702 133 634 q 395 770 280 770 q 583 701 511 770 q 655 485 655 631 l 655 361 l 232 361 l 232 261 q 273 122 232 163 q 393 81 313 81 q 504 108 470 81 q 559 193 539 135 l 659 163 m 232 486 l 232 446 l 556 446 l 556 473 q 515 627 556 578 q 394 676 473 676 q 273 628 314 676 q 232 486 232 581 m 213 907 l 165 970 l 359 1154 l 431 1154 l 625 970 l 576 905 l 394 1047 l 213 907 z "},"ë":{"ha":788,"x_min":133,"x_max":659,"o":"m 659 163 q 571 30 629 72 q 394 -13 513 -13 q 201 56 270 -13 q 133 259 133 124 l 133 494 q 206 702 133 634 q 395 770 280 770 q 583 701 511 770 q 655 485 655 631 l 655 361 l 232 361 l 232 261 q 273 122 232 163 q 393 81 313 81 q 504 108 470 81 q 559 193 539 135 l 659 163 m 232 486 l 232 446 l 556 446 l 556 473 q 515 627 556 578 q 394 676 473 676 q 273 628 314 676 q 232 486 232 581 m 274 904 q 225 917 244 904 q 207 968 207 931 l 207 975 q 225 1028 207 1014 q 274 1042 244 1042 q 323 1028 306 1042 q 341 975 341 1014 l 341 968 q 323 917 341 931 q 274 904 304 904 m 516 904 q 467 917 485 904 q 449 968 449 931 l 449 975 q 467 1028 449 1014 q 516 1042 485 1042 q 564 1028 545 1042 q 583 975 583 1014 l 583 968 q 564 917 583 931 q 516 904 545 904 z "},"ē":{"ha":788,"x_min":133,"x_max":659,"o":"m 659 163 q 571 30 629 72 q 394 -13 513 -13 q 201 56 270 -13 q 133 259 133 124 l 133 494 q 206 702 133 634 q 395 770 280 770 q 583 701 511 770 q 655 485 655 631 l 655 361 l 232 361 l 232 261 q 273 122 232 163 q 393 81 313 81 q 504 108 470 81 q 559 193 539 135 l 659 163 m 232 486 l 232 446 l 556 446 l 556 473 q 515 627 556 578 q 394 676 473 676 q 273 628 314 676 q 232 486 232 581 m 186 965 l 186 1056 l 605 1056 l 605 965 l 186 965 z "},"ĕ":{"ha":788,"x_min":133,"x_max":659,"o":"m 659 163 q 571 30 629 72 q 394 -13 513 -13 q 201 56 270 -13 q 133 259 133 124 l 133 494 q 206 702 133 634 q 395 770 280 770 q 583 701 511 770 q 655 485 655 631 l 655 361 l 232 361 l 232 261 q 273 122 232 163 q 393 81 313 81 q 504 108 470 81 q 559 193 539 135 l 659 163 m 232 486 l 232 446 l 556 446 l 556 473 q 515 627 556 578 q 394 676 473 676 q 273 628 314 676 q 232 486 232 581 m 395 875 q 219 936 285 875 q 152 1129 153 997 l 255 1129 q 291 999 256 1038 q 395 961 326 961 q 499 999 465 961 q 535 1129 534 1038 l 639 1129 q 571 936 638 997 q 395 875 505 875 z "},"ė":{"ha":788,"x_min":133,"x_max":659,"o":"m 659 163 q 571 30 629 72 q 394 -13 513 -13 q 201 56 270 -13 q 133 259 133 124 l 133 494 q 206 702 133 634 q 395 770 280 770 q 583 701 511 770 q 655 485 655 631 l 655 361 l 232 361 l 232 261 q 273 122 232 163 q 393 81 313 81 q 504 108 470 81 q 559 193 539 135 l 659 163 m 232 486 l 232 446 l 556 446 l 556 473 q 515 627 556 578 q 394 676 473 676 q 273 628 314 676 q 232 486 232 581 m 395 904 q 331 917 356 904 q 307 968 307 931 l 307 975 q 331 1028 307 1014 q 395 1042 356 1042 q 459 1028 434 1042 q 484 975 484 1014 l 484 968 q 459 917 484 931 q 395 904 434 904 z "},"ę":{"ha":788,"x_min":133,"x_max":659,"o":"m 539 -269 q 428 -229 473 -269 q 383 -121 383 -189 q 423 -20 383 -66 q 510 48 463 25 l 538 29 q 487 -33 500 1 q 475 -91 475 -67 q 495 -146 475 -126 q 551 -165 515 -165 q 598 -161 569 -165 q 644 -153 628 -157 l 644 -256 q 593 -265 624 -261 q 539 -269 563 -269 m 659 163 q 571 30 629 72 q 394 -13 513 -13 q 201 56 270 -13 q 133 259 133 124 l 133 494 q 206 702 133 634 q 395 770 280 770 q 583 701 511 770 q 655 485 655 631 l 655 361 l 232 361 l 232 261 q 273 122 232 163 q 393 81 313 81 q 504 108 470 81 q 559 193 539 135 l 659 163 m 232 486 l 232 446 l 556 446 l 556 473 q 515 627 556 578 q 394 676 473 676 q 273 628 314 676 q 232 486 232 581 z "},"ě":{"ha":788,"x_min":133,"x_max":659,"o":"m 659 163 q 571 30 629 72 q 394 -13 513 -13 q 201 56 270 -13 q 133 259 133 124 l 133 494 q 206 702 133 634 q 395 770 280 770 q 583 701 511 770 q 655 485 655 631 l 655 361 l 232 361 l 232 261 q 273 122 232 163 q 393 81 313 81 q 504 108 470 81 q 559 193 539 135 l 659 163 m 232 486 l 232 446 l 556 446 l 556 473 q 515 627 556 578 q 394 676 473 676 q 273 628 314 676 q 232 486 232 581 m 360 889 l 165 1073 l 215 1136 l 396 997 l 577 1136 l 625 1073 l 432 889 l 360 889 z "},"f":{"ha":788,"x_min":110,"x_max":677,"o":"m 290 0 l 290 662 l 110 662 l 110 758 l 290 758 l 290 811 q 355 959 290 907 q 509 1011 419 1011 q 607 998 563 1011 q 677 971 652 985 l 655 881 q 586 904 624 895 q 508 913 549 913 q 423 891 455 913 q 391 819 391 869 l 391 758 l 655 758 l 655 662 l 391 662 l 391 0 l 290 0 z "},"g":{"ha":788,"x_min":78,"x_max":710,"o":"m 710 -69 q 646 -218 710 -172 q 495 -265 583 -265 l 295 -265 q 140 -222 201 -265 q 78 -77 78 -179 q 105 17 78 -19 q 183 58 133 53 l 183 85 q 123 119 146 90 q 100 208 100 148 q 128 302 100 259 q 223 351 155 346 l 223 374 q 155 438 173 395 q 136 513 136 481 l 136 557 q 198 699 136 641 q 371 758 259 758 l 682 758 l 682 652 l 519 684 l 519 660 q 583 605 561 645 q 605 528 605 566 l 605 486 q 549 347 605 402 q 370 292 494 292 l 239 292 q 196 274 211 292 q 181 213 181 256 q 201 150 181 170 q 264 129 222 129 l 505 129 q 651 83 592 129 q 710 -69 710 37 m 372 383 q 472 412 437 383 q 506 508 506 442 l 506 543 q 472 638 506 609 q 372 667 437 667 q 273 638 307 667 q 239 543 239 609 l 239 508 q 273 412 239 442 q 372 383 308 383 m 289 -176 l 509 -176 q 586 -151 556 -176 q 617 -71 617 -126 q 590 8 617 -16 q 520 32 563 32 l 179 32 l 179 -61 q 208 -147 179 -119 q 289 -176 236 -176 z "},"ĝ":{"ha":788,"x_min":78,"x_max":710,"o":"m 710 -69 q 646 -218 710 -172 q 495 -265 583 -265 l 295 -265 q 140 -222 201 -265 q 78 -77 78 -179 q 105 17 78 -19 q 183 58 133 53 l 183 85 q 123 119 146 90 q 100 208 100 148 q 128 302 100 259 q 223 351 155 346 l 223 374 q 155 438 173 395 q 136 513 136 481 l 136 557 q 198 699 136 641 q 371 758 259 758 l 682 758 l 682 652 l 519 684 l 519 660 q 583 605 561 645 q 605 528 605 566 l 605 486 q 549 347 605 402 q 370 292 494 292 l 239 292 q 196 274 211 292 q 181 213 181 256 q 201 150 181 170 q 264 129 222 129 l 505 129 q 651 83 592 129 q 710 -69 710 37 m 372 383 q 472 412 437 383 q 506 508 506 442 l 506 543 q 472 638 506 609 q 372 667 437 667 q 273 638 307 667 q 239 543 239 609 l 239 508 q 273 412 239 442 q 372 383 308 383 m 289 -176 l 509 -176 q 586 -151 556 -176 q 617 -71 617 -126 q 590 8 617 -16 q 520 32 563 32 l 179 32 l 179 -61 q 208 -147 179 -119 q 289 -176 236 -176 m 201 907 l 153 970 l 346 1154 l 418 1154 l 612 970 l 563 905 l 381 1047 l 201 907 z "},"ğ":{"ha":788,"x_min":78,"x_max":710,"o":"m 710 -69 q 646 -218 710 -172 q 495 -265 583 -265 l 295 -265 q 140 -222 201 -265 q 78 -77 78 -179 q 105 17 78 -19 q 183 58 133 53 l 183 85 q 123 119 146 90 q 100 208 100 148 q 128 302 100 259 q 223 351 155 346 l 223 374 q 155 438 173 395 q 136 513 136 481 l 136 557 q 198 699 136 641 q 371 758 259 758 l 682 758 l 682 652 l 519 684 l 519 660 q 583 605 561 645 q 605 528 605 566 l 605 486 q 549 347 605 402 q 370 292 494 292 l 239 292 q 196 274 211 292 q 181 213 181 256 q 201 150 181 170 q 264 129 222 129 l 505 129 q 651 83 592 129 q 710 -69 710 37 m 372 383 q 472 412 437 383 q 506 508 506 442 l 506 543 q 472 638 506 609 q 372 667 437 667 q 273 638 307 667 q 239 543 239 609 l 239 508 q 273 412 239 442 q 372 383 308 383 m 289 -176 l 509 -176 q 586 -151 556 -176 q 617 -71 617 -126 q 590 8 617 -16 q 520 32 563 32 l 179 32 l 179 -61 q 208 -147 179 -119 q 289 -176 236 -176 m 394 875 q 218 936 284 875 q 150 1129 152 997 l 254 1129 q 290 999 255 1038 q 394 961 324 961 q 498 999 463 961 q 534 1129 533 1038 l 638 1129 q 570 936 636 997 q 394 875 504 875 z "},"ġ":{"ha":788,"x_min":78,"x_max":710,"o":"m 710 -69 q 646 -218 710 -172 q 495 -265 583 -265 l 295 -265 q 140 -222 201 -265 q 78 -77 78 -179 q 105 17 78 -19 q 183 58 133 53 l 183 85 q 123 119 146 90 q 100 208 100 148 q 128 302 100 259 q 223 351 155 346 l 223 374 q 155 438 173 395 q 136 513 136 481 l 136 557 q 198 699 136 641 q 371 758 259 758 l 682 758 l 682 652 l 519 684 l 519 660 q 583 605 561 645 q 605 528 605 566 l 605 486 q 549 347 605 402 q 370 292 494 292 l 239 292 q 196 274 211 292 q 181 213 181 256 q 201 150 181 170 q 264 129 222 129 l 505 129 q 651 83 592 129 q 710 -69 710 37 m 372 383 q 472 412 437 383 q 506 508 506 442 l 506 543 q 472 638 506 609 q 372 667 437 667 q 273 638 307 667 q 239 543 239 609 l 239 508 q 273 412 239 442 q 372 383 308 383 m 289 -176 l 509 -176 q 586 -151 556 -176 q 617 -71 617 -126 q 590 8 617 -16 q 520 32 563 32 l 179 32 l 179 -61 q 208 -147 179 -119 q 289 -176 236 -176 m 394 904 q 330 917 355 904 q 306 968 306 931 l 306 975 q 330 1028 306 1014 q 394 1042 355 1042 q 458 1028 433 1042 q 482 975 482 1014 l 482 968 q 458 917 482 931 q 394 904 433 904 z "},"ģ":{"ha":788,"x_min":78,"x_max":710,"o":"m 710 -69 q 646 -218 710 -172 q 495 -265 583 -265 l 295 -265 q 140 -222 201 -265 q 78 -77 78 -179 q 105 17 78 -19 q 183 58 133 53 l 183 85 q 123 119 146 90 q 100 208 100 148 q 128 302 100 259 q 223 351 155 346 l 223 374 q 155 438 173 395 q 136 513 136 481 l 136 557 q 198 699 136 641 q 371 758 259 758 l 682 758 l 682 652 l 519 684 l 519 660 q 583 605 561 645 q 605 528 605 566 l 605 486 q 549 347 605 402 q 370 292 494 292 l 239 292 q 196 274 211 292 q 181 213 181 256 q 201 150 181 170 q 264 129 222 129 l 505 129 q 651 83 592 129 q 710 -69 710 37 m 372 383 q 472 412 437 383 q 506 508 506 442 l 506 543 q 472 638 506 609 q 372 667 437 667 q 273 638 307 667 q 239 543 239 609 l 239 508 q 273 412 239 442 q 372 383 308 383 m 289 -176 l 509 -176 q 586 -151 556 -176 q 617 -71 617 -126 q 590 8 617 -16 q 520 32 563 32 l 179 32 l 179 -61 q 208 -147 179 -119 q 289 -176 236 -176 m 297 884 l 458 1136 l 553 1136 l 451 884 l 297 884 z "},"h":{"ha":788,"x_min":133,"x_max":655,"o":"m 133 0 l 133 1010 l 232 1010 l 232 652 l 265 652 q 335 738 284 706 q 451 770 386 770 q 600 702 544 770 q 655 520 655 634 l 655 0 l 556 0 l 556 505 q 523 629 556 587 q 429 670 491 670 q 326 639 375 670 q 232 545 277 607 l 232 0 l 133 0 z "},"ĥ":{"ha":788,"x_min":-45,"x_max":655,"o":"m 133 0 l 133 1010 l 232 1010 l 232 652 l 265 652 q 335 738 284 706 q 451 770 386 770 q 600 702 544 770 q 655 520 655 634 l 655 0 l 556 0 l 556 505 q 523 629 556 587 q 429 670 491 670 q 326 639 375 670 q 232 545 277 607 l 232 0 l 133 0 m 3 1159 l -45 1222 l 148 1407 l 220 1407 l 414 1222 l 365 1158 l 183 1299 l 3 1159 z "},"i":{"ha":788,"x_min":131,"x_max":657,"o":"m 131 0 l 131 96 l 343 96 l 343 662 l 131 662 l 131 758 l 444 758 l 444 96 l 657 96 l 657 0 l 131 0 m 393 904 q 329 917 354 904 q 304 968 304 931 l 304 975 q 329 1028 304 1014 q 393 1042 354 1042 q 456 1028 432 1042 q 481 975 481 1014 l 481 968 q 456 917 481 931 q 393 904 432 904 z "},"ì":{"ha":788,"x_min":131,"x_max":657,"o":"m 131 0 l 131 96 l 343 96 l 343 662 l 131 662 l 131 758 l 444 758 l 444 96 l 657 96 l 657 0 l 131 0 m 396 884 l 192 1136 l 345 1136 l 490 884 l 396 884 z "},"í":{"ha":788,"x_min":131,"x_max":657,"o":"m 131 0 l 131 96 l 343 96 l 343 662 l 131 662 l 131 758 l 444 758 l 444 96 l 657 96 l 657 0 l 131 0 m 275 884 l 419 1136 l 573 1136 l 369 884 l 275 884 z "},"î":{"ha":788,"x_min":131,"x_max":657,"o":"m 131 0 l 131 96 l 343 96 l 343 662 l 131 662 l 131 758 l 444 758 l 444 96 l 657 96 l 657 0 l 131 0 m 212 907 l 164 970 l 357 1154 l 429 1154 l 624 970 l 574 905 l 393 1047 l 212 907 z "},"ï":{"ha":788,"x_min":131,"x_max":657,"o":"m 131 0 l 131 96 l 343 96 l 343 662 l 131 662 l 131 758 l 444 758 l 444 96 l 657 96 l 657 0 l 131 0 m 273 904 q 224 917 242 904 q 206 968 206 931 l 206 975 q 224 1028 206 1014 q 273 1042 242 1042 q 322 1028 304 1042 q 340 975 340 1014 l 340 968 q 321 917 340 931 q 273 904 303 904 m 515 904 q 466 917 484 904 q 448 968 448 931 l 448 975 q 466 1028 448 1014 q 515 1042 484 1042 q 563 1028 544 1042 q 582 975 582 1014 l 582 968 q 563 917 582 931 q 515 904 544 904 z "},"ĩ":{"ha":788,"x_min":131,"x_max":657,"o":"m 131 0 l 131 96 l 343 96 l 343 662 l 131 662 l 131 758 l 444 758 l 444 96 l 657 96 l 657 0 l 131 0 m 476 896 q 411 921 436 896 q 369 973 386 946 q 337 1025 352 1001 q 302 1049 322 1049 q 265 1019 278 1049 q 254 920 253 989 l 254 909 l 174 909 l 174 928 q 210 1080 174 1019 q 312 1141 245 1141 q 382 1117 356 1141 q 424 1066 408 1092 q 454 1014 441 1038 q 486 990 467 990 q 522 1020 509 990 q 535 1117 535 1049 l 535 1130 l 614 1130 l 614 1111 q 578 957 614 1018 q 476 896 543 896 z "},"ī":{"ha":788,"x_min":131,"x_max":657,"o":"m 131 0 l 131 96 l 343 96 l 343 662 l 131 662 l 131 758 l 444 758 l 444 96 l 657 96 l 657 0 l 131 0 m 184 965 l 184 1056 l 604 1056 l 604 965 l 184 965 z "},"ĭ":{"ha":788,"x_min":131,"x_max":657,"o":"m 131 0 l 131 96 l 343 96 l 343 662 l 131 662 l 131 758 l 444 758 l 444 96 l 657 96 l 657 0 l 131 0 m 394 875 q 218 936 284 875 q 150 1129 152 997 l 254 1129 q 290 999 255 1038 q 394 961 324 961 q 498 999 463 961 q 534 1129 533 1038 l 638 1129 q 570 936 636 997 q 394 875 504 875 z "},"į":{"ha":788,"x_min":131,"x_max":657,"o":"m 393 904 q 329 917 354 904 q 304 968 304 931 l 304 975 q 329 1028 304 1014 q 393 1042 354 1042 q 456 1028 432 1042 q 481 975 481 1014 l 481 968 q 456 917 481 931 q 393 904 432 904 m 131 0 l 131 96 l 343 96 l 343 662 l 131 662 l 131 758 l 444 758 l 444 96 l 657 96 l 657 0 l 131 0 m 481 -269 q 370 -229 415 -269 q 324 -121 324 -189 q 365 -20 324 -66 q 452 48 405 25 l 480 29 q 429 -33 442 1 q 417 -91 417 -67 q 437 -146 417 -126 q 492 -165 457 -165 q 540 -161 511 -165 q 586 -153 569 -157 l 586 -256 q 535 -265 566 -261 q 481 -269 505 -269 z "},"j":{"ha":788,"x_min":134,"x_max":586,"o":"m 298 -263 q 220 -257 259 -263 q 134 -235 181 -251 l 155 -125 q 229 -147 194 -141 q 295 -153 263 -153 q 407 -116 364 -153 q 449 6 449 -80 l 449 662 l 153 662 l 153 758 l 551 758 l 551 -9 q 477 -201 551 -140 q 298 -263 403 -263 m 497 904 q 434 917 458 904 q 409 968 409 931 l 409 975 q 434 1028 409 1014 q 497 1042 458 1042 q 561 1028 537 1042 q 586 975 586 1014 l 586 968 q 561 917 586 931 q 497 904 537 904 z "},"ĵ":{"ha":788,"x_min":134,"x_max":693,"o":"m 298 -263 q 220 -257 259 -263 q 134 -235 181 -251 l 155 -125 q 229 -147 194 -141 q 295 -153 263 -153 q 407 -116 364 -153 q 449 6 449 -80 l 449 662 l 153 662 l 153 758 l 551 758 l 551 -9 q 477 -201 551 -140 q 298 -263 403 -263 m 282 907 l 234 970 l 427 1154 l 499 1154 l 693 970 l 644 905 l 462 1047 l 282 907 z "},"k":{"ha":788,"x_min":187,"x_max":670,"o":"m 288 355 l 288 0 l 187 0 l 187 1010 l 288 1010 l 288 444 l 342 444 l 547 758 l 670 758 l 419 403 l 668 0 l 552 0 l 342 355 l 288 355 z "},"ķ":{"ha":788,"x_min":187,"x_max":670,"o":"m 288 355 l 288 0 l 187 0 l 187 1010 l 288 1010 l 288 444 l 342 444 l 547 758 l 670 758 l 419 403 l 668 0 l 552 0 l 342 355 l 288 355 m 245 -379 l 347 -126 l 501 -126 l 340 -379 l 245 -379 z "},"l":{"ha":788,"x_min":131,"x_max":655,"o":"m 131 0 l 131 96 l 342 96 l 342 914 l 131 914 l 131 1010 l 443 1010 l 443 96 l 655 96 l 655 0 l 131 0 z "},"ĺ":{"ha":788,"x_min":131,"x_max":655,"o":"m 131 0 l 131 96 l 342 96 l 342 914 l 131 914 l 131 1010 l 443 1010 l 443 96 l 655 96 l 655 0 l 131 0 m 293 1136 l 437 1389 l 591 1389 l 386 1136 l 293 1136 z "},"ļ":{"ha":788,"x_min":131,"x_max":655,"o":"m 131 0 l 131 96 l 342 96 l 342 914 l 131 914 l 131 1010 l 443 1010 l 443 96 l 655 96 l 655 0 l 131 0 m 227 -379 l 330 -126 l 484 -126 l 322 -379 l 227 -379 z "},"ľ":{"ha":788,"x_min":131,"x_max":783,"o":"m 131 0 l 131 96 l 342 96 l 342 914 l 131 914 l 131 1010 l 443 1010 l 443 96 l 655 96 l 655 0 l 131 0 m 547 890 l 633 1263 l 783 1263 l 620 890 l 547 890 z "},"m":{"ha":788,"x_min":91,"x_max":697,"o":"m 184 552 l 184 0 l 91 0 l 91 758 l 186 758 l 186 667 l 206 667 q 256 745 225 717 q 326 773 288 773 q 395 745 367 773 q 434 667 422 717 l 457 667 q 509 745 476 717 q 585 773 543 773 q 667 724 638 773 q 697 588 697 676 l 697 0 l 604 0 l 604 577 q 590 658 604 630 q 552 686 576 686 q 499 652 528 686 q 442 552 471 617 l 442 0 l 346 0 l 346 577 q 333 658 346 631 q 295 686 319 686 q 243 652 271 686 q 184 552 215 619 z "},"n":{"ha":788,"x_min":133,"x_max":655,"o":"m 133 0 l 133 758 l 232 758 l 232 652 l 265 652 q 343 738 293 706 q 452 770 394 770 q 601 703 547 770 q 655 519 655 636 l 655 0 l 556 0 l 556 500 q 523 628 556 585 q 429 670 491 670 q 326 638 375 670 q 232 540 277 605 l 232 0 l 133 0 z "},"ñ":{"ha":788,"x_min":133,"x_max":655,"o":"m 133 0 l 133 758 l 232 758 l 232 652 l 265 652 q 343 738 293 706 q 452 770 394 770 q 601 703 547 770 q 655 519 655 636 l 655 0 l 556 0 l 556 500 q 523 628 556 585 q 429 670 491 670 q 326 638 375 670 q 232 540 277 605 l 232 0 l 133 0 m 497 896 q 432 921 457 896 q 390 973 408 946 q 359 1025 374 1001 q 323 1049 343 1049 q 287 1019 299 1049 q 275 920 274 989 l 275 909 l 196 909 l 196 928 q 231 1080 196 1019 q 333 1141 266 1141 q 403 1117 378 1141 q 446 1066 429 1092 q 475 1014 462 1038 q 508 990 489 990 q 544 1020 530 990 q 557 1117 557 1049 l 557 1130 l 635 1130 l 635 1111 q 600 957 635 1018 q 497 896 564 896 z "},"ń":{"ha":788,"x_min":133,"x_max":655,"o":"m 133 0 l 133 758 l 232 758 l 232 652 l 265 652 q 343 738 293 706 q 452 770 394 770 q 601 703 547 770 q 655 519 655 636 l 655 0 l 556 0 l 556 500 q 523 628 556 585 q 429 670 491 670 q 326 638 375 670 q 232 540 277 605 l 232 0 l 133 0 m 297 884 l 441 1136 l 595 1136 l 390 884 l 297 884 z "},"ņ":{"ha":788,"x_min":133,"x_max":655,"o":"m 254 -379 l 356 -126 l 510 -126 l 348 -379 l 254 -379 m 133 0 l 133 758 l 232 758 l 232 652 l 265 652 q 343 738 293 706 q 452 770 394 770 q 601 703 547 770 q 655 519 655 636 l 655 0 l 556 0 l 556 500 q 523 628 556 585 q 429 670 491 670 q 326 638 375 670 q 232 540 277 605 l 232 0 l 133 0 z "},"ň":{"ha":788,"x_min":133,"x_max":655,"o":"m 133 0 l 133 758 l 232 758 l 232 652 l 265 652 q 343 738 293 706 q 452 770 394 770 q 601 703 547 770 q 655 519 655 636 l 655 0 l 556 0 l 556 500 q 523 628 556 585 q 429 670 491 670 q 326 638 375 670 q 232 540 277 605 l 232 0 l 133 0 m 380 889 l 186 1073 l 235 1136 l 417 997 l 597 1136 l 645 1073 l 452 889 l 380 889 z "},"o":{"ha":788,"x_min":133,"x_max":655,"o":"m 394 -13 q 200 57 268 -13 q 133 258 133 128 l 133 495 q 201 699 133 628 q 395 770 269 770 q 588 699 520 770 q 655 497 655 629 l 655 259 q 588 57 655 128 q 394 -13 520 -13 m 394 83 q 515 124 475 83 q 556 254 556 164 l 556 497 q 515 631 556 588 q 394 674 475 674 q 273 631 313 674 q 232 497 232 588 l 232 253 q 273 124 232 164 q 394 83 313 83 z "},"ò":{"ha":788,"x_min":133,"x_max":655,"o":"m 394 -13 q 200 57 268 -13 q 133 258 133 128 l 133 495 q 201 699 133 628 q 395 770 269 770 q 588 699 520 770 q 655 497 655 629 l 655 259 q 588 57 655 128 q 394 -13 520 -13 m 394 83 q 515 124 475 83 q 556 254 556 164 l 556 497 q 515 631 556 588 q 394 674 475 674 q 273 631 313 674 q 232 497 232 588 l 232 253 q 273 124 232 164 q 394 83 313 83 m 396 884 l 192 1136 l 345 1136 l 490 884 l 396 884 z "},"ó":{"ha":788,"x_min":133,"x_max":655,"o":"m 394 -13 q 200 57 268 -13 q 133 258 133 128 l 133 495 q 201 699 133 628 q 395 770 269 770 q 588 699 520 770 q 655 497 655 629 l 655 259 q 588 57 655 128 q 394 -13 520 -13 m 394 83 q 515 124 475 83 q 556 254 556 164 l 556 497 q 515 631 556 588 q 394 674 475 674 q 273 631 313 674 q 232 497 232 588 l 232 253 q 273 124 232 164 q 394 83 313 83 m 275 884 l 419 1136 l 573 1136 l 369 884 l 275 884 z "},"ô":{"ha":788,"x_min":133,"x_max":655,"o":"m 394 -13 q 200 57 268 -13 q 133 258 133 128 l 133 495 q 201 699 133 628 q 395 770 269 770 q 588 699 520 770 q 655 497 655 629 l 655 259 q 588 57 655 128 q 394 -13 520 -13 m 394 83 q 515 124 475 83 q 556 254 556 164 l 556 497 q 515 631 556 588 q 394 674 475 674 q 273 631 313 674 q 232 497 232 588 l 232 253 q 273 124 232 164 q 394 83 313 83 m 212 907 l 164 970 l 357 1154 l 429 1154 l 624 970 l 574 905 l 393 1047 l 212 907 z "},"õ":{"ha":788,"x_min":133,"x_max":655,"o":"m 394 -13 q 200 57 268 -13 q 133 258 133 128 l 133 495 q 201 699 133 628 q 395 770 269 770 q 588 699 520 770 q 655 497 655 629 l 655 259 q 588 57 655 128 q 394 -13 520 -13 m 394 83 q 515 124 475 83 q 556 254 556 164 l 556 497 q 515 631 556 588 q 394 674 475 674 q 273 631 313 674 q 232 497 232 588 l 232 253 q 273 124 232 164 q 394 83 313 83 m 476 896 q 411 921 436 896 q 369 973 386 946 q 337 1025 352 1001 q 302 1049 322 1049 q 265 1019 278 1049 q 254 920 253 989 l 254 909 l 174 909 l 174 928 q 210 1080 174 1019 q 312 1141 245 1141 q 382 1117 356 1141 q 424 1066 408 1092 q 454 1014 441 1038 q 486 990 467 990 q 522 1020 509 990 q 535 1117 535 1049 l 535 1130 l 614 1130 l 614 1111 q 578 957 614 1018 q 476 896 543 896 z "},"ö":{"ha":788,"x_min":133,"x_max":655,"o":"m 394 -13 q 200 57 268 -13 q 133 258 133 128 l 133 495 q 201 699 133 628 q 395 770 269 770 q 588 699 520 770 q 655 497 655 629 l 655 259 q 588 57 655 128 q 394 -13 520 -13 m 394 83 q 515 124 475 83 q 556 254 556 164 l 556 497 q 515 631 556 588 q 394 674 475 674 q 273 631 313 674 q 232 497 232 588 l 232 253 q 273 124 232 164 q 394 83 313 83 m 273 904 q 224 917 242 904 q 206 968 206 931 l 206 975 q 224 1028 206 1014 q 273 1042 242 1042 q 322 1028 304 1042 q 340 975 340 1014 l 340 968 q 321 917 340 931 q 273 904 303 904 m 515 904 q 466 917 484 904 q 448 968 448 931 l 448 975 q 466 1028 448 1014 q 515 1042 484 1042 q 563 1028 544 1042 q 582 975 582 1014 l 582 968 q 563 917 582 931 q 515 904 544 904 z "},"ō":{"ha":788,"x_min":133,"x_max":655,"o":"m 394 -13 q 200 57 268 -13 q 133 258 133 128 l 133 495 q 201 699 133 628 q 395 770 269 770 q 588 699 520 770 q 655 497 655 629 l 655 259 q 588 57 655 128 q 394 -13 520 -13 m 394 83 q 515 124 475 83 q 556 254 556 164 l 556 497 q 515 631 556 588 q 394 674 475 674 q 273 631 313 674 q 232 497 232 588 l 232 253 q 273 124 232 164 q 394 83 313 83 m 184 965 l 184 1056 l 604 1056 l 604 965 l 184 965 z "},"ŏ":{"ha":788,"x_min":133,"x_max":655,"o":"m 394 -13 q 200 57 268 -13 q 133 258 133 128 l 133 495 q 201 699 133 628 q 395 770 269 770 q 588 699 520 770 q 655 497 655 629 l 655 259 q 588 57 655 128 q 394 -13 520 -13 m 394 83 q 515 124 475 83 q 556 254 556 164 l 556 497 q 515 631 556 588 q 394 674 475 674 q 273 631 313 674 q 232 497 232 588 l 232 253 q 273 124 232 164 q 394 83 313 83 m 394 875 q 218 936 284 875 q 150 1129 152 997 l 254 1129 q 290 999 255 1038 q 394 961 324 961 q 498 999 463 961 q 534 1129 533 1038 l 638 1129 q 570 936 636 997 q 394 875 504 875 z "},"ő":{"ha":788,"x_min":133,"x_max":658,"o":"m 394 -13 q 200 57 268 -13 q 133 258 133 128 l 133 495 q 201 699 133 628 q 395 770 269 770 q 588 699 520 770 q 655 497 655 629 l 655 259 q 588 57 655 128 q 394 -13 520 -13 m 394 83 q 515 124 475 83 q 556 254 556 164 l 556 497 q 515 631 556 588 q 394 674 475 674 q 273 631 313 674 q 232 497 232 588 l 232 253 q 273 124 232 164 q 394 83 313 83 m 453 884 l 513 1136 l 658 1136 l 527 884 l 453 884 m 211 884 l 270 1136 l 415 1136 l 284 884 l 211 884 z "},"p":{"ha":788,"x_min":133,"x_max":655,"o":"m 384 78 q 513 124 471 78 q 556 263 556 170 l 556 501 q 523 629 556 587 q 426 670 491 670 q 322 637 369 670 q 232 534 275 604 l 232 131 q 302 92 265 105 q 384 78 340 78 m 383 -14 q 307 -4 347 -14 q 232 24 268 6 l 232 -253 l 133 -253 l 133 758 l 232 758 l 232 652 l 265 652 q 337 738 288 706 q 451 770 386 770 q 601 694 547 770 q 655 486 655 617 l 655 260 q 583 59 655 133 q 383 -14 510 -14 z "},"q":{"ha":788,"x_min":133,"x_max":655,"o":"m 556 -253 l 556 106 l 523 106 q 446 18 495 48 q 338 -13 396 -13 q 186 61 240 -13 q 133 269 133 134 l 133 497 q 207 699 133 626 q 403 771 282 771 q 537 753 472 771 q 655 702 602 735 l 655 -253 l 556 -253 m 362 87 q 467 121 419 87 q 556 223 514 155 l 556 635 q 485 669 523 658 q 404 679 447 679 q 279 633 326 679 q 232 495 232 586 l 232 271 q 265 133 232 179 q 362 87 297 87 z "},"r":{"ha":788,"x_min":186,"x_max":664,"o":"m 186 0 l 186 758 l 287 758 l 287 645 l 319 645 q 385 741 340 711 q 495 770 431 770 q 615 717 566 770 q 664 566 664 664 l 664 451 l 564 451 l 564 528 q 539 635 564 600 q 455 670 513 670 q 362 640 404 670 q 287 552 321 610 l 287 0 l 186 0 z "},"ŕ":{"ha":788,"x_min":186,"x_max":664,"o":"m 186 0 l 186 758 l 287 758 l 287 645 l 319 645 q 385 741 340 711 q 495 770 431 770 q 615 717 566 770 q 664 566 664 664 l 664 451 l 564 451 l 564 528 q 539 635 564 600 q 455 670 513 670 q 362 640 404 670 q 287 552 321 610 l 287 0 l 186 0 m 318 884 l 462 1136 l 616 1136 l 412 884 l 318 884 z "},"ŗ":{"ha":788,"x_min":105,"x_max":664,"o":"m 186 0 l 186 758 l 287 758 l 287 645 l 319 645 q 385 741 340 711 q 495 770 431 770 q 615 717 566 770 q 664 566 664 664 l 664 451 l 564 451 l 564 528 q 539 635 564 600 q 455 670 513 670 q 362 640 404 670 q 287 552 321 610 l 287 0 l 186 0 m 105 -379 l 207 -126 l 361 -126 l 199 -379 l 105 -379 z "},"ř":{"ha":788,"x_min":186,"x_max":667,"o":"m 186 0 l 186 758 l 287 758 l 287 645 l 319 645 q 385 741 340 711 q 495 770 431 770 q 615 717 566 770 q 664 566 664 664 l 664 451 l 564 451 l 564 528 q 539 635 564 600 q 455 670 513 670 q 362 640 404 670 q 287 552 321 610 l 287 0 l 186 0 m 402 889 l 207 1073 l 256 1136 l 438 997 l 619 1136 l 667 1073 l 473 889 l 402 889 z "},"s":{"ha":788,"x_min":114,"x_max":667,"o":"m 409 -14 q 252 11 330 -14 q 114 90 174 37 l 160 174 q 277 109 211 134 q 410 85 342 85 q 523 109 479 85 q 567 196 567 134 q 525 284 567 259 q 376 331 484 309 q 192 406 249 355 q 135 552 135 457 q 202 714 135 658 q 372 770 269 770 q 518 742 446 770 q 646 663 591 713 l 600 576 q 494 643 553 615 q 370 672 434 672 q 271 646 308 672 q 235 558 235 620 q 276 469 235 495 q 423 423 317 443 q 609 347 551 399 q 667 205 667 294 q 593 40 667 95 q 409 -14 519 -14 z "},"":{"ha":788,"x_min":114,"x_max":667,"o":"m 409 -14 q 252 11 330 -14 q 114 90 174 37 l 160 174 q 277 109 211 134 q 410 85 342 85 q 523 109 479 85 q 567 196 567 134 q 525 284 567 259 q 376 331 484 309 q 192 406 249 355 q 135 552 135 457 q 202 714 135 658 q 372 770 269 770 q 518 742 446 770 q 646 663 591 713 l 600 576 q 494 643 553 615 q 370 672 434 672 q 271 646 308 672 q 235 558 235 620 q 276 469 235 495 q 423 423 317 443 q 609 347 551 399 q 667 205 667 294 q 593 40 667 95 q 409 -14 519 -14 z "},"ś":{"ha":788,"x_min":114,"x_max":667,"o":"m 409 -14 q 252 11 330 -14 q 114 90 174 37 l 160 174 q 277 109 211 134 q 410 85 342 85 q 523 109 479 85 q 567 196 567 134 q 525 284 567 259 q 376 331 484 309 q 192 406 249 355 q 135 552 135 457 q 202 714 135 658 q 372 770 269 770 q 518 742 446 770 q 646 663 591 713 l 600 576 q 494 643 553 615 q 370 672 434 672 q 271 646 308 672 q 235 558 235 620 q 276 469 235 495 q 423 423 317 443 q 609 347 551 399 q 667 205 667 294 q 593 40 667 95 q 409 -14 519 -14 m 273 884 l 417 1136 l 571 1136 l 366 884 l 273 884 z "},"ŝ":{"ha":788,"x_min":114,"x_max":667,"o":"m 409 -14 q 252 11 330 -14 q 114 90 174 37 l 160 174 q 277 109 211 134 q 410 85 342 85 q 523 109 479 85 q 567 196 567 134 q 525 284 567 259 q 376 331 484 309 q 192 406 249 355 q 135 552 135 457 q 202 714 135 658 q 372 770 269 770 q 518 742 446 770 q 646 663 591 713 l 600 576 q 494 643 553 615 q 370 672 434 672 q 271 646 308 672 q 235 558 235 620 q 276 469 235 495 q 423 423 317 443 q 609 347 551 399 q 667 205 667 294 q 593 40 667 95 q 409 -14 519 -14 m 210 907 l 162 970 l 355 1154 l 427 1154 l 621 970 l 572 905 l 390 1047 l 210 907 z "},"ş":{"ha":788,"x_min":114,"x_max":667,"o":"m 409 -14 q 252 11 330 -14 q 114 90 174 37 l 160 174 q 277 109 211 134 q 410 85 342 85 q 523 109 479 85 q 567 196 567 134 q 525 284 567 259 q 376 331 484 309 q 192 406 249 355 q 135 552 135 457 q 202 714 135 658 q 372 770 269 770 q 518 742 446 770 q 646 663 591 713 l 600 576 q 494 643 553 615 q 370 672 434 672 q 271 646 308 672 q 235 558 235 620 q 276 469 235 495 q 423 423 317 443 q 609 347 551 399 q 667 205 667 294 q 593 40 667 95 q 409 -14 519 -14 m 360 0 l 380 53 q 472 -1 436 40 q 509 -115 509 -43 q 461 -232 509 -194 q 357 -269 413 -269 q 247 -242 290 -269 q 199 -146 205 -215 l 289 -134 q 305 -167 290 -158 q 352 -177 319 -177 q 400 -160 384 -177 q 417 -101 417 -144 q 404 -32 417 -54 q 360 0 391 -10 z "},"š":{"ha":788,"x_min":114,"x_max":667,"o":"m 409 -14 q 252 11 330 -14 q 114 90 174 37 l 160 174 q 277 109 211 134 q 410 85 342 85 q 523 109 479 85 q 567 196 567 134 q 525 284 567 259 q 376 331 484 309 q 192 406 249 355 q 135 552 135 457 q 202 714 135 658 q 372 770 269 770 q 518 742 446 770 q 646 663 591 713 l 600 576 q 494 643 553 615 q 370 672 434 672 q 271 646 308 672 q 235 558 235 620 q 276 469 235 495 q 423 423 317 443 q 609 347 551 399 q 667 205 667 294 q 593 40 667 95 q 409 -14 519 -14 m 356 889 l 162 1073 l 211 1136 l 393 997 l 573 1136 l 621 1073 l 428 889 l 356 889 z "},"ș":{"ha":788,"x_min":114,"x_max":667,"o":"m 409 -14 q 252 11 330 -14 q 114 90 174 37 l 160 174 q 277 109 211 134 q 410 85 342 85 q 523 109 479 85 q 567 196 567 134 q 525 284 567 259 q 376 331 484 309 q 192 406 249 355 q 135 552 135 457 q 202 714 135 658 q 372 770 269 770 q 518 742 446 770 q 646 663 591 713 l 600 576 q 494 643 553 615 q 370 672 434 672 q 271 646 308 672 q 235 558 235 620 q 276 469 235 495 q 423 423 317 443 q 609 347 551 399 q 667 205 667 294 q 593 40 667 95 q 409 -14 519 -14 m 232 -379 l 335 -126 l 489 -126 l 327 -379 l 232 -379 z "},"t":{"ha":788,"x_min":106,"x_max":673,"o":"m 513 -11 q 346 52 405 -11 q 287 229 287 115 l 287 662 l 106 662 l 106 758 l 287 758 l 287 1010 l 386 1010 l 386 758 l 663 758 l 663 662 l 386 662 l 386 242 q 417 129 386 167 q 509 91 447 91 q 584 97 548 91 q 652 116 620 104 l 673 18 q 598 -3 641 6 q 513 -11 556 -11 z "},"ţ":{"ha":788,"x_min":106,"x_max":673,"o":"m 513 -11 q 346 52 405 -11 q 287 229 287 115 l 287 662 l 106 662 l 106 758 l 287 758 l 287 1010 l 386 1010 l 386 758 l 663 758 l 663 662 l 386 662 l 386 242 q 417 129 386 167 q 509 91 447 91 q 584 97 548 91 q 652 116 620 104 l 673 18 q 598 -3 641 6 q 513 -11 556 -11 m 432 0 l 452 53 q 544 -1 508 40 q 581 -115 581 -43 q 533 -232 581 -194 q 429 -269 485 -269 q 319 -242 362 -269 q 271 -146 277 -215 l 361 -134 q 377 -167 362 -158 q 424 -177 391 -177 q 472 -160 456 -177 q 489 -101 489 -144 q 476 -32 489 -54 q 432 0 463 -10 z "},"ť":{"ha":788,"x_min":106,"x_max":718,"o":"m 513 -11 q 346 52 405 -11 q 287 229 287 115 l 287 662 l 106 662 l 106 758 l 287 758 l 287 1010 l 386 1010 l 386 758 l 663 758 l 663 662 l 386 662 l 386 242 q 417 129 386 167 q 509 91 447 91 q 584 97 548 91 q 652 116 620 104 l 673 18 q 598 -3 641 6 q 513 -11 556 -11 m 482 890 l 568 1263 l 718 1263 l 556 890 l 482 890 z "},"ț":{"ha":788,"x_min":106,"x_max":673,"o":"m 513 -11 q 346 52 405 -11 q 287 229 287 115 l 287 662 l 106 662 l 106 758 l 287 758 l 287 1010 l 386 1010 l 386 758 l 663 758 l 663 662 l 386 662 l 386 242 q 417 129 386 167 q 509 91 447 91 q 584 97 548 91 q 652 116 620 104 l 673 18 q 598 -3 641 6 q 513 -11 556 -11 m 253 -379 l 355 -126 l 509 -126 l 347 -379 l 253 -379 z "},"u":{"ha":788,"x_min":133,"x_max":655,"o":"m 338 -13 q 189 56 245 -13 q 133 239 133 125 l 133 758 l 232 758 l 232 250 q 265 129 232 170 q 360 87 297 87 q 463 118 413 87 q 556 210 513 149 l 556 758 l 655 758 l 655 0 l 556 0 l 556 106 l 523 106 q 453 21 504 54 q 338 -13 403 -13 z "},"ù":{"ha":788,"x_min":133,"x_max":655,"o":"m 338 -13 q 189 56 245 -13 q 133 239 133 125 l 133 758 l 232 758 l 232 250 q 265 129 232 170 q 360 87 297 87 q 463 118 413 87 q 556 210 513 149 l 556 758 l 655 758 l 655 0 l 556 0 l 556 106 l 523 106 q 453 21 504 54 q 338 -13 403 -13 m 362 884 l 158 1136 l 311 1136 l 456 884 l 362 884 z "},"ú":{"ha":788,"x_min":133,"x_max":655,"o":"m 338 -13 q 189 56 245 -13 q 133 239 133 125 l 133 758 l 232 758 l 232 250 q 265 129 232 170 q 360 87 297 87 q 463 118 413 87 q 556 210 513 149 l 556 758 l 655 758 l 655 0 l 556 0 l 556 106 l 523 106 q 453 21 504 54 q 338 -13 403 -13 m 317 884 l 461 1136 l 615 1136 l 410 884 l 317 884 z "},"û":{"ha":788,"x_min":133,"x_max":655,"o":"m 338 -13 q 189 56 245 -13 q 133 239 133 125 l 133 758 l 232 758 l 232 250 q 265 129 232 170 q 360 87 297 87 q 463 118 413 87 q 556 210 513 149 l 556 758 l 655 758 l 655 0 l 556 0 l 556 106 l 523 106 q 453 21 504 54 q 338 -13 403 -13 m 212 907 l 164 970 l 357 1154 l 429 1154 l 624 970 l 574 905 l 393 1047 l 212 907 z "},"ü":{"ha":788,"x_min":133,"x_max":655,"o":"m 338 -13 q 189 56 245 -13 q 133 239 133 125 l 133 758 l 232 758 l 232 250 q 265 129 232 170 q 360 87 297 87 q 463 118 413 87 q 556 210 513 149 l 556 758 l 655 758 l 655 0 l 556 0 l 556 106 l 523 106 q 453 21 504 54 q 338 -13 403 -13 m 273 904 q 224 917 242 904 q 206 968 206 931 l 206 975 q 224 1028 206 1014 q 273 1042 242 1042 q 322 1028 304 1042 q 340 975 340 1014 l 340 968 q 321 917 340 931 q 273 904 303 904 m 515 904 q 466 917 484 904 q 448 968 448 931 l 448 975 q 466 1028 448 1014 q 515 1042 484 1042 q 563 1028 544 1042 q 582 975 582 1014 l 582 968 q 563 917 582 931 q 515 904 544 904 z "},"ũ":{"ha":788,"x_min":133,"x_max":655,"o":"m 338 -13 q 189 56 245 -13 q 133 239 133 125 l 133 758 l 232 758 l 232 250 q 265 129 232 170 q 360 87 297 87 q 463 118 413 87 q 556 210 513 149 l 556 758 l 655 758 l 655 0 l 556 0 l 556 106 l 523 106 q 453 21 504 54 q 338 -13 403 -13 m 476 896 q 411 921 436 896 q 369 973 386 946 q 337 1025 352 1001 q 302 1049 322 1049 q 265 1019 278 1049 q 254 920 253 989 l 254 909 l 174 909 l 174 928 q 210 1080 174 1019 q 312 1141 245 1141 q 382 1117 356 1141 q 424 1066 408 1092 q 454 1014 441 1038 q 486 990 467 990 q 522 1020 509 990 q 535 1117 535 1049 l 535 1130 l 614 1130 l 614 1111 q 578 957 614 1018 q 476 896 543 896 z "},"ū":{"ha":788,"x_min":133,"x_max":655,"o":"m 338 -13 q 189 56 245 -13 q 133 239 133 125 l 133 758 l 232 758 l 232 250 q 265 129 232 170 q 360 87 297 87 q 463 118 413 87 q 556 210 513 149 l 556 758 l 655 758 l 655 0 l 556 0 l 556 106 l 523 106 q 453 21 504 54 q 338 -13 403 -13 m 184 965 l 184 1056 l 604 1056 l 604 965 l 184 965 z "},"ŭ":{"ha":788,"x_min":133,"x_max":655,"o":"m 338 -13 q 189 56 245 -13 q 133 239 133 125 l 133 758 l 232 758 l 232 250 q 265 129 232 170 q 360 87 297 87 q 463 118 413 87 q 556 210 513 149 l 556 758 l 655 758 l 655 0 l 556 0 l 556 106 l 523 106 q 453 21 504 54 q 338 -13 403 -13 m 394 875 q 218 936 284 875 q 150 1129 152 997 l 254 1129 q 290 999 255 1038 q 394 961 324 961 q 498 999 463 961 q 534 1129 533 1038 l 638 1129 q 570 936 636 997 q 394 875 504 875 z "},"ů":{"ha":788,"x_min":133,"x_max":655,"o":"m 338 -13 q 189 56 245 -13 q 133 239 133 125 l 133 758 l 232 758 l 232 250 q 265 129 232 170 q 360 87 297 87 q 463 118 413 87 q 556 210 513 149 l 556 758 l 655 758 l 655 0 l 556 0 l 556 106 l 523 106 q 453 21 504 54 q 338 -13 403 -13 m 394 869 q 273 913 319 869 q 227 1048 227 957 l 227 1088 q 273 1226 227 1181 q 394 1271 319 1271 q 515 1226 470 1271 q 561 1088 561 1181 l 561 1048 q 515 913 561 957 q 394 869 468 869 m 394 951 q 459 973 437 951 q 481 1048 481 995 l 481 1088 q 459 1165 481 1140 q 394 1189 437 1189 q 329 1165 351 1189 q 307 1088 307 1140 l 307 1048 q 329 973 307 995 q 394 951 351 951 z "},"ű":{"ha":788,"x_min":133,"x_max":681,"o":"m 338 -13 q 189 56 245 -13 q 133 239 133 125 l 133 758 l 232 758 l 232 250 q 265 129 232 170 q 360 87 297 87 q 463 118 413 87 q 556 210 513 149 l 556 758 l 655 758 l 655 0 l 556 0 l 556 106 l 523 106 q 453 21 504 54 q 338 -13 403 -13 m 476 884 l 535 1136 l 681 1136 l 549 884 l 476 884 m 234 884 l 293 1136 l 438 1136 l 307 884 l 234 884 z "},"ų":{"ha":788,"x_min":133,"x_max":742,"o":"m 638 -269 q 527 -229 572 -269 q 481 -121 481 -189 q 521 -20 481 -66 q 609 48 562 25 l 636 29 q 586 -33 598 1 q 573 -91 573 -67 q 593 -146 573 -126 q 649 -165 614 -165 q 697 -161 668 -165 q 742 -153 726 -157 l 742 -256 q 692 -265 722 -261 q 638 -269 662 -269 m 338 -13 q 189 56 245 -13 q 133 239 133 125 l 133 758 l 232 758 l 232 250 q 265 129 232 170 q 360 87 297 87 q 463 118 413 87 q 556 210 513 149 l 556 758 l 655 758 l 655 0 l 556 0 l 556 106 l 523 106 q 453 21 504 54 q 338 -13 403 -13 z "},"v":{"ha":788,"x_min":105,"x_max":682,"o":"m 456 0 l 331 0 l 105 758 l 216 758 l 395 88 l 573 758 l 682 758 l 456 0 z "},"w":{"ha":788,"x_min":68,"x_max":720,"o":"m 487 0 l 394 520 l 304 0 l 187 0 l 68 758 l 165 758 l 247 76 l 330 635 l 455 635 l 545 92 l 622 758 l 720 758 l 601 0 l 487 0 z "},"":{"ha":788,"x_min":68,"x_max":720,"o":"m 487 0 l 394 520 l 304 0 l 187 0 l 68 758 l 165 758 l 247 76 l 330 635 l 455 635 l 545 92 l 622 758 l 720 758 l 601 0 l 487 0 z "},"ŵ":{"ha":788,"x_min":68,"x_max":720,"o":"m 487 0 l 394 520 l 304 0 l 187 0 l 68 758 l 165 758 l 247 76 l 330 635 l 455 635 l 545 92 l 622 758 l 720 758 l 601 0 l 487 0 m 212 907 l 164 970 l 357 1154 l 429 1154 l 624 970 l 574 905 l 393 1047 l 212 907 z "},"ẁ":{"ha":788,"x_min":68,"x_max":720,"o":"m 487 0 l 394 520 l 304 0 l 187 0 l 68 758 l 165 758 l 247 76 l 330 635 l 455 635 l 545 92 l 622 758 l 720 758 l 601 0 l 487 0 m 396 884 l 192 1136 l 345 1136 l 490 884 l 396 884 z "},"ẃ":{"ha":788,"x_min":68,"x_max":720,"o":"m 487 0 l 394 520 l 304 0 l 187 0 l 68 758 l 165 758 l 247 76 l 330 635 l 455 635 l 545 92 l 622 758 l 720 758 l 601 0 l 487 0 m 273 884 l 417 1136 l 571 1136 l 366 884 l 273 884 z "},"ẅ":{"ha":788,"x_min":68,"x_max":720,"o":"m 487 0 l 394 520 l 304 0 l 187 0 l 68 758 l 165 758 l 247 76 l 330 635 l 455 635 l 545 92 l 622 758 l 720 758 l 601 0 l 487 0 m 273 904 q 224 917 242 904 q 206 968 206 931 l 206 975 q 224 1028 206 1014 q 273 1042 242 1042 q 322 1028 304 1042 q 340 975 340 1014 l 340 968 q 321 917 340 931 q 273 904 303 904 m 515 904 q 466 917 484 904 q 448 968 448 931 l 448 975 q 466 1028 448 1014 q 515 1042 484 1042 q 563 1028 544 1042 q 582 975 582 1014 l 582 968 q 563 917 582 931 q 515 904 544 904 z "},"x":{"ha":788,"x_min":117,"x_max":672,"o":"m 553 0 l 388 295 l 230 0 l 117 0 l 337 380 l 124 758 l 239 758 l 398 471 l 559 758 l 672 758 l 448 385 l 667 0 l 553 0 z "},"y":{"ha":788,"x_min":106,"x_max":682,"o":"m 216 -258 q 164 -254 191 -258 q 109 -245 136 -250 l 128 -150 q 178 -160 155 -157 q 221 -163 201 -163 q 311 -130 277 -163 q 367 -27 345 -97 l 371 -14 l 332 -14 l 106 758 l 216 758 l 398 81 l 576 758 l 682 758 l 458 -34 q 357 -210 422 -163 q 216 -258 293 -258 z "},"":{"ha":788,"x_min":106,"x_max":682,"o":"m 216 -258 q 164 -254 191 -258 q 109 -245 136 -250 l 128 -150 q 178 -160 155 -157 q 221 -163 201 -163 q 311 -130 277 -163 q 367 -27 345 -97 l 371 -14 l 332 -14 l 106 758 l 216 758 l 398 81 l 576 758 l 682 758 l 458 -34 q 357 -210 422 -163 q 216 -258 293 -258 z "},"ý":{"ha":788,"x_min":106,"x_max":682,"o":"m 216 -258 q 164 -254 191 -258 q 109 -245 136 -250 l 128 -150 q 178 -160 155 -157 q 221 -163 201 -163 q 311 -130 277 -163 q 367 -27 345 -97 l 371 -14 l 332 -14 l 106 758 l 216 758 l 398 81 l 576 758 l 682 758 l 458 -34 q 357 -210 422 -163 q 216 -258 293 -258 m 273 884 l 417 1136 l 571 1136 l 366 884 l 273 884 z "},"ÿ":{"ha":788,"x_min":106,"x_max":682,"o":"m 216 -258 q 164 -254 191 -258 q 109 -245 136 -250 l 128 -150 q 178 -160 155 -157 q 221 -163 201 -163 q 311 -130 277 -163 q 367 -27 345 -97 l 371 -14 l 332 -14 l 106 758 l 216 758 l 398 81 l 576 758 l 682 758 l 458 -34 q 357 -210 422 -163 q 216 -258 293 -258 m 273 904 q 224 917 242 904 q 206 968 206 931 l 206 975 q 224 1028 206 1014 q 273 1042 242 1042 q 322 1028 304 1042 q 340 975 340 1014 l 340 968 q 321 917 340 931 q 273 904 303 904 m 515 904 q 466 917 484 904 q 448 968 448 931 l 448 975 q 466 1028 448 1014 q 515 1042 484 1042 q 563 1028 544 1042 q 582 975 582 1014 l 582 968 q 563 917 582 931 q 515 904 544 904 z "},"ŷ":{"ha":788,"x_min":106,"x_max":682,"o":"m 216 -258 q 164 -254 191 -258 q 109 -245 136 -250 l 128 -150 q 178 -160 155 -157 q 221 -163 201 -163 q 311 -130 277 -163 q 367 -27 345 -97 l 371 -14 l 332 -14 l 106 758 l 216 758 l 398 81 l 576 758 l 682 758 l 458 -34 q 357 -210 422 -163 q 216 -258 293 -258 m 212 907 l 164 970 l 357 1154 l 429 1154 l 624 970 l 574 905 l 393 1047 l 212 907 z "},"ỳ":{"ha":788,"x_min":106,"x_max":682,"o":"m 216 -258 q 164 -254 191 -258 q 109 -245 136 -250 l 128 -150 q 178 -160 155 -157 q 221 -163 201 -163 q 311 -130 277 -163 q 367 -27 345 -97 l 371 -14 l 332 -14 l 106 758 l 216 758 l 398 81 l 576 758 l 682 758 l 458 -34 q 357 -210 422 -163 q 216 -258 293 -258 m 396 884 l 192 1136 l 345 1136 l 490 884 l 396 884 z "},"z":{"ha":788,"x_min":154,"x_max":634,"o":"m 634 0 l 154 0 l 154 96 l 518 662 l 154 662 l 154 758 l 634 758 l 634 662 l 277 96 l 634 96 l 634 0 z "},"ź":{"ha":788,"x_min":154,"x_max":634,"o":"m 634 0 l 154 0 l 154 96 l 518 662 l 154 662 l 154 758 l 634 758 l 634 662 l 277 96 l 634 96 l 634 0 m 275 884 l 419 1136 l 573 1136 l 369 884 l 275 884 z "},"ż":{"ha":788,"x_min":154,"x_max":634,"o":"m 634 0 l 154 0 l 154 96 l 518 662 l 154 662 l 154 758 l 634 758 l 634 662 l 277 96 l 634 96 l 634 0 m 402 904 q 338 917 362 904 q 313 968 313 931 l 313 975 q 338 1028 313 1014 q 402 1042 362 1042 q 465 1028 441 1042 q 490 975 490 1014 l 490 968 q 465 917 490 931 q 402 904 441 904 z "},"ž":{"ha":788,"x_min":154,"x_max":634,"o":"m 634 0 l 154 0 l 154 96 l 518 662 l 154 662 l 154 758 l 634 758 l 634 662 l 277 96 l 634 96 l 634 0 m 357 889 l 163 1073 l 212 1136 l 394 997 l 574 1136 l 622 1073 l 429 889 l 357 889 z "},"ª":{"ha":788,"x_min":144,"x_max":654,"o":"m 331 503 q 407 524 371 503 q 468 598 443 545 l 468 668 l 323 668 q 258 650 284 668 q 231 588 231 633 q 254 524 231 545 q 331 503 277 503 m 311 419 q 190 461 236 419 q 144 585 144 503 q 189 700 144 657 q 297 744 235 744 l 468 744 l 468 831 q 442 910 468 876 q 360 943 415 943 q 276 924 304 943 q 231 835 247 905 l 155 860 q 217 979 169 936 q 357 1023 265 1023 q 497 978 441 1023 q 554 846 554 933 l 554 580 q 575 515 554 528 q 654 509 596 501 l 654 423 q 546 443 582 422 q 508 534 510 463 l 490 534 q 419 452 466 485 q 311 419 371 419 z "},"º":{"ha":788,"x_min":169,"x_max":617,"o":"m 394 419 q 229 475 288 419 q 169 640 169 530 l 169 795 q 229 965 169 907 q 394 1023 288 1023 q 559 965 500 1023 q 617 795 617 907 l 617 640 q 559 475 617 530 q 394 419 500 419 m 394 501 q 497 532 462 501 q 532 635 532 563 l 532 797 q 497 905 532 871 q 394 939 462 939 q 291 905 326 939 q 256 797 256 871 l 256 635 q 291 532 256 563 q 394 501 326 501 z "},"ß":{"ha":788,"x_min":78,"x_max":744,"o":"m 516 -8 q 378 24 442 -8 q 271 115 314 56 l 330 203 q 415 126 367 160 q 518 92 463 92 q 607 120 573 92 q 641 210 641 148 q 610 297 641 271 q 503 343 580 323 q 333 424 385 374 q 282 561 282 473 q 346 716 282 660 q 514 777 410 771 q 460 886 504 850 q 346 923 415 923 q 227 872 274 923 q 179 721 179 821 l 179 0 l 78 0 l 78 736 q 154 946 78 871 q 348 1020 230 1020 q 543 943 468 1020 q 617 741 617 865 l 617 694 q 444 665 504 694 q 384 567 384 636 q 421 490 384 511 q 549 444 458 468 q 698 367 653 419 q 744 217 744 314 q 677 49 744 105 q 516 -8 611 -8 z "},"æ":{"ha":788,"x_min":57,"x_max":732,"o":"m 732 179 q 679 34 722 81 q 548 -13 636 -13 q 444 16 486 -13 q 381 105 402 45 l 366 105 q 306 20 342 52 q 212 -13 270 -13 q 102 44 148 -13 q 57 206 57 101 q 107 358 57 302 q 221 414 157 414 l 352 414 l 352 533 q 327 645 352 601 q 251 689 302 689 q 188 666 207 689 q 150 562 169 643 l 71 592 q 129 727 86 683 q 256 770 173 770 q 339 749 303 770 q 396 688 375 729 q 456 750 420 730 q 538 770 492 770 q 678 710 625 770 q 731 521 731 649 l 731 361 l 433 361 l 433 229 q 458 101 433 138 q 537 64 484 64 q 610 88 590 64 q 640 183 631 111 l 732 179 m 433 524 l 433 431 l 639 431 l 639 511 q 613 648 639 605 q 537 692 587 692 q 460 650 486 692 q 433 524 433 609 m 352 179 l 352 345 l 250 345 q 178 316 207 345 q 149 211 149 287 q 168 105 149 143 q 232 67 187 67 q 298 98 270 67 q 352 179 326 129 z "},"ǽ":{"ha":788,"x_min":57,"x_max":732,"o":"m 732 179 q 679 34 722 81 q 548 -13 636 -13 q 444 16 486 -13 q 381 105 402 45 l 366 105 q 306 20 342 52 q 212 -13 270 -13 q 102 44 148 -13 q 57 206 57 101 q 107 358 57 302 q 221 414 157 414 l 352 414 l 352 533 q 327 645 352 601 q 251 689 302 689 q 188 666 207 689 q 150 562 169 643 l 71 592 q 129 727 86 683 q 256 770 173 770 q 339 749 303 770 q 396 688 375 729 q 456 750 420 730 q 538 770 492 770 q 678 710 625 770 q 731 521 731 649 l 731 361 l 433 361 l 433 229 q 458 101 433 138 q 537 64 484 64 q 610 88 590 64 q 640 183 631 111 l 732 179 m 433 524 l 433 431 l 639 431 l 639 511 q 613 648 639 605 q 537 692 587 692 q 460 650 486 692 q 433 524 433 609 m 352 179 l 352 345 l 250 345 q 178 316 207 345 q 149 211 149 287 q 168 105 149 143 q 232 67 187 67 q 298 98 270 67 q 352 179 326 129 m 327 884 l 471 1136 l 625 1136 l 420 884 l 327 884 z "},"ð":{"ha":788,"x_min":133,"x_max":713,"o":"m 394 -13 q 205 56 277 -13 q 133 264 133 125 l 133 383 q 199 564 133 497 q 372 631 266 631 q 481 604 438 631 q 540 538 524 576 l 564 538 q 544 683 559 619 q 497 798 528 747 l 292 686 l 292 779 l 446 864 q 361 926 410 899 q 250 972 312 952 l 273 1037 q 414 977 352 1011 q 519 902 476 943 l 713 1006 l 713 913 l 573 836 q 636 681 617 769 q 655 480 655 593 l 655 271 q 583 56 655 124 q 394 -13 511 -13 m 395 83 q 518 129 482 83 q 554 265 554 174 l 554 365 q 518 492 554 449 q 395 534 482 534 q 271 492 308 534 q 235 365 235 449 l 235 265 q 271 129 235 174 q 395 83 308 83 z "},"ø":{"ha":788,"x_min":130,"x_max":658,"o":"m 235 249 q 241 189 235 216 q 259 143 246 163 l 466 660 q 432 668 451 665 q 394 670 414 670 q 274 629 313 670 q 235 501 235 588 l 235 249 m 394 87 q 514 125 475 87 q 553 249 553 163 l 553 500 q 547 562 553 534 q 529 610 542 590 l 322 97 q 355 90 337 92 q 394 87 374 87 m 394 -13 q 341 -9 366 -13 q 292 3 316 -5 l 236 -126 l 130 -126 l 207 49 q 152 133 172 82 q 133 254 133 183 l 133 499 q 206 704 133 638 q 395 770 280 770 q 449 766 423 770 q 499 755 475 763 l 552 884 l 658 884 l 582 706 q 636 622 617 673 q 655 499 655 571 l 655 254 q 582 52 655 116 q 394 -13 509 -13 z "},"ǿ":{"ha":788,"x_min":130,"x_max":658,"o":"m 235 249 q 241 189 235 216 q 259 143 246 163 l 466 660 q 432 668 451 665 q 394 670 414 670 q 274 629 313 670 q 235 501 235 588 l 235 249 m 394 87 q 514 125 475 87 q 553 249 553 163 l 553 500 q 547 562 553 534 q 529 610 542 590 l 322 97 q 355 90 337 92 q 394 87 374 87 m 394 -13 q 341 -9 366 -13 q 292 3 316 -5 l 236 -126 l 130 -126 l 207 49 q 152 133 172 82 q 133 254 133 183 l 133 499 q 206 704 133 638 q 395 770 280 770 q 449 766 423 770 q 499 755 475 763 l 552 884 l 658 884 l 582 706 q 636 622 617 673 q 655 499 655 571 l 655 254 q 582 52 655 116 q 394 -13 509 -13 m 273 884 l 417 1136 l 571 1136 l 366 884 l 273 884 z "},"þ":{"ha":788,"x_min":133,"x_max":655,"o":"m 384 78 q 514 123 472 78 q 556 263 556 168 l 556 501 q 525 629 556 588 q 426 670 494 670 q 321 638 367 670 q 232 534 275 605 l 232 131 q 304 91 268 104 q 384 78 341 78 m 383 -14 q 306 -4 346 -14 q 232 24 266 6 l 232 -253 l 133 -253 l 133 1010 l 232 1010 l 232 652 l 265 652 q 338 739 289 708 q 451 770 386 770 q 602 696 548 770 q 655 486 655 621 l 655 260 q 583 57 655 129 q 383 -14 511 -14 z "},"đ":{"ha":788,"x_min":133,"x_max":761,"o":"m 362 87 q 467 121 418 87 q 556 223 515 155 l 556 569 q 485 609 523 596 q 404 622 447 622 q 278 576 319 622 q 236 439 236 530 l 236 273 q 267 133 236 179 q 362 87 298 87 m 523 106 q 449 18 499 48 q 338 -13 400 -13 q 187 61 241 -13 q 133 269 133 134 l 133 442 q 205 644 133 572 q 408 716 278 716 q 482 706 443 716 q 556 678 520 696 l 556 807 l 342 807 l 342 900 l 556 900 l 556 1010 l 655 1010 l 655 900 l 761 900 l 761 807 l 655 807 l 655 0 l 556 0 l 556 106 l 523 106 z "},"ħ":{"ha":788,"x_min":27,"x_max":655,"o":"m 232 481 l 232 0 l 133 0 l 133 807 l 27 807 l 27 900 l 133 900 l 133 1010 l 232 1010 l 232 900 l 446 900 l 446 807 l 232 807 l 232 586 l 265 586 q 340 680 287 645 q 461 715 393 715 q 603 654 551 715 q 655 491 655 593 l 655 0 l 556 0 l 556 472 q 524 579 556 544 q 428 614 492 614 q 327 581 375 614 q 232 481 279 549 z "},"ı":{"ha":788,"x_min":131,"x_max":657,"o":"m 131 0 l 131 96 l 343 96 l 343 662 l 131 662 l 131 758 l 444 758 l 444 96 l 657 96 l 657 0 l 131 0 z "},"ĳ":{"ha":788,"x_min":117,"x_max":691,"o":"m 206 904 q 142 917 167 904 q 117 968 117 931 l 117 975 q 142 1028 117 1014 q 206 1042 167 1042 q 269 1028 245 1042 q 293 975 293 1014 l 293 968 q 269 917 293 931 q 206 904 245 904 m 602 904 q 539 917 563 904 q 514 968 514 931 l 514 975 q 539 1028 514 1014 q 602 1042 563 1042 q 666 1028 641 1042 q 691 975 691 1014 l 691 968 q 666 917 691 931 q 602 904 641 904 m 256 0 l 154 0 l 154 758 l 256 758 l 256 0 m 423 -263 q 354 -256 388 -263 q 280 -235 319 -250 l 302 -125 q 364 -146 335 -140 q 422 -153 393 -153 q 518 -116 481 -153 q 554 6 554 -80 l 554 662 l 417 662 l 417 758 l 657 758 l 657 -9 q 589 -199 657 -136 q 423 -263 521 -263 z "},"ĸ":{"ha":788,"x_min":187,"x_max":670,"o":"m 288 355 l 288 0 l 187 0 l 187 758 l 288 758 l 288 444 l 342 444 l 547 758 l 670 758 l 419 403 l 668 0 l 552 0 l 342 355 l 288 355 z "},"ŀ":{"ha":788,"x_min":131,"x_max":818,"o":"m 131 0 l 131 96 l 342 96 l 342 914 l 131 914 l 131 1010 l 443 1010 l 443 96 l 655 96 l 655 0 l 131 0 m 730 388 q 666 401 691 388 q 641 452 641 414 l 641 458 q 666 511 641 497 q 730 525 691 525 q 794 511 769 525 q 818 458 818 497 l 818 452 q 794 401 818 414 q 730 388 769 388 z "},"ł":{"ha":788,"x_min":131,"x_max":655,"o":"m 131 0 l 131 96 l 342 96 l 342 453 l 184 403 l 184 489 l 342 539 l 342 914 l 131 914 l 131 1010 l 443 1010 l 443 572 l 605 624 l 605 538 l 443 486 l 443 96 l 655 96 l 655 0 l 131 0 z "},"ŉ":{"ha":788,"x_min":11,"x_max":655,"o":"m 133 0 l 133 758 l 232 758 l 232 652 l 265 652 q 343 738 293 706 q 452 770 394 770 q 601 703 547 770 q 655 519 655 636 l 655 0 l 556 0 l 556 500 q 523 628 556 585 q 429 670 491 670 q 326 638 375 670 q 232 540 277 605 l 232 0 l 133 0 m 11 884 l 155 1136 l 309 1136 l 105 884 l 11 884 z "},"ŋ":{"ha":788,"x_min":133,"x_max":655,"o":"m 444 -263 q 379 -255 413 -263 q 311 -235 346 -247 l 332 -125 q 390 -145 361 -138 q 442 -153 418 -153 q 524 -121 492 -153 q 556 -14 556 -90 l 556 510 q 524 630 556 590 q 429 670 492 670 q 326 638 375 670 q 232 540 278 606 l 232 0 l 133 0 l 133 758 l 232 758 l 232 652 l 265 652 q 344 738 293 706 q 457 770 395 770 q 602 706 549 770 q 655 532 655 641 l 655 -29 q 595 -205 655 -146 q 444 -263 535 -263 z "},"œ":{"ha":788,"x_min":57,"x_max":732,"o":"m 732 163 q 679 32 722 76 q 548 -13 636 -13 q 452 11 492 -13 q 390 82 412 34 q 328 11 366 34 q 240 -13 289 -13 q 107 56 158 -13 q 57 268 57 125 l 57 485 q 108 699 57 629 q 241 770 159 770 q 327 747 289 770 q 389 676 365 723 q 449 747 412 723 q 537 770 487 770 q 679 711 626 770 q 731 530 731 653 l 731 361 l 436 361 l 436 220 q 460 100 436 136 q 537 64 485 64 q 611 86 590 64 q 640 167 633 107 l 732 163 m 436 532 l 436 431 l 639 431 l 639 519 q 614 652 639 610 q 537 693 588 693 q 461 653 486 693 q 436 532 436 614 m 250 66 q 326 113 301 66 q 352 266 352 160 l 352 482 q 326 641 352 590 q 250 692 301 692 q 175 641 201 692 q 149 484 149 590 l 149 266 q 175 113 149 160 q 250 66 201 66 z "},"ŧ":{"ha":788,"x_min":106,"x_max":673,"o":"m 513 -11 q 346 52 405 -11 q 287 229 287 115 l 287 365 l 143 365 l 143 467 l 287 467 l 287 662 l 106 662 l 106 758 l 287 758 l 287 1010 l 386 1010 l 386 758 l 663 758 l 663 662 l 386 662 l 386 467 l 625 467 l 625 365 l 386 365 l 386 242 q 417 129 386 167 q 509 91 447 91 q 584 97 548 91 q 652 116 620 104 l 673 18 q 598 -3 641 6 q 513 -11 556 -11 z "},"ſ":{"ha":788,"x_min":217,"x_max":665,"o":"m 343 0 l 343 662 l 217 662 l 217 758 l 343 758 l 343 811 q 396 957 343 903 q 532 1011 448 1011 q 596 1002 558 1011 q 665 979 634 992 l 644 888 q 590 907 617 900 q 540 913 563 913 q 470 890 495 913 q 444 819 444 866 l 444 0 l 343 0 z "},"ȷ":{"ha":788,"x_min":134,"x_max":551,"o":"m 298 -263 q 220 -257 259 -263 q 134 -235 181 -251 l 155 -125 q 229 -147 194 -141 q 295 -153 263 -153 q 407 -116 364 -153 q 449 6 449 -80 l 449 662 l 153 662 l 153 758 l 551 758 l 551 -9 q 477 -201 551 -140 q 298 -263 403 -263 z "},"":{"ha":788,"x_min":134,"x_max":551,"o":"m 298 -263 q 220 -257 259 -263 q 134 -235 181 -251 l 155 -125 q 229 -147 194 -141 q 295 -153 263 -153 q 407 -116 364 -153 q 449 6 449 -80 l 449 662 l 153 662 l 153 758 l 551 758 l 551 -9 q 477 -201 551 -140 q 298 -263 403 -263 z "},"α":{"ha":788,"x_min":121,"x_max":732,"o":"m 341 87 q 436 121 393 87 q 523 226 480 154 l 523 530 q 437 636 481 602 q 341 669 393 669 q 254 622 283 669 q 225 482 225 574 l 225 277 q 254 134 225 182 q 341 87 283 87 m 542 115 l 511 115 q 435 19 486 51 q 317 -13 384 -13 q 174 60 227 -13 q 121 271 121 133 l 121 492 q 176 698 121 626 q 321 770 230 770 q 424 739 379 770 q 492 648 468 707 l 523 648 l 523 758 l 625 758 l 625 187 q 650 101 625 121 q 732 95 676 81 l 732 -6 q 597 12 645 -16 q 542 115 548 40 z "},"ά":{"ha":788,"x_min":121,"x_max":732,"o":"m 341 87 q 436 121 393 87 q 523 226 480 154 l 523 530 q 437 636 481 602 q 341 669 393 669 q 254 622 283 669 q 225 482 225 574 l 225 277 q 254 134 225 182 q 341 87 283 87 m 542 115 l 511 115 q 435 19 486 51 q 317 -13 384 -13 q 174 60 227 -13 q 121 271 121 133 l 121 492 q 176 698 121 626 q 321 770 230 770 q 424 739 379 770 q 492 648 468 707 l 523 648 l 523 758 l 625 758 l 625 187 q 650 101 625 121 q 732 95 676 81 l 732 -6 q 597 12 645 -16 q 542 115 548 40 m 375 884 l 456 1136 l 600 1136 l 458 884 l 375 884 z "},"β":{"ha":788,"x_min":133,"x_max":655,"o":"m 384 76 q 513 125 472 76 q 553 275 553 174 l 553 328 q 511 448 553 409 q 383 486 470 486 l 333 486 l 333 590 l 376 590 q 487 626 452 590 q 523 739 523 663 l 523 751 q 487 888 523 843 q 378 932 452 932 q 268 887 304 932 q 232 747 232 842 l 232 129 q 303 88 266 101 q 384 76 340 76 m 383 -13 q 305 -2 343 -13 q 232 27 266 9 l 232 -253 l 133 -253 l 133 740 q 199 951 133 880 q 378 1023 266 1023 q 556 956 490 1023 q 621 769 621 890 l 621 739 q 595 624 621 672 q 510 566 569 577 l 510 529 q 616 469 577 521 q 655 348 654 417 l 655 284 q 578 61 655 134 q 383 -13 500 -13 z "},"γ":{"ha":788,"x_min":106,"x_max":682,"o":"m 455 -253 l 333 -253 l 343 25 l 106 758 l 217 758 l 398 174 l 576 758 l 682 758 l 444 25 l 455 -253 z "},"δ":{"ha":788,"x_min":130,"x_max":658,"o":"m 394 -13 q 203 56 277 -13 q 130 268 130 125 l 130 400 q 175 539 130 484 q 285 624 220 595 q 191 701 220 659 q 163 809 163 742 q 220 963 163 915 q 390 1010 277 1010 l 585 1010 l 585 914 l 388 914 q 288 895 319 914 q 256 818 256 876 q 287 742 256 769 q 436 674 318 716 q 611 571 564 626 q 658 417 658 515 l 658 268 q 585 56 658 125 q 394 -13 511 -13 m 394 83 q 516 126 475 83 q 557 268 557 169 l 557 417 q 510 525 557 485 q 350 597 463 564 q 265 525 298 573 q 232 396 232 476 l 232 268 q 273 126 232 169 q 394 83 313 83 z "},"ε":{"ha":788,"x_min":111,"x_max":676,"o":"m 398 -13 q 181 43 251 -13 q 111 215 111 98 l 111 223 q 152 340 111 290 q 275 395 193 389 l 275 423 q 169 463 208 428 q 130 557 130 497 l 130 571 q 195 721 130 672 q 398 770 260 770 q 585 718 523 770 q 657 551 648 665 l 556 540 q 513 645 548 617 q 398 672 477 672 q 269 648 307 672 q 231 567 231 625 l 231 549 q 267 482 231 503 q 389 462 303 462 l 447 462 l 447 367 l 389 367 q 253 338 294 367 q 212 234 212 308 l 212 221 q 254 114 212 145 q 398 83 297 83 q 527 114 486 83 q 576 231 567 144 l 676 222 q 602 40 667 93 q 398 -13 537 -13 z "},"έ":{"ha":788,"x_min":111,"x_max":676,"o":"m 398 -13 q 181 43 251 -13 q 111 215 111 98 l 111 223 q 152 340 111 290 q 275 395 193 389 l 275 423 q 169 463 208 428 q 130 557 130 497 l 130 571 q 195 721 130 672 q 398 770 260 770 q 585 718 523 770 q 657 551 648 665 l 556 540 q 513 645 548 617 q 398 672 477 672 q 269 648 307 672 q 231 567 231 625 l 231 549 q 267 482 231 503 q 389 462 303 462 l 447 462 l 447 367 l 389 367 q 253 338 294 367 q 212 234 212 308 l 212 221 q 254 114 212 145 q 398 83 297 83 q 527 114 486 83 q 576 231 567 144 l 676 222 q 602 40 667 93 q 398 -13 537 -13 m 317 884 l 398 1136 l 542 1136 l 400 884 l 317 884 z "},"ζ":{"ha":788,"x_min":109,"x_max":688,"o":"m 457 -253 l 341 -253 l 341 -153 l 473 -153 q 536 -136 513 -153 q 559 -68 559 -120 q 536 -1 559 -18 q 473 16 513 16 l 383 16 q 191 98 258 16 q 124 299 124 179 q 152 451 124 380 q 216 566 181 523 l 390 802 l 383 816 q 194 860 263 802 q 109 1028 126 919 l 198 1033 q 280 919 211 948 q 449 920 348 890 l 646 1034 l 688 917 l 537 854 l 304 521 q 249 428 273 485 q 225 304 225 371 q 265 169 225 221 q 378 116 306 116 l 466 116 q 605 72 553 116 q 657 -71 657 28 q 602 -205 657 -158 q 457 -253 548 -253 z "},"η":{"ha":788,"x_min":133,"x_max":655,"o":"m 556 -253 l 556 510 q 524 630 556 590 q 429 670 492 670 q 326 638 375 670 q 232 540 278 606 l 232 0 l 133 0 l 133 758 l 232 758 l 232 652 l 265 652 q 345 738 293 706 q 457 770 396 770 q 602 706 548 770 q 655 532 655 641 l 655 -253 l 556 -253 z "},"ή":{"ha":788,"x_min":133,"x_max":655,"o":"m 556 -253 l 556 510 q 524 630 556 590 q 429 670 492 670 q 326 638 375 670 q 232 540 278 606 l 232 0 l 133 0 l 133 758 l 232 758 l 232 652 l 265 652 q 345 738 293 706 q 457 770 396 770 q 602 706 548 770 q 655 532 655 641 l 655 -253 l 556 -253 m 322 884 l 403 1136 l 547 1136 l 405 884 l 322 884 z "},"θ":{"ha":788,"x_min":133,"x_max":655,"o":"m 394 -13 q 201 59 270 -13 q 133 274 133 131 l 133 731 q 201 950 133 878 q 395 1023 270 1023 q 587 950 519 1023 q 655 731 655 878 l 655 274 q 586 59 655 131 q 394 -13 518 -13 m 234 734 l 234 563 l 554 563 l 554 732 q 514 880 554 833 q 394 927 473 927 q 274 881 314 927 q 234 734 234 835 m 394 83 q 514 128 473 83 q 554 269 554 172 l 554 460 l 234 460 l 234 269 q 274 128 234 172 q 394 83 314 83 z "},"ι":{"ha":788,"x_min":110,"x_max":677,"o":"m 548 -6 q 399 54 453 -6 q 345 223 345 114 l 345 662 l 110 662 l 110 758 l 446 758 l 446 207 q 471 119 446 149 q 551 88 496 88 q 604 94 572 88 q 655 112 635 100 l 677 20 q 619 1 653 8 q 548 -6 586 -6 z "},"ΐ":{"ha":788,"x_min":110,"x_max":677,"o":"m 548 -6 q 399 54 453 -6 q 345 223 345 114 l 345 662 l 110 662 l 110 758 l 446 758 l 446 207 q 471 119 446 149 q 551 88 496 88 q 604 94 572 88 q 655 112 635 100 l 677 20 q 619 1 653 8 q 548 -6 586 -6 m 317 884 l 366 1136 l 490 1136 l 380 884 l 317 884 m 202 888 q 161 901 177 888 q 145 953 145 914 l 145 958 q 161 1011 145 997 q 202 1025 177 1025 q 242 1011 227 1025 q 258 958 258 997 l 258 953 q 242 901 258 914 q 202 888 226 888 m 566 888 q 525 901 540 888 q 510 953 510 914 l 510 958 q 525 1011 510 997 q 566 1025 540 1025 q 607 1011 591 1025 q 622 958 622 997 l 622 953 q 606 901 622 914 q 566 888 590 888 z "},"ί":{"ha":788,"x_min":110,"x_max":677,"o":"m 548 -6 q 399 54 453 -6 q 345 223 345 114 l 345 662 l 110 662 l 110 758 l 446 758 l 446 207 q 471 119 446 149 q 551 88 496 88 q 604 94 572 88 q 655 112 635 100 l 677 20 q 619 1 653 8 q 548 -6 586 -6 m 311 884 l 391 1136 l 535 1136 l 394 884 l 311 884 z "},"ϊ":{"ha":788,"x_min":110,"x_max":677,"o":"m 548 -6 q 399 54 453 -6 q 345 223 345 114 l 345 662 l 110 662 l 110 758 l 446 758 l 446 207 q 471 119 446 149 q 551 88 496 88 q 604 94 572 88 q 655 112 635 100 l 677 20 q 619 1 653 8 q 548 -6 586 -6 m 268 904 q 219 917 237 904 q 201 968 201 931 l 201 975 q 219 1028 201 1014 q 268 1042 237 1042 q 317 1028 299 1042 q 335 975 335 1014 l 335 968 q 316 917 335 931 q 268 904 298 904 m 510 904 q 461 917 479 904 q 443 968 443 931 l 443 975 q 461 1028 443 1014 q 510 1042 479 1042 q 558 1028 539 1042 q 577 975 577 1014 l 577 968 q 558 917 577 931 q 510 904 539 904 z "},"κ":{"ha":788,"x_min":187,"x_max":670,"o":"m 288 355 l 288 0 l 187 0 l 187 758 l 288 758 l 288 444 l 342 444 l 547 758 l 670 758 l 419 403 l 668 0 l 552 0 l 342 355 l 288 355 z "},"λ":{"ha":788,"x_min":106,"x_max":682,"o":"m 571 0 l 393 674 l 213 0 l 106 0 l 333 790 l 362 790 l 356 814 q 311 896 341 869 q 230 924 282 924 q 183 920 210 924 q 125 908 157 917 l 109 1001 q 164 1012 136 1008 q 217 1016 191 1016 q 350 977 295 1016 q 433 850 405 937 l 682 0 l 571 0 z "},"μ":{"ha":788,"x_min":121,"x_max":721,"o":"m 232 25 l 244 -253 l 121 -253 l 131 25 l 131 758 l 232 758 l 232 240 q 270 121 232 157 q 360 85 307 85 q 444 114 408 85 q 513 194 480 144 l 513 758 l 614 758 l 614 187 q 638 99 614 119 q 721 95 663 80 l 721 -6 q 602 17 643 -18 q 557 136 562 52 l 537 136 q 459 26 505 66 q 350 -14 413 -14 q 285 2 314 -14 q 232 49 255 18 l 232 25 z "},"ν":{"ha":788,"x_min":106,"x_max":682,"o":"m 446 0 l 341 0 l 106 758 l 211 758 l 408 63 q 527 414 484 239 q 582 758 571 588 l 682 758 q 597 354 662 544 q 446 0 533 163 z "},"ξ":{"ha":788,"x_min":59,"x_max":678,"o":"m 678 -71 q 624 -205 678 -158 q 480 -253 571 -253 l 365 -253 l 365 -153 l 496 -153 q 558 -136 535 -153 q 581 -68 581 -120 q 558 -1 581 -18 q 496 16 535 16 l 385 16 q 199 80 268 16 q 131 254 131 144 l 131 292 q 178 430 131 370 q 318 499 225 490 l 318 528 q 226 566 258 528 q 194 665 194 605 q 215 751 194 715 q 279 811 235 787 l 279 840 q 131 898 184 848 q 59 1028 77 948 l 154 1033 q 236 951 163 980 q 405 933 309 922 l 617 1034 l 662 917 l 436 841 l 385 807 q 316 737 337 770 q 295 664 295 705 q 319 584 295 607 q 379 561 343 561 l 583 561 l 583 462 l 380 462 q 267 418 302 462 q 232 311 232 374 l 232 273 q 268 159 232 202 q 383 116 304 116 l 494 116 q 628 72 578 116 q 678 -71 678 28 z "},"ο":{"ha":788,"x_min":133,"x_max":655,"o":"m 394 -13 q 200 57 268 -13 q 133 258 133 128 l 133 495 q 201 699 133 628 q 395 770 269 770 q 588 699 520 770 q 655 497 655 629 l 655 259 q 588 57 655 128 q 394 -13 520 -13 m 394 83 q 515 124 475 83 q 556 254 556 164 l 556 497 q 515 631 556 588 q 394 674 475 674 q 273 631 313 674 q 232 497 232 588 l 232 253 q 273 124 232 164 q 394 83 313 83 z "},"ό":{"ha":788,"x_min":133,"x_max":655,"o":"m 394 -13 q 200 57 268 -13 q 133 258 133 128 l 133 495 q 201 699 133 628 q 395 770 269 770 q 588 699 520 770 q 655 497 655 629 l 655 259 q 588 57 655 128 q 394 -13 520 -13 m 394 83 q 515 124 475 83 q 556 254 556 164 l 556 497 q 515 631 556 588 q 394 674 475 674 q 273 631 313 674 q 232 497 232 588 l 232 253 q 273 124 232 164 q 394 83 313 83 m 317 884 l 398 1136 l 542 1136 l 400 884 l 317 884 z "},"π":{"ha":788,"x_min":68,"x_max":688,"o":"m 688 758 l 688 662 l 561 662 l 561 184 q 586 100 561 119 q 688 95 612 82 l 688 -6 q 511 16 564 -15 q 458 131 458 48 l 458 662 l 277 662 l 277 0 l 176 0 l 176 662 l 68 662 l 68 758 l 688 758 z "},"ρ":{"ha":788,"x_min":133,"x_max":655,"o":"m 426 87 q 523 133 491 87 q 556 271 556 178 l 556 495 q 515 631 556 586 q 394 676 473 676 q 273 631 313 676 q 232 495 232 586 l 232 223 q 321 121 274 155 q 426 87 369 87 m 133 -253 l 133 495 q 203 701 133 630 q 395 771 274 771 q 586 701 516 771 q 655 495 655 630 l 655 265 q 599 58 655 129 q 449 -13 543 -13 q 339 18 388 -13 q 265 106 290 48 l 232 106 l 232 -253 l 133 -253 z "},"ς":{"ha":788,"x_min":133,"x_max":660,"o":"m 347 -253 l 347 -157 l 480 -157 q 542 -140 519 -157 q 564 -69 564 -124 q 542 -1 564 -19 q 480 16 519 16 l 390 16 q 193 88 254 16 q 133 299 133 160 l 133 492 q 195 699 133 628 q 398 770 258 770 q 581 705 523 770 q 646 501 639 640 l 553 497 q 513 636 548 597 q 396 676 479 676 q 272 636 312 676 q 232 508 232 596 l 232 279 q 270 151 232 191 q 385 111 307 111 l 476 111 q 611 68 562 111 q 660 -73 660 25 q 607 -206 660 -160 q 463 -253 554 -253 l 347 -253 z "},"σ":{"ha":788,"x_min":133,"x_max":763,"o":"m 374 83 q 477 122 442 83 q 513 253 513 162 l 513 447 q 477 607 513 557 q 374 658 442 658 q 268 616 304 658 q 232 481 232 573 l 232 253 q 268 122 232 162 q 374 83 304 83 m 374 -13 q 200 52 268 -13 q 133 258 133 117 l 133 479 q 200 686 133 614 q 374 758 268 758 l 763 758 l 763 649 l 521 676 q 589 593 564 645 q 614 465 614 540 l 614 258 q 547 52 614 117 q 374 -13 480 -13 z "},"τ":{"ha":788,"x_min":133,"x_max":665,"o":"m 571 -6 q 395 16 446 -14 q 343 131 343 47 l 343 667 l 133 667 l 133 758 l 665 758 l 665 667 l 444 667 l 444 165 q 471 99 444 115 q 571 95 497 83 l 571 -6 z "},"υ":{"ha":788,"x_min":133,"x_max":655,"o":"m 394 -13 q 199 54 266 -13 q 133 249 133 121 l 133 758 l 232 758 l 232 245 q 272 117 232 155 q 394 78 312 78 q 516 117 476 78 q 556 245 556 155 l 556 758 l 655 758 l 655 249 q 588 54 655 121 q 394 -13 521 -13 z "},"ΰ":{"ha":788,"x_min":133,"x_max":655,"o":"m 394 -13 q 199 54 266 -13 q 133 249 133 121 l 133 758 l 232 758 l 232 245 q 272 117 232 155 q 394 78 312 78 q 516 117 476 78 q 556 245 556 155 l 556 758 l 655 758 l 655 249 q 588 54 655 121 q 394 -13 521 -13 m 327 884 l 376 1136 l 500 1136 l 390 884 l 327 884 m 212 888 q 171 901 187 888 q 155 953 155 914 l 155 958 q 171 1011 155 997 q 212 1025 187 1025 q 253 1011 237 1025 q 268 958 268 997 l 268 953 q 252 901 268 914 q 212 888 236 888 m 576 888 q 535 901 551 888 q 520 953 520 914 l 520 958 q 535 1011 520 997 q 576 1025 551 1025 q 617 1011 601 1025 q 633 958 633 997 l 633 953 q 616 901 633 914 q 576 888 600 888 z "},"ϋ":{"ha":788,"x_min":133,"x_max":655,"o":"m 394 -13 q 199 54 266 -13 q 133 249 133 121 l 133 758 l 232 758 l 232 245 q 272 117 232 155 q 394 78 312 78 q 516 117 476 78 q 556 245 556 155 l 556 758 l 655 758 l 655 249 q 588 54 655 121 q 394 -13 521 -13 m 273 904 q 224 917 242 904 q 206 968 206 931 l 206 975 q 224 1028 206 1014 q 273 1042 242 1042 q 322 1028 304 1042 q 340 975 340 1014 l 340 968 q 321 917 340 931 q 273 904 303 904 m 515 904 q 466 917 484 904 q 448 968 448 931 l 448 975 q 466 1028 448 1014 q 515 1042 484 1042 q 563 1028 544 1042 q 582 975 582 1014 l 582 968 q 563 917 582 931 q 515 904 544 904 z "},"ύ":{"ha":788,"x_min":133,"x_max":655,"o":"m 394 -13 q 199 54 266 -13 q 133 249 133 121 l 133 758 l 232 758 l 232 245 q 272 117 232 155 q 394 78 312 78 q 516 117 476 78 q 556 245 556 155 l 556 758 l 655 758 l 655 249 q 588 54 655 121 q 394 -13 521 -13 m 317 884 l 398 1136 l 542 1136 l 400 884 l 317 884 z "},"φ":{"ha":788,"x_min":88,"x_max":699,"o":"m 441 -253 l 345 -253 l 345 -10 q 157 84 226 3 q 88 304 88 165 l 88 428 q 110 626 88 537 q 167 783 131 715 l 255 742 q 205 604 226 683 q 183 428 183 524 l 183 304 q 224 141 183 201 q 346 69 265 82 l 346 758 l 447 758 q 629 672 559 758 q 699 402 699 586 l 699 322 q 628 87 699 172 q 441 -10 557 3 l 441 -253 m 439 679 l 439 68 q 563 146 521 82 q 604 322 604 210 l 604 402 q 562 612 604 545 q 439 679 520 679 z "},"χ":{"ha":788,"x_min":119,"x_max":669,"o":"m 544 -253 l 384 152 l 216 -253 l 119 -253 l 342 246 l 135 758 l 235 758 l 400 347 l 572 758 l 669 758 l 441 253 l 646 -253 l 544 -253 z "},"ψ":{"ha":788,"x_min":88,"x_max":699,"o":"m 441 -253 l 347 -253 l 347 -8 q 152 76 216 4 q 88 275 88 149 l 88 758 l 183 758 l 183 269 q 221 138 183 181 q 346 88 259 96 l 346 758 l 442 758 l 442 88 q 567 138 529 96 q 605 269 605 181 l 605 758 l 699 758 l 699 275 q 635 76 699 149 q 441 -8 571 4 l 441 -253 z "},"ω":{"ha":788,"x_min":88,"x_max":699,"o":"m 246 -13 q 133 62 177 -13 q 88 279 88 136 l 88 390 q 110 619 88 510 q 155 779 131 729 l 244 739 q 205 599 227 698 q 183 390 183 500 l 183 284 q 204 130 183 182 q 266 78 225 78 q 326 117 307 78 q 346 245 346 157 l 346 588 l 442 588 l 442 245 q 461 117 442 157 q 521 78 481 78 q 584 130 563 78 q 605 284 605 182 l 605 390 q 583 599 605 500 q 544 739 561 698 l 633 779 q 679 619 658 729 q 699 390 699 510 l 699 279 q 655 62 699 136 q 542 -13 611 -13 q 453 27 490 -13 q 400 150 417 67 l 388 150 q 335 27 371 67 q 246 -13 298 -13 z "},"ώ":{"ha":788,"x_min":88,"x_max":699,"o":"m 246 -13 q 133 62 177 -13 q 88 279 88 136 l 88 390 q 110 619 88 510 q 155 779 131 729 l 244 739 q 205 599 227 698 q 183 390 183 500 l 183 284 q 204 130 183 182 q 266 78 225 78 q 326 117 307 78 q 346 245 346 157 l 346 588 l 442 588 l 442 245 q 461 117 442 157 q 521 78 481 78 q 584 130 563 78 q 605 284 605 182 l 605 390 q 583 599 605 500 q 544 739 561 698 l 633 779 q 679 619 658 729 q 699 390 699 510 l 699 279 q 655 62 699 136 q 542 -13 611 -13 q 453 27 490 -13 q 400 150 417 67 l 388 150 q 335 27 371 67 q 246 -13 298 -13 m 327 884 l 408 1136 l 552 1136 l 410 884 l 327 884 z "},"а":{"ha":788,"x_min":100,"x_max":731,"o":"m 317 85 q 426 111 380 85 q 503 199 471 138 l 503 328 l 322 328 q 234 302 266 328 q 202 211 202 275 q 229 117 202 150 q 317 85 255 85 m 304 -13 q 157 42 215 -13 q 100 202 100 96 q 156 357 100 301 q 299 414 212 414 l 503 414 l 503 538 q 468 634 503 596 q 364 673 433 673 q 256 644 290 673 q 203 530 222 615 l 114 559 q 196 717 133 663 q 361 770 259 770 q 533 717 463 770 q 604 557 604 663 l 604 181 q 634 98 604 119 q 731 95 665 78 l 731 -6 q 602 10 652 -16 q 547 120 552 37 l 527 120 q 439 25 499 62 q 304 -13 379 -13 z "},"б":{"ha":788,"x_min":131,"x_max":658,"o":"m 394 -13 q 204 54 277 -13 q 131 268 131 121 l 131 681 q 199 875 131 804 q 388 975 268 946 l 611 1028 l 629 943 l 403 891 q 265 808 308 867 q 221 626 221 749 l 222 596 l 246 596 q 309 655 263 628 q 423 682 355 682 q 595 612 533 682 q 658 422 658 543 l 658 268 q 585 56 658 125 q 394 -13 511 -13 m 394 83 q 519 129 482 83 q 556 269 556 176 l 556 412 q 519 542 556 499 q 394 585 482 585 q 270 542 307 585 q 232 412 232 499 l 232 269 q 270 129 232 176 q 394 83 307 83 z "},"в":{"ha":788,"x_min":133,"x_max":676,"o":"m 133 0 l 133 758 l 389 758 q 592 710 528 758 q 657 564 657 662 l 657 551 q 618 455 657 490 q 511 415 580 420 l 511 388 q 635 335 595 381 q 676 223 676 288 l 676 215 q 604 52 676 105 q 389 0 532 0 l 133 0 m 234 444 l 398 444 q 522 464 489 444 q 556 537 556 484 l 556 554 q 520 637 556 615 q 389 659 484 659 l 234 659 l 234 444 m 234 96 l 389 96 q 535 121 495 96 q 574 218 574 146 l 574 231 q 537 326 574 302 q 398 351 499 351 l 234 351 l 234 96 z "},"г":{"ha":788,"x_min":186,"x_max":668,"o":"m 186 0 l 186 758 l 668 758 l 668 667 l 285 667 l 285 0 l 186 0 z "},"ѓ":{"ha":788,"x_min":186,"x_max":668,"o":"m 186 0 l 186 758 l 668 758 l 668 667 l 285 667 l 285 0 l 186 0 m 357 884 l 501 1136 l 655 1136 l 451 884 l 357 884 z "},"д":{"ha":788,"x_min":68,"x_max":720,"o":"m 263 125 l 263 91 l 513 91 l 513 667 l 307 667 l 304 301 q 294 201 303 245 q 263 125 284 158 m 169 0 l 169 -189 l 68 -189 l 68 91 l 143 91 q 190 174 174 121 q 206 309 206 227 l 210 758 l 614 758 l 614 91 l 720 91 l 720 -189 l 619 -189 l 619 0 l 169 0 z "},"е":{"ha":788,"x_min":133,"x_max":659,"o":"m 659 163 q 571 30 629 72 q 394 -13 513 -13 q 201 56 270 -13 q 133 259 133 124 l 133 494 q 206 702 133 634 q 395 770 280 770 q 583 701 511 770 q 655 485 655 631 l 655 361 l 232 361 l 232 261 q 273 122 232 163 q 393 81 313 81 q 504 108 470 81 q 559 193 539 135 l 659 163 m 232 486 l 232 446 l 556 446 l 556 473 q 515 627 556 578 q 394 676 473 676 q 273 628 314 676 q 232 486 232 581 z "},"ѐ":{"ha":788,"x_min":133,"x_max":659,"o":"m 659 163 q 571 30 629 72 q 394 -13 513 -13 q 201 56 270 -13 q 133 259 133 124 l 133 494 q 206 702 133 634 q 395 770 280 770 q 583 701 511 770 q 655 485 655 631 l 655 361 l 232 361 l 232 261 q 273 122 232 163 q 393 81 313 81 q 504 108 470 81 q 559 193 539 135 l 659 163 m 232 486 l 232 446 l 556 446 l 556 473 q 515 627 556 578 q 394 676 473 676 q 273 628 314 676 q 232 486 232 581 m 398 884 l 193 1136 l 346 1136 l 491 884 l 398 884 z "},"ё":{"ha":788,"x_min":133,"x_max":659,"o":"m 659 163 q 571 30 629 72 q 394 -13 513 -13 q 201 56 270 -13 q 133 259 133 124 l 133 494 q 206 702 133 634 q 395 770 280 770 q 583 701 511 770 q 655 485 655 631 l 655 361 l 232 361 l 232 261 q 273 122 232 163 q 393 81 313 81 q 504 108 470 81 q 559 193 539 135 l 659 163 m 232 486 l 232 446 l 556 446 l 556 473 q 515 627 556 578 q 394 676 473 676 q 273 628 314 676 q 232 486 232 581 m 274 904 q 225 917 244 904 q 207 968 207 931 l 207 975 q 225 1028 207 1014 q 274 1042 244 1042 q 323 1028 306 1042 q 341 975 341 1014 l 341 968 q 323 917 341 931 q 274 904 304 904 m 516 904 q 467 917 485 904 q 449 968 449 931 l 449 975 q 467 1028 449 1014 q 516 1042 485 1042 q 564 1028 545 1042 q 583 975 583 1014 l 583 968 q 564 917 583 931 q 516 904 545 904 z "},"ж":{"ha":788,"x_min":52,"x_max":735,"o":"m 314 372 l 162 0 l 56 0 l 249 413 l 52 758 l 158 758 l 316 458 l 347 458 l 347 758 l 441 758 l 441 458 l 472 458 l 631 758 l 735 758 l 538 413 l 732 0 l 628 0 l 472 372 l 441 372 l 441 0 l 347 0 l 347 372 l 314 372 z "},"з":{"ha":788,"x_min":111,"x_max":676,"o":"m 389 -13 q 182 40 244 -13 q 111 222 120 92 l 211 231 q 259 114 220 144 q 389 85 298 85 q 532 113 490 85 q 574 221 574 141 l 574 234 q 533 338 574 309 q 398 367 492 367 l 337 367 l 337 462 l 398 462 q 520 481 485 462 q 554 549 554 500 l 554 567 q 517 649 554 626 q 389 672 480 672 q 274 645 309 672 q 230 540 239 619 l 130 551 q 199 719 138 668 q 389 770 261 770 q 588 723 520 770 q 657 571 657 676 l 657 557 q 617 463 657 497 q 511 423 578 428 l 511 395 q 634 340 593 389 q 676 223 676 290 l 676 215 q 609 44 676 101 q 389 -13 542 -13 z "},"и":{"ha":788,"x_min":133,"x_max":655,"o":"m 559 0 l 559 633 l 269 0 l 133 0 l 133 758 l 230 758 l 230 120 l 525 758 l 655 758 l 655 0 l 559 0 z "},"й":{"ha":788,"x_min":133,"x_max":655,"o":"m 559 0 l 559 633 l 269 0 l 133 0 l 133 758 l 230 758 l 230 120 l 525 758 l 655 758 l 655 0 l 559 0 m 394 875 q 239 928 304 875 q 173 1116 174 981 l 275 1129 q 302 999 277 1038 q 394 961 327 961 q 486 999 461 961 q 513 1129 511 1038 l 615 1116 q 549 928 614 981 q 394 875 484 875 z "},"ѝ":{"ha":788,"x_min":133,"x_max":655,"o":"m 559 0 l 559 633 l 269 0 l 133 0 l 133 758 l 230 758 l 230 120 l 525 758 l 655 758 l 655 0 l 559 0 m 396 884 l 192 1136 l 345 1136 l 490 884 l 396 884 z "},"к":{"ha":788,"x_min":187,"x_max":670,"o":"m 288 355 l 288 0 l 187 0 l 187 758 l 288 758 l 288 444 l 342 444 l 547 758 l 670 758 l 419 403 l 668 0 l 552 0 l 342 355 l 288 355 z "},"ќ":{"ha":788,"x_min":187,"x_max":670,"o":"m 288 355 l 288 0 l 187 0 l 187 758 l 288 758 l 288 444 l 342 444 l 547 758 l 670 758 l 419 403 l 668 0 l 552 0 l 342 355 l 288 355 m 342 884 l 486 1136 l 640 1136 l 436 884 l 342 884 z "},"л":{"ha":788,"x_min":54,"x_max":655,"o":"m 554 0 l 554 662 l 318 662 l 314 299 q 265 66 313 143 q 129 -11 216 -11 q 88 -7 107 -11 q 54 3 69 -3 l 72 93 q 100 85 88 88 q 120 81 111 81 q 194 134 173 81 q 217 316 216 188 l 221 758 l 655 758 l 655 0 l 554 0 z "},"м":{"ha":788,"x_min":121,"x_max":667,"o":"m 338 189 l 213 698 l 212 0 l 121 0 l 121 758 l 284 758 l 398 290 l 510 758 l 667 758 l 667 0 l 576 0 l 571 688 l 449 189 l 338 189 z "},"н":{"ha":788,"x_min":133,"x_max":655,"o":"m 133 0 l 133 758 l 232 758 l 232 489 l 556 489 l 556 758 l 655 758 l 655 0 l 556 0 l 556 396 l 232 396 l 232 0 l 133 0 z "},"о":{"ha":788,"x_min":133,"x_max":655,"o":"m 394 -13 q 200 57 268 -13 q 133 258 133 128 l 133 495 q 201 699 133 628 q 395 770 269 770 q 588 699 520 770 q 655 497 655 629 l 655 259 q 588 57 655 128 q 394 -13 520 -13 m 394 83 q 515 124 475 83 q 556 254 556 164 l 556 497 q 515 631 556 588 q 394 674 475 674 q 273 631 313 674 q 232 497 232 588 l 232 253 q 273 124 232 164 q 394 83 313 83 z "},"п":{"ha":788,"x_min":133,"x_max":655,"o":"m 133 0 l 133 758 l 655 758 l 655 0 l 556 0 l 556 667 l 232 667 l 232 0 l 133 0 z "},"р":{"ha":788,"x_min":133,"x_max":655,"o":"m 384 78 q 513 124 471 78 q 556 263 556 170 l 556 501 q 523 629 556 587 q 426 670 491 670 q 322 637 369 670 q 232 534 275 604 l 232 131 q 302 92 265 105 q 384 78 340 78 m 383 -14 q 307 -4 347 -14 q 232 24 268 6 l 232 -253 l 133 -253 l 133 758 l 232 758 l 232 652 l 265 652 q 337 738 288 706 q 451 770 386 770 q 601 694 547 770 q 655 486 655 617 l 655 260 q 583 59 655 133 q 383 -14 510 -14 z "},"с":{"ha":788,"x_min":133,"x_max":668,"o":"m 409 -13 q 201 57 269 -13 q 133 254 133 126 l 133 495 q 201 700 133 630 q 408 770 270 770 q 596 708 532 770 q 668 518 660 646 l 569 514 q 525 641 564 606 q 407 676 486 676 q 277 634 321 676 q 232 501 232 592 l 232 250 q 277 124 232 164 q 409 83 322 83 q 527 111 489 83 q 569 218 564 139 l 668 215 q 597 42 660 97 q 409 -13 533 -13 z "},"т":{"ha":788,"x_min":100,"x_max":688,"o":"m 343 0 l 343 667 l 100 667 l 100 758 l 688 758 l 688 667 l 444 667 l 444 0 l 343 0 z "},"у":{"ha":788,"x_min":106,"x_max":682,"o":"m 216 -258 q 164 -254 191 -258 q 109 -245 136 -250 l 128 -150 q 178 -160 155 -157 q 221 -163 201 -163 q 311 -130 277 -163 q 367 -27 345 -97 l 371 -14 l 332 -14 l 106 758 l 216 758 l 398 81 l 576 758 l 682 758 l 458 -34 q 357 -210 422 -163 q 216 -258 293 -258 z "},"ў":{"ha":788,"x_min":106,"x_max":682,"o":"m 216 -258 q 164 -254 191 -258 q 109 -245 136 -250 l 128 -150 q 178 -160 155 -157 q 221 -163 201 -163 q 311 -130 277 -163 q 367 -27 345 -97 l 371 -14 l 332 -14 l 106 758 l 216 758 l 398 81 l 576 758 l 682 758 l 458 -34 q 357 -210 422 -163 q 216 -258 293 -258 m 394 875 q 239 928 304 875 q 173 1116 174 981 l 275 1129 q 302 999 277 1038 q 394 961 327 961 q 486 999 461 961 q 513 1129 511 1038 l 615 1116 q 549 928 614 981 q 394 875 484 875 z "},"ф":{"ha":788,"x_min":88,"x_max":699,"o":"m 476 0 l 441 0 l 441 -253 l 347 -253 l 347 0 l 312 0 q 147 84 206 0 q 88 319 88 168 l 88 437 q 147 674 88 590 q 312 758 206 758 l 347 758 l 347 1010 l 441 1010 l 441 758 l 476 758 q 641 674 582 758 q 699 437 699 590 l 699 319 q 641 84 699 168 q 476 0 582 0 m 324 96 l 352 96 l 352 663 l 324 663 q 218 605 254 663 q 183 432 183 547 l 183 322 q 218 152 183 208 q 324 96 254 96 m 463 663 l 436 663 l 436 96 l 463 96 q 569 152 534 96 q 605 322 605 208 l 605 432 q 569 605 605 547 q 463 663 534 663 z "},"х":{"ha":788,"x_min":117,"x_max":672,"o":"m 553 0 l 388 295 l 230 0 l 117 0 l 337 380 l 124 758 l 239 758 l 398 471 l 559 758 l 672 758 l 448 385 l 667 0 l 553 0 z "},"ц":{"ha":788,"x_min":133,"x_max":708,"o":"m 612 -189 l 612 0 l 133 0 l 133 758 l 232 758 l 232 91 l 501 91 l 501 758 l 601 758 l 601 91 l 708 91 l 708 -189 l 612 -189 z "},"ч":{"ha":788,"x_min":110,"x_max":601,"o":"m 601 758 l 601 0 l 500 0 l 500 279 q 432 263 472 269 q 356 256 391 256 q 172 319 235 256 q 110 503 110 381 l 110 758 l 212 758 l 212 505 q 252 384 212 420 q 370 346 292 347 q 440 354 404 346 q 500 374 476 361 l 500 758 l 601 758 z "},"ш":{"ha":788,"x_min":88,"x_max":699,"o":"m 88 0 l 88 758 l 183 758 l 183 83 l 347 83 l 347 758 l 441 758 l 441 83 l 605 83 l 605 758 l 699 758 l 699 0 l 88 0 z "},"щ":{"ha":788,"x_min":88,"x_max":758,"o":"m 758 -189 l 664 -189 l 664 0 l 88 0 l 88 758 l 183 758 l 183 83 l 347 83 l 347 758 l 441 758 l 441 83 l 605 83 l 605 758 l 699 758 l 699 96 l 758 96 l 758 -189 z "},"ъ":{"ha":788,"x_min":25,"x_max":687,"o":"m 468 0 l 183 0 l 183 667 l 25 667 l 25 758 l 284 758 l 284 491 l 467 491 q 628 433 569 491 q 687 273 687 375 l 687 226 q 629 60 687 120 q 468 0 571 0 m 284 96 l 446 96 q 552 126 518 96 q 586 221 586 157 l 586 274 q 552 368 586 338 q 446 398 518 398 l 284 398 l 284 96 z "},"ы":{"ha":788,"x_min":111,"x_max":677,"o":"m 111 0 l 111 758 l 205 758 l 205 485 l 299 485 q 439 424 389 485 q 489 255 489 362 l 489 230 q 439 61 489 122 q 301 0 390 0 l 111 0 m 583 0 l 583 758 l 677 758 l 677 0 l 583 0 m 205 92 l 278 92 q 366 124 338 92 q 394 223 394 155 l 394 265 q 366 362 394 331 q 278 394 338 394 l 205 394 l 205 92 z "},"ь":{"ha":788,"x_min":131,"x_max":687,"o":"m 131 0 l 131 758 l 232 758 l 232 491 l 468 491 q 629 434 571 491 q 687 275 687 376 l 687 225 q 629 59 687 119 q 470 0 572 0 l 131 0 m 232 96 l 447 96 q 553 126 520 96 q 586 221 586 157 l 586 278 q 553 369 586 341 q 447 398 520 398 l 232 398 l 232 96 z "},"э":{"ha":788,"x_min":120,"x_max":655,"o":"m 378 -13 q 190 45 251 -13 q 120 227 129 104 l 217 232 q 258 119 220 153 q 379 86 295 86 q 512 127 468 86 q 556 255 556 168 l 556 346 l 312 346 l 312 437 l 556 437 l 556 499 q 513 631 556 590 q 381 672 470 672 q 258 633 294 672 q 217 499 221 593 l 120 503 q 191 704 129 638 q 379 770 254 770 q 588 699 521 770 q 655 494 655 629 l 655 265 q 588 58 655 129 q 378 -13 521 -13 z "},"ю":{"ha":788,"x_min":90,"x_max":698,"o":"m 494 -13 q 340 54 390 -13 q 289 246 289 121 l 289 378 l 193 378 l 193 0 l 90 0 l 90 758 l 193 758 l 193 476 l 289 476 l 289 506 q 340 701 289 633 q 495 770 391 770 q 650 698 601 770 q 698 506 698 626 l 698 246 q 650 58 698 129 q 494 -13 601 -13 m 494 87 q 580 123 554 87 q 606 246 606 159 l 606 506 q 580 633 606 596 q 494 670 554 670 q 406 633 432 670 q 380 506 380 596 l 380 246 q 406 123 380 159 q 494 87 432 87 z "},"я":{"ha":788,"x_min":122,"x_max":655,"o":"m 338 372 l 556 372 l 556 658 l 338 658 q 258 628 283 658 q 232 535 232 598 l 232 508 q 258 406 232 439 q 338 372 283 372 m 556 277 l 453 277 l 249 0 l 122 0 l 327 271 q 181 333 231 275 q 131 503 131 391 l 131 527 q 184 699 131 641 q 340 758 237 758 l 655 758 l 655 0 l 556 0 l 556 277 z "},"ђ":{"ha":788,"x_min":27,"x_max":655,"o":"m 446 -263 q 381 -255 415 -263 q 312 -235 347 -247 l 332 -125 q 391 -145 362 -138 q 443 -153 419 -153 q 525 -116 494 -153 q 556 10 556 -78 l 556 480 q 520 582 556 551 q 428 614 485 614 q 324 581 374 614 q 232 490 274 548 l 232 0 l 133 0 l 133 807 l 27 807 l 27 900 l 133 900 l 133 1010 l 232 1010 l 232 900 l 446 900 l 446 807 l 232 807 l 232 596 l 265 596 q 342 684 293 654 q 461 715 391 715 q 603 656 551 715 q 655 501 655 597 l 655 -6 q 594 -200 655 -138 q 446 -263 533 -263 z "},"є":{"ha":788,"x_min":133,"x_max":668,"o":"m 668 227 q 597 45 660 104 q 409 -13 534 -13 q 201 58 269 -13 q 133 265 133 129 l 133 494 q 201 699 133 629 q 408 770 269 770 q 596 704 532 770 q 668 503 660 638 l 568 499 q 527 631 564 592 q 407 670 490 670 q 277 629 321 670 q 232 499 232 588 l 232 438 l 475 438 l 475 345 l 232 345 l 232 255 q 277 128 232 168 q 409 88 322 88 q 527 121 490 88 q 568 232 564 154 l 668 227 z "},"ѕ":{"ha":788,"x_min":114,"x_max":667,"o":"m 409 -14 q 252 11 330 -14 q 114 90 174 37 l 160 174 q 277 109 211 134 q 410 85 342 85 q 523 109 479 85 q 567 196 567 134 q 525 284 567 259 q 376 331 484 309 q 192 406 249 355 q 135 552 135 457 q 202 714 135 658 q 372 770 269 770 q 518 742 446 770 q 646 663 591 713 l 600 576 q 494 643 553 615 q 370 672 434 672 q 271 646 308 672 q 235 558 235 620 q 276 469 235 495 q 423 423 317 443 q 609 347 551 399 q 667 205 667 294 q 593 40 667 95 q 409 -14 519 -14 z "},"і":{"ha":788,"x_min":131,"x_max":657,"o":"m 131 0 l 131 96 l 343 96 l 343 662 l 131 662 l 131 758 l 444 758 l 444 96 l 657 96 l 657 0 l 131 0 m 393 904 q 329 917 354 904 q 304 968 304 931 l 304 975 q 329 1028 304 1014 q 393 1042 354 1042 q 456 1028 432 1042 q 481 975 481 1014 l 481 968 q 456 917 481 931 q 393 904 432 904 z "},"ї":{"ha":788,"x_min":131,"x_max":657,"o":"m 131 0 l 131 96 l 343 96 l 343 662 l 131 662 l 131 758 l 444 758 l 444 96 l 657 96 l 657 0 l 131 0 m 273 904 q 224 917 242 904 q 206 968 206 931 l 206 975 q 224 1028 206 1014 q 273 1042 242 1042 q 322 1028 304 1042 q 340 975 340 1014 l 340 968 q 321 917 340 931 q 273 904 303 904 m 515 904 q 466 917 484 904 q 448 968 448 931 l 448 975 q 466 1028 448 1014 q 515 1042 484 1042 q 563 1028 544 1042 q 582 975 582 1014 l 582 968 q 563 917 582 931 q 515 904 544 904 z "},"ј":{"ha":788,"x_min":134,"x_max":586,"o":"m 298 -263 q 220 -257 259 -263 q 134 -235 181 -251 l 155 -125 q 229 -147 194 -141 q 295 -153 263 -153 q 407 -116 364 -153 q 449 6 449 -80 l 449 662 l 153 662 l 153 758 l 551 758 l 551 -9 q 477 -201 551 -140 q 298 -263 403 -263 m 497 904 q 434 917 458 904 q 409 968 409 931 l 409 975 q 434 1028 409 1014 q 497 1042 458 1042 q 561 1028 537 1042 q 586 975 586 1014 l 586 968 q 561 917 586 931 q 497 904 537 904 z "},"љ":{"ha":788,"x_min":15,"x_max":710,"o":"m 249 655 l 237 189 q 194 40 236 91 q 91 -10 153 -10 q 54 -6 73 -10 q 15 5 34 -3 l 37 114 q 63 103 49 107 q 88 98 77 98 q 128 120 114 98 q 143 192 141 141 l 157 758 l 452 758 l 452 491 l 542 491 q 665 433 621 491 q 710 270 710 375 l 710 202 q 666 54 710 107 q 543 0 622 0 l 357 0 l 357 655 l 249 655 m 452 97 l 520 97 q 592 127 569 98 q 615 216 615 155 l 615 275 q 592 367 615 337 q 520 398 569 398 l 452 398 l 452 97 z "},"њ":{"ha":788,"x_min":90,"x_max":699,"o":"m 441 97 l 509 97 q 580 123 557 97 q 604 201 604 149 l 604 271 q 580 360 604 331 q 509 390 557 390 l 441 390 l 441 97 m 184 393 l 184 0 l 90 0 l 90 758 l 184 758 l 184 485 l 346 485 l 346 758 l 441 758 l 441 485 l 530 485 q 655 426 610 485 q 699 261 699 366 l 699 207 q 655 54 699 109 q 532 0 610 0 l 346 0 l 346 393 l 184 393 z "},"ћ":{"ha":788,"x_min":27,"x_max":655,"o":"m 232 481 l 232 0 l 133 0 l 133 807 l 27 807 l 27 900 l 133 900 l 133 1010 l 232 1010 l 232 900 l 446 900 l 446 807 l 232 807 l 232 586 l 265 586 q 340 680 287 645 q 461 715 393 715 q 603 654 551 715 q 655 491 655 593 l 655 0 l 556 0 l 556 472 q 524 579 556 544 q 428 614 492 614 q 327 581 375 614 q 232 481 279 549 z "},"џ":{"ha":788,"x_min":133,"x_max":655,"o":"m 346 -189 l 346 0 l 133 0 l 133 758 l 232 758 l 232 91 l 556 91 l 556 758 l 655 758 l 655 0 l 443 0 l 443 -189 l 346 -189 z "},"ґ":{"ha":788,"x_min":186,"x_max":668,"o":"m 186 0 l 186 758 l 572 758 l 572 947 l 668 947 l 668 667 l 285 667 l 285 0 l 186 0 z "},"ⁿ":{"ha":788,"x_min":186,"x_max":604,"o":"m 186 383 l 186 1013 l 269 1013 l 269 927 l 295 927 q 323 975 306 956 q 359 1004 340 994 q 399 1019 379 1015 q 439 1023 419 1023 q 503 1010 473 1023 q 556 973 533 997 q 591 915 578 949 q 604 840 604 881 l 604 383 l 520 383 l 520 814 q 513 871 520 847 q 492 910 505 895 q 460 934 479 927 q 420 942 442 942 q 376 936 396 942 q 337 917 355 929 q 302 887 318 904 q 269 848 285 870 l 269 383 l 186 383 z "},"̀":{"ha":0,"x_min":-202,"x_max":96,"o":"m 3 884 l -202 1136 l -49 1136 l 96 884 l 3 884 z "},"́":{"ha":0,"x_min":-119,"x_max":179,"o":"m -119 884 l 25 1136 l 179 1136 l -25 884 l -119 884 z "},"̂":{"ha":0,"x_min":-230,"x_max":230,"o":"m -182 907 l -230 970 l -37 1154 l 35 1154 l 230 970 l 181 905 l -1 1047 l -182 907 z "},"̃":{"ha":0,"x_min":-220,"x_max":220,"o":"m 82 896 q 17 921 42 896 q -25 973 -8 946 q -57 1025 -42 1001 q -92 1049 -72 1049 q -129 1019 -116 1049 q -140 920 -141 989 l -140 909 l -220 909 l -220 928 q -184 1080 -220 1019 q -82 1141 -149 1141 q -12 1117 -38 1141 q 30 1066 14 1092 q 60 1014 47 1038 q 92 990 73 990 q 128 1020 115 990 q 141 1117 141 1049 l 141 1130 l 220 1130 l 220 1111 q 184 957 220 1018 q 82 896 149 896 z "},"̄":{"ha":0,"x_min":-210,"x_max":210,"o":"m -210 965 l -210 1056 l 210 1056 l 210 965 l -210 965 z "},"̆":{"ha":0,"x_min":-244,"x_max":244,"o":"m 0 875 q -176 936 -110 875 q -244 1129 -242 997 l -140 1129 q -104 999 -139 1038 q 0 961 -69 961 q 104 999 69 961 q 140 1129 139 1038 l 244 1129 q 176 936 242 997 q 0 875 110 875 z "},"̇":{"ha":0,"x_min":-88,"x_max":88,"o":"m 0 904 q -64 917 -39 904 q -88 968 -88 931 l -88 975 q -64 1028 -88 1014 q 0 1042 -39 1042 q 64 1028 39 1042 q 88 975 88 1014 l 88 968 q 64 917 88 931 q 0 904 39 904 z "},"̈":{"ha":0,"x_min":-188,"x_max":188,"o":"m -121 904 q -170 917 -152 904 q -188 968 -188 931 l -188 975 q -170 1028 -188 1014 q -121 1042 -152 1042 q -72 1028 -90 1042 q -54 975 -54 1014 l -54 968 q -73 917 -54 931 q -121 904 -91 904 m 121 904 q 72 917 90 904 q 54 968 54 931 l 54 975 q 72 1028 54 1014 q 121 1042 90 1042 q 169 1028 150 1042 q 188 975 188 1014 l 188 968 q 169 917 188 931 q 121 904 150 904 z "},"̊":{"ha":0,"x_min":-167,"x_max":167,"o":"m 0 869 q -121 913 -74 869 q -167 1048 -167 957 l -167 1088 q -121 1226 -167 1181 q 0 1271 -74 1271 q 121 1226 76 1271 q 167 1088 167 1181 l 167 1048 q 121 913 167 957 q 0 869 74 869 m 0 951 q 65 973 43 951 q 87 1048 87 995 l 87 1088 q 65 1165 87 1140 q 0 1189 43 1189 q -65 1165 -43 1189 q -87 1088 -87 1140 l -87 1048 q -65 973 -87 995 q 0 951 -43 951 z "},"̋":{"ha":0,"x_min":-160,"x_max":287,"o":"m 82 884 l 141 1136 l 287 1136 l 155 884 l 82 884 m -160 884 l -101 1136 l 44 1136 l -87 884 l -160 884 z "},"̌":{"ha":0,"x_min":-230,"x_max":230,"o":"m -35 889 l -230 1073 l -181 1136 l 1 997 l 182 1136 l 230 1073 l 37 889 l -35 889 z "},"̒":{"ha":0,"x_min":-140,"x_max":116,"o":"m -140 884 l 21 1136 l 116 1136 l 14 884 l -140 884 z "},"̦":{"ha":0,"x_min":-140,"x_max":116,"o":"m -140 -379 l -38 -126 l 116 -126 l -45 -379 l -140 -379 z "},"̧":{"ha":0,"x_min":-192,"x_max":117,"o":"m -32 0 l -11 53 q 81 -1 44 40 q 117 -115 117 -43 q 69 -232 117 -194 q -34 -269 21 -269 q -144 -242 -101 -269 q -192 -146 -187 -215 l -102 -134 q -86 -167 -101 -158 q -39 -177 -72 -177 q 9 -160 -8 -177 q 25 -101 25 -144 q 13 -32 25 -54 q -32 0 0 -10 z "},"̨":{"ha":0,"x_min":-97,"x_max":164,"o":"m 59 -269 q -52 -229 -6 -269 q -97 -121 -97 -189 q -57 -20 -97 -66 q 30 48 -16 25 l 58 29 q 8 -33 20 1 q -5 -91 -5 -67 q 15 -146 -5 -126 q 71 -165 35 -165 q 119 -161 90 -165 q 164 -153 148 -157 l 164 -256 q 114 -265 144 -261 q 59 -269 83 -269 z "},"¼":{"ha":788,"x_min":25,"x_max":763,"o":"m 217 518 l 217 604 l 361 604 l 361 889 l 346 889 q 326 845 340 865 q 295 809 313 824 q 256 787 278 794 q 211 779 235 779 l 205 862 q 260 874 234 864 q 308 905 287 885 q 344 953 330 924 q 364 1018 359 982 l 455 1018 l 455 604 l 585 604 l 585 518 l 217 518 m 25 318 l 25 433 l 361 408 l 361 343 l 25 318 m 442 343 l 442 408 l 763 433 l 763 318 l 442 343 m 639 -144 l 540 -144 l 540 -265 l 448 -265 l 448 -144 l 179 -144 l 179 -67 l 418 273 l 540 273 l 540 -67 l 639 -67 l 639 -144 m 261 -67 l 448 -67 l 448 194 l 261 -67 z "},"½":{"ha":788,"x_min":25,"x_max":763,"o":"m 217 518 l 217 604 l 361 604 l 361 889 l 346 889 q 326 845 340 865 q 295 809 313 824 q 256 787 278 794 q 211 779 235 779 l 205 862 q 256 873 231 864 q 303 902 282 883 q 342 949 326 920 q 364 1018 357 979 l 455 1018 l 455 604 l 585 604 l 585 518 l 217 518 m 25 318 l 25 433 l 361 408 l 361 343 l 25 318 m 442 343 l 442 408 l 763 433 l 763 318 l 442 343 m 184 -265 l 184 -164 q 191 -109 184 -134 q 213 -63 198 -83 q 251 -28 227 -43 q 308 -6 275 -14 l 437 25 q 468 35 456 30 q 490 48 481 40 q 501 65 497 56 q 505 88 505 74 l 505 117 q 500 146 505 134 q 482 168 495 159 q 448 182 470 177 q 394 187 427 187 q 340 181 361 187 q 308 163 319 176 q 292 133 297 152 q 284 85 287 114 l 191 93 q 204 171 193 139 q 239 225 215 203 q 301 257 263 246 q 394 268 338 268 q 487 258 448 268 q 551 230 527 247 q 586 184 574 211 q 597 124 597 158 l 597 76 q 589 23 597 45 q 564 -15 581 1 q 528 -40 549 -30 q 477 -58 506 -51 l 348 -90 q 318 -98 330 -93 q 297 -112 306 -102 q 283 -140 288 -121 q 278 -187 278 -158 l 605 -187 l 605 -265 l 184 -265 z "},"¾":{"ha":788,"x_min":25,"x_max":763,"o":"m 391 510 q 294 520 335 510 q 230 549 254 529 q 193 597 205 568 q 178 665 181 625 l 270 673 q 278 636 273 650 q 295 611 283 621 q 331 598 308 602 q 391 593 354 593 q 450 597 427 593 q 487 609 473 601 q 506 626 500 616 q 511 650 511 636 l 511 670 q 506 695 511 684 q 487 712 501 706 q 452 722 475 718 q 394 726 429 726 l 342 726 l 342 812 l 394 812 q 444 815 424 812 q 475 824 463 818 q 493 843 487 832 q 499 872 499 855 l 499 904 q 491 922 499 914 q 470 933 484 929 q 434 940 455 938 q 388 942 414 942 q 342 938 361 942 q 311 926 323 934 q 292 905 298 918 q 284 872 285 891 l 191 880 q 206 946 193 919 q 242 991 218 973 q 302 1017 266 1009 q 388 1025 338 1025 q 470 1020 434 1025 q 534 1000 506 1014 q 576 963 561 986 q 591 905 591 939 l 591 883 q 584 843 591 861 q 563 813 577 826 q 532 793 551 801 q 492 783 514 785 l 492 760 q 539 750 518 758 q 573 731 559 742 q 597 703 588 718 q 605 670 605 688 l 605 650 q 592 589 605 615 q 553 545 578 563 q 486 519 527 528 q 391 510 446 510 m 25 318 l 25 433 l 361 408 l 361 343 l 25 318 m 442 343 l 442 408 l 763 433 l 763 318 l 442 343 m 638 -144 l 539 -144 l 539 -265 l 447 -265 l 447 -144 l 178 -144 l 178 -67 l 417 273 l 539 273 l 539 -67 l 638 -67 l 638 -144 m 260 -67 l 447 -67 l 447 194 l 260 -67 z "},"⅛":{"ha":788,"x_min":25,"x_max":763,"o":"m 218 518 l 218 604 l 362 604 l 362 889 l 347 889 q 328 845 341 865 q 297 809 314 824 q 258 787 279 794 q 212 779 236 779 l 206 862 q 258 873 232 864 q 304 902 283 883 q 343 949 327 920 q 365 1018 359 979 l 456 1018 l 456 604 l 586 604 l 586 518 l 218 518 m 25 318 l 25 433 l 361 408 l 361 343 l 25 318 m 442 343 l 442 408 l 763 433 l 763 318 l 442 343 m 399 -271 q 299 -261 340 -271 q 235 -234 259 -251 q 200 -188 211 -215 q 189 -126 189 -162 l 189 -109 q 196 -64 189 -85 q 217 -30 203 -44 q 251 -7 231 -15 q 295 4 270 1 l 295 27 q 258 36 275 29 q 229 54 241 43 q 209 81 216 66 q 202 116 202 97 l 202 141 q 215 199 202 174 q 254 239 229 223 q 315 261 279 254 q 399 269 351 269 q 484 262 448 269 q 545 240 520 255 q 583 200 571 225 q 596 141 596 176 l 596 116 q 589 81 596 97 q 569 54 582 66 q 541 36 558 43 q 504 27 524 29 l 504 4 q 549 -8 529 1 q 582 -32 568 -16 q 603 -66 596 -47 q 610 -109 610 -86 l 610 -126 q 599 -189 610 -163 q 564 -235 588 -216 q 499 -262 540 -253 q 399 -271 458 -271 m 399 58 q 446 61 427 58 q 479 72 466 64 q 497 89 491 78 q 504 115 504 100 l 504 131 q 497 157 504 146 q 479 173 491 167 q 446 182 466 179 q 399 186 427 186 q 352 182 371 186 q 321 173 332 179 q 302 157 308 167 q 295 131 295 146 l 295 115 q 302 89 295 100 q 321 72 308 78 q 352 61 333 64 q 399 58 371 58 m 399 -188 q 460 -183 437 -188 q 496 -168 484 -178 q 512 -145 508 -159 q 516 -112 516 -131 l 516 -104 q 512 -69 516 -83 q 496 -45 508 -56 q 460 -30 484 -35 q 399 -25 437 -25 q 338 -30 361 -25 q 303 -45 316 -35 q 287 -69 292 -56 q 283 -104 283 -83 l 283 -112 q 287 -145 283 -131 q 303 -168 292 -159 q 338 -183 316 -178 q 399 -188 361 -188 z "},"⅜":{"ha":788,"x_min":25,"x_max":763,"o":"m 391 510 q 294 520 333 510 q 230 548 254 529 q 193 596 205 567 q 178 665 181 625 l 270 673 q 278 636 273 650 q 295 611 283 621 q 331 598 308 602 q 391 593 354 593 q 450 597 427 593 q 487 609 473 601 q 506 626 500 616 q 511 650 511 636 l 511 670 q 506 694 511 684 q 487 712 501 705 q 452 722 475 718 q 394 726 429 726 l 342 726 l 342 812 l 394 812 q 444 814 424 812 q 475 824 463 817 q 493 843 487 831 q 499 872 499 855 l 499 904 q 491 922 499 914 q 470 933 484 929 q 434 940 455 938 q 388 942 414 942 q 342 938 361 942 q 312 926 323 934 q 293 905 299 918 q 284 872 287 891 l 191 880 q 206 946 193 919 q 242 991 218 973 q 301 1017 265 1009 q 388 1025 337 1025 q 471 1020 434 1025 q 534 1000 508 1014 q 576 963 562 986 q 591 905 591 939 l 591 883 q 584 843 591 861 q 563 813 577 826 q 532 793 551 801 q 492 783 514 785 l 492 760 q 539 750 518 758 q 573 731 559 742 q 597 703 588 718 q 605 670 605 688 l 605 650 q 592 589 605 615 q 553 545 580 563 q 486 519 527 528 q 391 510 446 510 m 25 318 l 25 433 l 361 408 l 361 343 l 25 318 m 442 343 l 442 408 l 763 433 l 763 318 l 442 343 m 399 -271 q 299 -261 340 -271 q 235 -234 259 -251 q 200 -188 211 -215 q 189 -126 189 -162 l 189 -109 q 196 -64 189 -85 q 217 -30 203 -44 q 251 -7 231 -15 q 295 4 270 1 l 295 27 q 258 36 275 29 q 229 54 241 43 q 209 81 216 66 q 202 116 202 97 l 202 141 q 215 199 202 174 q 254 239 229 223 q 315 261 279 254 q 399 269 351 269 q 484 262 448 269 q 545 240 520 255 q 583 200 571 225 q 596 141 596 176 l 596 116 q 589 81 596 97 q 569 54 582 66 q 541 36 558 43 q 504 27 524 29 l 504 4 q 549 -8 529 1 q 582 -32 568 -16 q 603 -66 596 -47 q 610 -109 610 -86 l 610 -126 q 599 -189 610 -163 q 564 -235 588 -216 q 499 -262 540 -253 q 399 -271 458 -271 m 399 58 q 446 61 427 58 q 479 72 466 64 q 497 89 491 78 q 504 115 504 100 l 504 131 q 497 157 504 146 q 479 173 491 167 q 446 182 466 179 q 399 186 427 186 q 352 182 371 186 q 321 173 332 179 q 302 157 308 167 q 295 131 295 146 l 295 115 q 302 89 295 100 q 321 72 308 78 q 352 61 333 64 q 399 58 371 58 m 399 -188 q 460 -183 437 -188 q 496 -168 484 -178 q 512 -145 508 -159 q 516 -112 516 -131 l 516 -104 q 512 -69 516 -83 q 496 -45 508 -56 q 460 -30 484 -35 q 399 -25 437 -25 q 338 -30 361 -25 q 303 -45 316 -35 q 287 -69 292 -56 q 283 -104 283 -83 l 283 -112 q 287 -145 283 -131 q 303 -168 292 -159 q 338 -183 316 -178 q 399 -188 361 -188 z "},"⅝":{"ha":788,"x_min":25,"x_max":763,"o":"m 394 513 q 295 520 335 513 q 231 543 256 527 q 193 588 206 559 q 178 660 181 616 l 270 668 q 279 629 273 644 q 299 607 285 615 q 335 597 313 600 q 394 595 356 595 q 450 598 428 595 q 486 610 472 602 q 506 628 500 616 q 511 655 511 639 l 511 691 q 506 718 511 707 q 487 736 500 730 q 453 747 475 744 q 400 751 432 751 l 197 751 l 197 1018 l 581 1018 l 581 936 l 290 936 l 290 842 l 420 842 q 499 833 465 842 q 557 807 533 824 q 593 763 581 789 q 605 701 605 736 l 605 658 q 592 598 605 625 q 553 552 578 572 q 487 523 527 533 q 394 513 447 513 m 25 318 l 25 433 l 361 408 l 361 343 l 25 318 m 442 343 l 442 408 l 763 433 l 763 318 l 442 343 m 399 -271 q 299 -261 340 -271 q 235 -234 259 -251 q 200 -188 211 -215 q 189 -126 189 -162 l 189 -109 q 196 -64 189 -85 q 217 -30 203 -44 q 251 -7 231 -15 q 295 4 270 1 l 295 27 q 258 36 275 29 q 229 54 241 43 q 209 81 216 66 q 202 116 202 97 l 202 141 q 215 199 202 174 q 254 239 229 223 q 315 261 279 254 q 399 269 351 269 q 484 262 448 269 q 545 240 520 255 q 583 200 571 225 q 596 141 596 176 l 596 116 q 589 81 596 97 q 569 54 582 66 q 541 36 558 43 q 504 27 524 29 l 504 4 q 549 -8 529 1 q 582 -32 568 -16 q 603 -66 596 -47 q 610 -109 610 -86 l 610 -126 q 599 -189 610 -163 q 564 -235 588 -216 q 499 -262 540 -253 q 399 -271 458 -271 m 399 58 q 446 61 427 58 q 479 72 466 64 q 497 89 491 78 q 504 115 504 100 l 504 131 q 497 157 504 146 q 479 173 491 167 q 446 182 466 179 q 399 186 427 186 q 352 182 371 186 q 321 173 332 179 q 302 157 308 167 q 295 131 295 146 l 295 115 q 302 89 295 100 q 321 72 308 78 q 352 61 333 64 q 399 58 371 58 m 399 -188 q 460 -183 437 -188 q 496 -168 484 -178 q 512 -145 508 -159 q 516 -112 516 -131 l 516 -104 q 512 -69 516 -83 q 496 -45 508 -56 q 460 -30 484 -35 q 399 -25 437 -25 q 338 -30 361 -25 q 303 -45 316 -35 q 287 -69 292 -56 q 283 -104 283 -83 l 283 -112 q 287 -145 283 -131 q 303 -168 292 -159 q 338 -183 316 -178 q 399 -188 361 -188 z "},"⅞":{"ha":788,"x_min":25,"x_max":763,"o":"m 314 518 q 345 643 328 587 q 386 749 362 699 q 439 842 409 797 q 510 932 470 886 l 183 932 l 183 1018 l 604 1018 l 604 932 q 533 833 564 883 q 479 731 503 783 q 439 627 455 681 q 413 518 423 573 l 314 518 m 25 318 l 25 433 l 361 408 l 361 343 l 25 318 m 442 343 l 442 408 l 763 433 l 763 318 l 442 343 m 399 -271 q 299 -261 340 -271 q 235 -234 259 -251 q 200 -188 211 -215 q 189 -126 189 -162 l 189 -109 q 196 -64 189 -85 q 217 -30 203 -44 q 251 -7 231 -15 q 295 4 270 1 l 295 27 q 258 36 275 29 q 229 54 241 43 q 209 81 216 66 q 202 116 202 97 l 202 141 q 215 199 202 174 q 254 239 229 223 q 315 261 279 254 q 399 269 351 269 q 484 262 448 269 q 545 240 520 255 q 583 200 571 225 q 596 141 596 176 l 596 116 q 589 81 596 97 q 569 54 582 66 q 541 36 558 43 q 504 27 524 29 l 504 4 q 549 -8 529 1 q 582 -32 568 -16 q 603 -66 596 -47 q 610 -109 610 -86 l 610 -126 q 599 -189 610 -163 q 564 -235 588 -216 q 499 -262 540 -253 q 399 -271 458 -271 m 399 58 q 446 61 427 58 q 479 72 466 64 q 497 89 491 78 q 504 115 504 100 l 504 131 q 497 157 504 146 q 479 173 491 167 q 446 182 466 179 q 399 186 427 186 q 352 182 371 186 q 321 173 332 179 q 302 157 308 167 q 295 131 295 146 l 295 115 q 302 89 295 100 q 321 72 308 78 q 352 61 333 64 q 399 58 371 58 m 399 -188 q 460 -183 437 -188 q 496 -168 484 -178 q 512 -145 508 -159 q 516 -112 516 -131 l 516 -104 q 512 -69 516 -83 q 496 -45 508 -56 q 460 -30 484 -35 q 399 -25 437 -25 q 338 -30 361 -25 q 303 -45 316 -35 q 287 -69 292 -56 q 283 -104 283 -83 l 283 -112 q 287 -145 283 -131 q 303 -168 292 -159 q 338 -183 316 -178 q 399 -188 361 -188 z "},"_":{"ha":788,"x_min":100,"x_max":688,"o":"m 100 -253 l 100 -152 l 688 -152 l 688 -253 l 100 -253 z "},"-":{"ha":788,"x_min":100,"x_max":688,"o":"m 100 390 l 100 491 l 688 491 l 688 390 l 100 390 z "},"­":{"ha":788,"x_min":100,"x_max":688,"o":"m 100 390 l 100 491 l 688 491 l 688 390 l 100 390 z "},"‐":{"ha":788,"x_min":100,"x_max":688,"o":"m 100 390 l 100 491 l 688 491 l 688 390 l 100 390 z "},"‑":{"ha":788,"x_min":100,"x_max":688,"o":"m 100 390 l 100 491 l 688 491 l 688 390 l 100 390 z "},"–":{"ha":788,"x_min":134,"x_max":654,"o":"m 134 390 l 134 491 l 654 491 l 654 390 l 134 390 z "},"—":{"ha":788,"x_min":25,"x_max":763,"o":"m 25 390 l 25 491 l 763 491 l 763 390 l 25 390 z "},"―":{"ha":788,"x_min":25,"x_max":763,"o":"m 25 390 l 25 491 l 763 491 l 763 390 l 25 390 z "},"(":{"ha":788,"x_min":237,"x_max":614,"o":"m 604 -265 q 336 -50 434 -216 q 237 379 237 116 q 336 808 237 643 q 604 1023 434 973 l 614 943 q 409 748 479 898 q 340 379 340 598 q 409 7 340 158 q 614 -189 479 -144 l 604 -265 z "},")":{"ha":788,"x_min":174,"x_max":551,"o":"m 184 -265 l 174 -189 q 379 7 309 -144 q 448 379 448 158 q 379 749 448 600 q 174 943 309 898 l 184 1023 q 452 807 354 973 q 551 379 551 641 q 452 -50 551 116 q 184 -265 354 -216 z "},"[":{"ha":788,"x_min":237,"x_max":602,"o":"m 237 -253 l 237 1010 l 602 1010 l 602 914 l 340 914 l 340 -177 l 602 -177 l 602 -253 l 237 -253 z "},"]":{"ha":788,"x_min":186,"x_max":551,"o":"m 186 -253 l 186 -177 l 448 -177 l 448 914 l 186 914 l 186 1010 l 551 1010 l 551 -253 l 186 -253 z "},"{":{"ha":788,"x_min":81,"x_max":602,"o":"m 602 -265 q 283 -217 380 -270 q 186 -56 186 -163 q 208 53 186 9 q 254 129 230 97 q 300 188 278 159 q 322 249 322 216 q 269 334 322 308 q 81 364 216 360 l 81 424 q 269 453 216 428 q 322 535 322 477 q 299 593 322 569 q 253 644 277 617 q 207 714 229 673 q 186 819 186 755 q 283 975 186 922 q 602 1023 380 1028 l 602 927 q 358 903 431 931 q 285 812 285 875 q 304 751 285 780 q 355 687 323 722 q 404 617 385 652 q 423 539 423 582 q 372 436 423 472 q 225 395 322 400 l 225 389 q 372 335 322 376 q 423 221 423 293 q 403 152 423 183 q 352 85 384 120 q 304 21 322 52 q 285 -51 285 -10 q 358 -146 285 -117 q 602 -172 431 -176 l 602 -265 z "},"}":{"ha":788,"x_min":186,"x_max":707,"o":"m 602 -56 q 505 -217 602 -163 q 186 -265 408 -270 l 186 -172 q 430 -146 357 -176 q 503 -51 503 -117 q 484 21 503 -10 q 436 85 466 52 q 384 152 404 120 q 365 221 365 183 q 415 335 365 293 q 563 389 466 376 l 563 395 q 415 436 466 400 q 365 539 365 472 q 384 617 365 582 q 433 687 403 652 q 484 751 465 722 q 503 812 503 780 q 430 903 503 875 q 186 927 357 931 l 186 1023 q 505 975 408 1028 q 602 819 602 922 q 581 714 602 755 q 535 644 559 673 q 489 593 511 617 q 466 535 466 569 q 519 453 466 477 q 707 424 572 428 l 707 364 q 519 334 572 360 q 466 249 466 308 q 488 188 466 216 q 534 129 510 159 q 580 53 558 97 q 602 -56 602 9 z "},"#":{"ha":788,"x_min":81,"x_max":707,"o":"m 462 362 l 473 648 l 326 648 l 314 362 l 462 362 m 447 0 l 458 264 l 311 264 l 299 0 l 207 0 l 218 264 l 81 264 l 81 362 l 222 362 l 234 648 l 81 648 l 81 746 l 237 746 l 249 1010 l 341 1010 l 330 746 l 477 746 l 489 1010 l 581 1010 l 569 746 l 707 746 l 707 648 l 566 648 l 554 362 l 707 362 l 707 264 l 551 264 l 539 0 l 447 0 z "},"%":{"ha":788,"x_min":39,"x_max":751,"o":"m 244 581 q 117 629 165 581 q 68 778 68 677 l 68 846 q 117 989 68 942 q 244 1035 167 1035 q 371 989 323 1035 q 419 846 419 942 l 419 778 q 371 629 419 677 q 244 581 322 581 m 244 670 q 301 696 280 670 q 321 778 321 721 l 321 847 q 301 924 321 899 q 244 948 280 948 q 187 924 208 948 q 165 847 165 899 l 165 778 q 187 696 165 721 q 244 670 208 670 m 39 295 l 707 780 l 751 713 l 82 229 l 39 295 m 544 -28 q 416 18 465 -28 q 367 159 367 64 l 367 237 q 417 380 367 333 q 544 427 466 427 q 671 380 624 427 q 718 237 718 333 l 718 159 q 670 18 718 64 q 544 -28 622 -28 m 544 62 q 600 85 580 62 q 621 159 621 109 l 621 240 q 600 315 621 290 q 544 340 580 340 q 487 315 509 340 q 466 240 466 290 l 466 159 q 487 85 466 109 q 544 62 509 62 z "},"‰":{"ha":788,"x_min":24,"x_max":749,"o":"m 239 581 q 117 628 163 581 q 71 771 71 674 l 71 852 q 117 991 71 946 q 239 1035 164 1035 q 360 991 314 1035 q 405 852 405 946 l 405 771 q 359 628 405 674 q 239 581 313 581 m 170 770 q 189 694 170 717 q 239 670 207 670 q 288 694 270 670 q 306 770 306 717 l 306 855 q 288 926 306 903 q 239 948 270 948 q 189 926 207 948 q 170 855 170 903 l 170 770 m 736 725 l 69 258 l 24 327 l 689 794 l 736 725 m 624 -28 q 567 -11 592 -28 q 525 37 542 5 q 487 -11 511 5 q 431 -28 462 -28 q 338 16 372 -28 q 303 150 303 59 l 303 266 q 338 402 303 357 q 428 447 372 447 q 485 431 461 447 q 527 381 510 414 q 567 431 542 414 q 624 447 592 447 q 715 402 681 447 q 749 266 749 357 l 749 150 q 714 16 749 59 q 624 -28 679 -28 m 394 135 q 405 73 394 92 q 437 53 417 53 q 468 73 457 53 q 480 135 480 92 l 480 284 q 468 349 480 328 q 437 370 457 370 q 405 349 417 370 q 394 284 394 328 l 394 135 m 571 135 q 582 73 571 92 q 615 53 593 53 q 646 73 635 53 q 658 135 658 92 l 658 284 q 646 349 658 328 q 615 370 635 370 q 582 349 593 370 q 571 284 571 328 l 571 135 z "},"'":{"ha":788,"x_min":311,"x_max":477,"o":"m 343 523 l 311 1010 l 477 1010 l 444 523 l 343 523 z "},"\"":{"ha":788,"x_min":152,"x_max":636,"o":"m 501 523 l 470 1010 l 636 1010 l 605 523 l 501 523 m 183 523 l 152 1010 l 318 1010 l 287 523 l 183 523 z "},"ʻ":{"ha":788,"x_min":239,"x_max":562,"o":"m 239 523 l 475 1010 l 562 1010 l 446 523 l 239 523 z "},"‘":{"ha":788,"x_min":239,"x_max":562,"o":"m 239 523 l 475 1010 l 562 1010 l 446 523 l 239 523 z "},"’":{"ha":788,"x_min":226,"x_max":549,"o":"m 226 523 l 342 1010 l 549 1010 l 313 523 l 226 523 z "},"“":{"ha":788,"x_min":77,"x_max":711,"o":"m 395 523 l 634 1010 l 711 1010 l 593 523 l 395 523 m 77 523 l 316 1010 l 393 1010 l 275 523 l 77 523 z "},"”":{"ha":788,"x_min":77,"x_max":710,"o":"m 395 523 l 513 1010 l 710 1010 l 473 523 l 395 523 m 77 523 l 196 1010 l 391 1010 l 154 523 l 77 523 z "},"‛":{"ha":788,"x_min":218,"x_max":540,"o":"m 455 523 l 218 1010 l 424 1010 l 540 523 l 455 523 z "},"‚":{"ha":788,"x_min":250,"x_max":551,"o":"m 250 -270 l 346 216 l 551 216 l 337 -270 l 250 -270 z "},"„":{"ha":788,"x_min":52,"x_max":684,"o":"m 370 -265 l 487 222 l 684 222 l 448 -265 l 370 -265 m 52 -265 l 170 222 l 366 222 l 129 -265 l 52 -265 z "},"‹":{"ha":788,"x_min":237,"x_max":551,"o":"m 551 155 l 237 396 l 237 487 l 551 729 l 551 638 l 298 442 l 551 246 l 551 155 z "},"›":{"ha":788,"x_min":237,"x_max":551,"o":"m 237 155 l 237 246 l 491 442 l 237 638 l 237 729 l 551 487 l 551 396 l 237 155 z "},"«":{"ha":788,"x_min":102,"x_max":688,"o":"m 688 154 l 417 395 l 417 485 l 688 727 l 688 636 l 470 441 l 688 245 l 688 154 m 374 154 l 102 395 l 102 485 l 374 727 l 374 636 l 155 441 l 374 245 l 374 154 z "},"»":{"ha":788,"x_min":102,"x_max":688,"o":"m 102 154 l 102 245 l 321 441 l 102 636 l 102 727 l 374 485 l 374 395 l 102 154 m 417 154 l 417 245 l 635 441 l 417 636 l 417 727 l 688 485 l 688 395 l 417 154 z "},"*":{"ha":788,"x_min":88,"x_max":698,"o":"m 636 414 l 427 593 l 456 313 l 330 313 l 360 592 l 152 414 l 88 521 l 331 663 l 88 803 l 152 912 l 360 732 l 330 1010 l 456 1010 l 427 731 l 636 912 l 698 803 l 456 663 l 698 521 l 636 414 z "},"†":{"ha":788,"x_min":111,"x_max":677,"o":"m 342 -253 l 342 662 l 236 662 l 193 402 l 111 402 l 144 758 l 341 758 l 335 1010 l 453 1010 l 446 758 l 644 758 l 677 402 l 595 402 l 552 662 l 444 662 l 444 -253 l 342 -253 z "},"‡":{"ha":788,"x_min":111,"x_max":677,"o":"m 335 -253 l 341 6 l 144 6 l 111 285 l 193 285 l 236 101 l 342 101 l 342 657 l 236 657 l 193 472 l 111 472 l 144 751 l 341 751 l 335 1010 l 453 1010 l 447 751 l 644 751 l 677 472 l 595 472 l 552 657 l 446 657 l 446 101 l 552 101 l 595 285 l 677 285 l 644 6 l 447 6 l 453 -253 l 335 -253 z "},".":{"ha":788,"x_min":279,"x_max":510,"o":"m 395 -13 q 311 13 343 -13 q 279 97 279 39 l 279 117 q 311 202 279 176 q 395 229 343 229 q 479 202 447 229 q 510 117 510 176 l 510 97 q 478 13 510 39 q 395 -13 446 -13 z "},",":{"ha":788,"x_min":237,"x_max":538,"o":"m 237 -270 l 333 216 l 538 216 l 324 -270 l 237 -270 z "},":":{"ha":788,"x_min":278,"x_max":511,"o":"m 395 501 q 311 525 343 501 q 278 601 278 548 l 278 650 q 311 729 278 705 q 395 754 343 754 q 480 729 448 754 q 511 650 511 705 l 511 601 q 479 525 511 548 q 395 501 446 501 m 395 -15 q 311 8 343 -15 q 278 86 278 32 l 278 135 q 311 214 278 189 q 395 239 343 239 q 480 214 448 239 q 511 135 511 189 l 511 86 q 479 8 511 32 q 395 -15 446 -15 z "},";":{"ha":788,"x_min":236,"x_max":540,"o":"m 395 501 q 311 525 343 501 q 278 601 278 548 l 278 650 q 311 729 278 705 q 395 754 343 754 q 480 729 448 754 q 511 650 511 705 l 511 601 q 479 525 511 548 q 395 501 446 501 m 236 -279 l 332 225 l 540 225 l 323 -279 l 236 -279 z "},"…":{"ha":788,"x_min":67,"x_max":721,"o":"m 646 -11 q 593 15 614 -11 q 572 95 572 40 l 572 121 q 593 203 572 177 q 646 230 614 230 q 700 203 679 230 q 721 121 721 177 l 721 95 q 699 15 721 40 q 646 -11 678 -11 m 394 -11 q 340 15 361 -11 q 319 95 319 40 l 319 121 q 340 203 319 177 q 394 230 361 230 q 448 203 428 230 q 468 121 468 177 l 468 95 q 447 15 468 40 q 394 -11 426 -11 m 143 -11 q 88 15 110 -11 q 67 95 67 40 l 67 121 q 88 203 67 177 q 143 230 110 230 q 196 203 177 230 q 216 121 216 177 l 216 95 q 195 15 216 40 q 143 -11 174 -11 z "},"!":{"ha":788,"x_min":303,"x_max":501,"o":"m 362 379 l 330 1010 l 473 1010 l 442 379 l 362 379 m 403 -13 q 327 13 351 -13 q 303 93 303 39 l 303 129 q 327 211 303 184 q 403 237 351 237 q 478 211 455 237 q 501 129 501 184 l 501 93 q 477 13 501 39 q 403 -13 453 -13 z "},"¡":{"ha":788,"x_min":295,"x_max":494,"o":"m 394 1023 q 470 997 446 1023 q 494 917 494 971 l 494 881 q 470 799 494 826 q 394 773 446 773 q 319 799 343 773 q 295 881 295 826 l 295 917 q 319 997 295 971 q 394 1023 343 1023 m 434 631 l 467 0 l 323 0 l 356 631 l 434 631 z "},"‼":{"ha":788,"x_min":149,"x_max":641,"o":"m 500 379 l 468 1010 l 614 1010 l 582 379 l 500 379 m 208 379 l 177 1010 l 322 1010 l 290 379 l 208 379 m 542 -13 q 496 -6 515 -13 q 465 13 477 0 q 447 46 453 27 q 441 93 441 66 l 441 129 q 447 177 441 157 q 465 211 453 198 q 496 231 477 225 q 542 237 515 237 q 586 231 568 237 q 617 211 605 225 q 636 177 630 198 q 641 129 641 157 l 641 93 q 635 46 641 66 q 617 13 629 27 q 586 -6 605 0 q 542 -13 567 -13 m 250 -13 q 205 -6 223 -13 q 173 13 186 0 q 155 46 162 27 q 149 93 149 66 l 149 129 q 155 177 149 157 q 173 211 162 198 q 205 231 186 225 q 250 237 223 237 q 295 231 277 237 q 326 211 313 225 q 344 177 338 198 q 350 129 350 157 l 350 93 q 343 46 350 66 q 326 13 337 27 q 294 -6 313 0 q 250 -13 275 -13 z "},"?":{"ha":788,"x_min":85,"x_max":708,"o":"m 321 413 l 299 497 q 547 577 486 533 q 609 697 609 621 l 609 739 q 564 879 609 832 q 403 927 520 927 q 234 879 273 927 q 186 693 194 832 l 85 706 q 160 955 93 886 q 402 1023 227 1023 q 636 952 563 1023 q 708 755 708 881 l 708 692 q 619 511 708 569 q 321 413 530 452 m 355 -13 q 280 13 304 -13 q 255 93 255 39 l 255 129 q 280 211 255 184 q 355 237 304 237 q 431 211 407 237 q 455 129 455 184 l 455 93 q 430 13 455 39 q 355 -13 405 -13 z "}}}
